M48
; DRILL file {KiCad (6.0.11)} date Wed 01 Mar 2023 11:45:28 AM EST
; FORMAT={-:-/ absolute / metric / decimal}
; #@! TF.CreationDate,2023-03-01T11:45:28-05:00
; #@! TF.GenerationSoftware,Kicad,Pcbnew,(6.0.11)
; #@! TF.FileFunction,Plated,1,2,PTH
FMAT,2
METRIC
; #@! TA.AperFunction,Plated,PTH,ViaDrill
T1C0.400
; #@! TA.AperFunction,Plated,PTH,ComponentDrill
T2C0.800
; #@! TA.AperFunction,Plated,PTH,ComponentDrill
T3C1.000
; #@! TA.AperFunction,Plated,PTH,ComponentDrill
T4C1.016
; #@! TA.AperFunction,Plated,PTH,ComponentDrill
T5C1.020
; #@! TA.AperFunction,Plated,PTH,ComponentDrill
T6C1.300
; #@! TA.AperFunction,Plated,PTH,ComponentDrill
T7C3.200
%
G90
G05
T1
X146.95Y-78.575
X146.975Y-96.575
X151.55Y-96.188
X152.3Y-84.1
X153.05Y-96.188
X171.3Y-79.5
X171.542Y-76.8
X174.4Y-89.4
X175.6Y-75.6
X175.635Y-76.835
X178.5Y-87.8
T2
X141.305Y-101.8
X151.465Y-101.8
T3
X141.305Y-109.53
X176.865Y-109.53
T4
X143.845Y-112.07
X179.405Y-112.07
T5
X142.8Y-84.65
X142.8Y-87.65
X142.8Y-90.65
X155.55Y-78.72
X158.55Y-78.72
X158.825Y-134.78
X161.825Y-134.78
T6
X160.355Y-93.02
X160.355Y-128.58
T7
X138.525Y-74.6
X138.525Y-138.375
X182.2Y-74.5
X182.3Y-138.3
T0
M30
