%TF.GenerationSoftware,KiCad,Pcbnew,(6.0.11)*%
%TF.CreationDate,2023-02-16T11:16:12-05:00*%
%TF.ProjectId,DCT_HV_Widget,4443545f-4856-45f5-9769-646765742e6b,rev?*%
%TF.SameCoordinates,Original*%
%TF.FileFunction,Drillmap*%
%TF.FilePolarity,Positive*%
%FSLAX45Y45*%
G04 Gerber Fmt 4.5, Leading zero omitted, Abs format (unit mm)*
G04 Created by KiCad (PCBNEW (6.0.11)) date 2023-02-16 11:16:12*
%MOMM*%
%LPD*%
G01*
G04 APERTURE LIST*
%ADD10C,0.101600*%
%ADD11C,0.200000*%
%ADD12C,0.300000*%
G04 APERTURE END LIST*
D10*
X11597500Y-5510000D02*
X20487500Y-5510000D01*
X20487500Y-5510000D02*
X20487500Y-14400000D01*
X20487500Y-14400000D02*
X11597500Y-14400000D01*
X11597500Y-14400000D02*
X11597500Y-5510000D01*
D11*
D12*
X11948000Y-8387500D02*
X12248000Y-8687500D01*
X12248000Y-8387500D02*
X11948000Y-8687500D01*
X15882500Y-5860000D02*
X16182500Y-6160000D01*
X16182500Y-5860000D02*
X15882500Y-6160000D01*
X15882500Y-13760000D02*
X16182500Y-14060000D01*
X16182500Y-13760000D02*
X15882500Y-14060000D01*
D11*
X11850039Y-14715556D02*
X11850039Y-14515556D01*
X11897658Y-14515556D01*
X11926229Y-14525080D01*
X11945277Y-14544128D01*
X11954801Y-14563175D01*
X11964325Y-14601270D01*
X11964325Y-14629842D01*
X11954801Y-14667937D01*
X11945277Y-14686985D01*
X11926229Y-14706032D01*
X11897658Y-14715556D01*
X11850039Y-14715556D01*
X12050039Y-14715556D02*
X12050039Y-14582223D01*
X12050039Y-14620318D02*
X12059563Y-14601270D01*
X12069087Y-14591747D01*
X12088134Y-14582223D01*
X12107182Y-14582223D01*
X12173848Y-14715556D02*
X12173848Y-14582223D01*
X12173848Y-14515556D02*
X12164325Y-14525080D01*
X12173848Y-14534604D01*
X12183372Y-14525080D01*
X12173848Y-14515556D01*
X12173848Y-14534604D01*
X12297658Y-14715556D02*
X12278610Y-14706032D01*
X12269087Y-14686985D01*
X12269087Y-14515556D01*
X12402420Y-14715556D02*
X12383372Y-14706032D01*
X12373848Y-14686985D01*
X12373848Y-14515556D01*
X12630991Y-14715556D02*
X12630991Y-14515556D01*
X12697658Y-14658413D01*
X12764325Y-14515556D01*
X12764325Y-14715556D01*
X12945277Y-14715556D02*
X12945277Y-14610794D01*
X12935753Y-14591747D01*
X12916706Y-14582223D01*
X12878610Y-14582223D01*
X12859563Y-14591747D01*
X12945277Y-14706032D02*
X12926229Y-14715556D01*
X12878610Y-14715556D01*
X12859563Y-14706032D01*
X12850039Y-14686985D01*
X12850039Y-14667937D01*
X12859563Y-14648889D01*
X12878610Y-14639366D01*
X12926229Y-14639366D01*
X12945277Y-14629842D01*
X13040515Y-14582223D02*
X13040515Y-14782223D01*
X13040515Y-14591747D02*
X13059563Y-14582223D01*
X13097658Y-14582223D01*
X13116706Y-14591747D01*
X13126229Y-14601270D01*
X13135753Y-14620318D01*
X13135753Y-14677461D01*
X13126229Y-14696508D01*
X13116706Y-14706032D01*
X13097658Y-14715556D01*
X13059563Y-14715556D01*
X13040515Y-14706032D01*
X13221468Y-14696508D02*
X13230991Y-14706032D01*
X13221468Y-14715556D01*
X13211944Y-14706032D01*
X13221468Y-14696508D01*
X13221468Y-14715556D01*
X13221468Y-14591747D02*
X13230991Y-14601270D01*
X13221468Y-14610794D01*
X13211944Y-14601270D01*
X13221468Y-14591747D01*
X13221468Y-14610794D01*
X11392420Y-14945080D02*
X11592420Y-15145080D01*
X11592420Y-14945080D02*
X11392420Y-15145080D01*
X11830991Y-14935556D02*
X11954801Y-14935556D01*
X11888134Y-15011747D01*
X11916706Y-15011747D01*
X11935753Y-15021270D01*
X11945277Y-15030794D01*
X11954801Y-15049842D01*
X11954801Y-15097461D01*
X11945277Y-15116508D01*
X11935753Y-15126032D01*
X11916706Y-15135556D01*
X11859563Y-15135556D01*
X11840515Y-15126032D01*
X11830991Y-15116508D01*
X12040515Y-15116508D02*
X12050039Y-15126032D01*
X12040515Y-15135556D01*
X12030991Y-15126032D01*
X12040515Y-15116508D01*
X12040515Y-15135556D01*
X12173848Y-14935556D02*
X12192896Y-14935556D01*
X12211944Y-14945080D01*
X12221468Y-14954604D01*
X12230991Y-14973651D01*
X12240515Y-15011747D01*
X12240515Y-15059366D01*
X12230991Y-15097461D01*
X12221468Y-15116508D01*
X12211944Y-15126032D01*
X12192896Y-15135556D01*
X12173848Y-15135556D01*
X12154801Y-15126032D01*
X12145277Y-15116508D01*
X12135753Y-15097461D01*
X12126229Y-15059366D01*
X12126229Y-15011747D01*
X12135753Y-14973651D01*
X12145277Y-14954604D01*
X12154801Y-14945080D01*
X12173848Y-14935556D01*
X12364325Y-14935556D02*
X12383372Y-14935556D01*
X12402420Y-14945080D01*
X12411944Y-14954604D01*
X12421468Y-14973651D01*
X12430991Y-15011747D01*
X12430991Y-15059366D01*
X12421468Y-15097461D01*
X12411944Y-15116508D01*
X12402420Y-15126032D01*
X12383372Y-15135556D01*
X12364325Y-15135556D01*
X12345277Y-15126032D01*
X12335753Y-15116508D01*
X12326229Y-15097461D01*
X12316706Y-15059366D01*
X12316706Y-15011747D01*
X12326229Y-14973651D01*
X12335753Y-14954604D01*
X12345277Y-14945080D01*
X12364325Y-14935556D01*
X12554801Y-14935556D02*
X12573848Y-14935556D01*
X12592896Y-14945080D01*
X12602420Y-14954604D01*
X12611944Y-14973651D01*
X12621468Y-15011747D01*
X12621468Y-15059366D01*
X12611944Y-15097461D01*
X12602420Y-15116508D01*
X12592896Y-15126032D01*
X12573848Y-15135556D01*
X12554801Y-15135556D01*
X12535753Y-15126032D01*
X12526229Y-15116508D01*
X12516706Y-15097461D01*
X12507182Y-15059366D01*
X12507182Y-15011747D01*
X12516706Y-14973651D01*
X12526229Y-14954604D01*
X12535753Y-14945080D01*
X12554801Y-14935556D01*
X12707182Y-15135556D02*
X12707182Y-15002223D01*
X12707182Y-15021270D02*
X12716706Y-15011747D01*
X12735753Y-15002223D01*
X12764325Y-15002223D01*
X12783372Y-15011747D01*
X12792896Y-15030794D01*
X12792896Y-15135556D01*
X12792896Y-15030794D02*
X12802420Y-15011747D01*
X12821468Y-15002223D01*
X12850039Y-15002223D01*
X12869087Y-15011747D01*
X12878610Y-15030794D01*
X12878610Y-15135556D01*
X12973848Y-15135556D02*
X12973848Y-15002223D01*
X12973848Y-15021270D02*
X12983372Y-15011747D01*
X13002420Y-15002223D01*
X13030991Y-15002223D01*
X13050039Y-15011747D01*
X13059563Y-15030794D01*
X13059563Y-15135556D01*
X13059563Y-15030794D02*
X13069087Y-15011747D01*
X13088134Y-15002223D01*
X13116706Y-15002223D01*
X13135753Y-15011747D01*
X13145277Y-15030794D01*
X13145277Y-15135556D01*
X13535753Y-14926032D02*
X13364325Y-15183175D01*
X13792896Y-14935556D02*
X13811944Y-14935556D01*
X13830991Y-14945080D01*
X13840515Y-14954604D01*
X13850039Y-14973651D01*
X13859563Y-15011747D01*
X13859563Y-15059366D01*
X13850039Y-15097461D01*
X13840515Y-15116508D01*
X13830991Y-15126032D01*
X13811944Y-15135556D01*
X13792896Y-15135556D01*
X13773848Y-15126032D01*
X13764325Y-15116508D01*
X13754801Y-15097461D01*
X13745277Y-15059366D01*
X13745277Y-15011747D01*
X13754801Y-14973651D01*
X13764325Y-14954604D01*
X13773848Y-14945080D01*
X13792896Y-14935556D01*
X13945277Y-15116508D02*
X13954801Y-15126032D01*
X13945277Y-15135556D01*
X13935753Y-15126032D01*
X13945277Y-15116508D01*
X13945277Y-15135556D01*
X14145277Y-15135556D02*
X14030991Y-15135556D01*
X14088134Y-15135556D02*
X14088134Y-14935556D01*
X14069087Y-14964128D01*
X14050039Y-14983175D01*
X14030991Y-14992699D01*
X14335753Y-15135556D02*
X14221468Y-15135556D01*
X14278610Y-15135556D02*
X14278610Y-14935556D01*
X14259563Y-14964128D01*
X14240515Y-14983175D01*
X14221468Y-14992699D01*
X14450039Y-15021270D02*
X14430991Y-15011747D01*
X14421468Y-15002223D01*
X14411944Y-14983175D01*
X14411944Y-14973651D01*
X14421468Y-14954604D01*
X14430991Y-14945080D01*
X14450039Y-14935556D01*
X14488134Y-14935556D01*
X14507182Y-14945080D01*
X14516706Y-14954604D01*
X14526229Y-14973651D01*
X14526229Y-14983175D01*
X14516706Y-15002223D01*
X14507182Y-15011747D01*
X14488134Y-15021270D01*
X14450039Y-15021270D01*
X14430991Y-15030794D01*
X14421468Y-15040318D01*
X14411944Y-15059366D01*
X14411944Y-15097461D01*
X14421468Y-15116508D01*
X14430991Y-15126032D01*
X14450039Y-15135556D01*
X14488134Y-15135556D01*
X14507182Y-15126032D01*
X14516706Y-15116508D01*
X14526229Y-15097461D01*
X14526229Y-15059366D01*
X14516706Y-15040318D01*
X14507182Y-15030794D01*
X14488134Y-15021270D01*
X14716706Y-15135556D02*
X14602420Y-15135556D01*
X14659563Y-15135556D02*
X14659563Y-14935556D01*
X14640515Y-14964128D01*
X14621468Y-14983175D01*
X14602420Y-14992699D01*
X14792896Y-14935556D02*
X14792896Y-14973651D01*
X14869087Y-14935556D02*
X14869087Y-14973651D01*
X15164325Y-15211747D02*
X15154801Y-15202223D01*
X15135753Y-15173651D01*
X15126229Y-15154604D01*
X15116706Y-15126032D01*
X15107182Y-15078413D01*
X15107182Y-15040318D01*
X15116706Y-14992699D01*
X15126229Y-14964128D01*
X15135753Y-14945080D01*
X15154801Y-14916508D01*
X15164325Y-14906985D01*
X15221468Y-14935556D02*
X15345277Y-14935556D01*
X15278610Y-15011747D01*
X15307182Y-15011747D01*
X15326229Y-15021270D01*
X15335753Y-15030794D01*
X15345277Y-15049842D01*
X15345277Y-15097461D01*
X15335753Y-15116508D01*
X15326229Y-15126032D01*
X15307182Y-15135556D01*
X15250039Y-15135556D01*
X15230991Y-15126032D01*
X15221468Y-15116508D01*
X15583372Y-15135556D02*
X15583372Y-14935556D01*
X15669087Y-15135556D02*
X15669087Y-15030794D01*
X15659563Y-15011747D01*
X15640515Y-15002223D01*
X15611944Y-15002223D01*
X15592896Y-15011747D01*
X15583372Y-15021270D01*
X15792896Y-15135556D02*
X15773848Y-15126032D01*
X15764325Y-15116508D01*
X15754801Y-15097461D01*
X15754801Y-15040318D01*
X15764325Y-15021270D01*
X15773848Y-15011747D01*
X15792896Y-15002223D01*
X15821468Y-15002223D01*
X15840515Y-15011747D01*
X15850039Y-15021270D01*
X15859563Y-15040318D01*
X15859563Y-15097461D01*
X15850039Y-15116508D01*
X15840515Y-15126032D01*
X15821468Y-15135556D01*
X15792896Y-15135556D01*
X15973848Y-15135556D02*
X15954801Y-15126032D01*
X15945277Y-15106985D01*
X15945277Y-14935556D01*
X16126229Y-15126032D02*
X16107182Y-15135556D01*
X16069087Y-15135556D01*
X16050039Y-15126032D01*
X16040515Y-15106985D01*
X16040515Y-15030794D01*
X16050039Y-15011747D01*
X16069087Y-15002223D01*
X16107182Y-15002223D01*
X16126229Y-15011747D01*
X16135753Y-15030794D01*
X16135753Y-15049842D01*
X16040515Y-15068889D01*
X16211944Y-15126032D02*
X16230991Y-15135556D01*
X16269087Y-15135556D01*
X16288134Y-15126032D01*
X16297658Y-15106985D01*
X16297658Y-15097461D01*
X16288134Y-15078413D01*
X16269087Y-15068889D01*
X16240515Y-15068889D01*
X16221468Y-15059366D01*
X16211944Y-15040318D01*
X16211944Y-15030794D01*
X16221468Y-15011747D01*
X16240515Y-15002223D01*
X16269087Y-15002223D01*
X16288134Y-15011747D01*
X16364325Y-15211747D02*
X16373848Y-15202223D01*
X16392896Y-15173651D01*
X16402420Y-15154604D01*
X16411944Y-15126032D01*
X16421468Y-15078413D01*
X16421468Y-15040318D01*
X16411944Y-14992699D01*
X16402420Y-14964128D01*
X16392896Y-14945080D01*
X16373848Y-14916508D01*
X16364325Y-14906985D01*
X16726229Y-15211747D02*
X16716706Y-15202223D01*
X16697658Y-15173651D01*
X16688134Y-15154604D01*
X16678610Y-15126032D01*
X16669087Y-15078413D01*
X16669087Y-15040318D01*
X16678610Y-14992699D01*
X16688134Y-14964128D01*
X16697658Y-14945080D01*
X16716706Y-14916508D01*
X16726229Y-14906985D01*
X16802420Y-15002223D02*
X16802420Y-15135556D01*
X16802420Y-15021270D02*
X16811944Y-15011747D01*
X16830991Y-15002223D01*
X16859563Y-15002223D01*
X16878610Y-15011747D01*
X16888134Y-15030794D01*
X16888134Y-15135556D01*
X17011944Y-15135556D02*
X16992896Y-15126032D01*
X16983372Y-15116508D01*
X16973849Y-15097461D01*
X16973849Y-15040318D01*
X16983372Y-15021270D01*
X16992896Y-15011747D01*
X17011944Y-15002223D01*
X17040515Y-15002223D01*
X17059563Y-15011747D01*
X17069087Y-15021270D01*
X17078610Y-15040318D01*
X17078610Y-15097461D01*
X17069087Y-15116508D01*
X17059563Y-15126032D01*
X17040515Y-15135556D01*
X17011944Y-15135556D01*
X17135753Y-15002223D02*
X17211944Y-15002223D01*
X17164325Y-14935556D02*
X17164325Y-15106985D01*
X17173849Y-15126032D01*
X17192896Y-15135556D01*
X17211944Y-15135556D01*
X17430991Y-15002223D02*
X17430991Y-15202223D01*
X17430991Y-15011747D02*
X17450039Y-15002223D01*
X17488134Y-15002223D01*
X17507182Y-15011747D01*
X17516706Y-15021270D01*
X17526230Y-15040318D01*
X17526230Y-15097461D01*
X17516706Y-15116508D01*
X17507182Y-15126032D01*
X17488134Y-15135556D01*
X17450039Y-15135556D01*
X17430991Y-15126032D01*
X17640515Y-15135556D02*
X17621468Y-15126032D01*
X17611944Y-15106985D01*
X17611944Y-14935556D01*
X17802420Y-15135556D02*
X17802420Y-15030794D01*
X17792896Y-15011747D01*
X17773849Y-15002223D01*
X17735753Y-15002223D01*
X17716706Y-15011747D01*
X17802420Y-15126032D02*
X17783372Y-15135556D01*
X17735753Y-15135556D01*
X17716706Y-15126032D01*
X17707182Y-15106985D01*
X17707182Y-15087937D01*
X17716706Y-15068889D01*
X17735753Y-15059366D01*
X17783372Y-15059366D01*
X17802420Y-15049842D01*
X17869087Y-15002223D02*
X17945277Y-15002223D01*
X17897658Y-14935556D02*
X17897658Y-15106985D01*
X17907182Y-15126032D01*
X17926230Y-15135556D01*
X17945277Y-15135556D01*
X18088134Y-15126032D02*
X18069087Y-15135556D01*
X18030991Y-15135556D01*
X18011944Y-15126032D01*
X18002420Y-15106985D01*
X18002420Y-15030794D01*
X18011944Y-15011747D01*
X18030991Y-15002223D01*
X18069087Y-15002223D01*
X18088134Y-15011747D01*
X18097658Y-15030794D01*
X18097658Y-15049842D01*
X18002420Y-15068889D01*
X18269087Y-15135556D02*
X18269087Y-14935556D01*
X18269087Y-15126032D02*
X18250039Y-15135556D01*
X18211944Y-15135556D01*
X18192896Y-15126032D01*
X18183372Y-15116508D01*
X18173849Y-15097461D01*
X18173849Y-15040318D01*
X18183372Y-15021270D01*
X18192896Y-15011747D01*
X18211944Y-15002223D01*
X18250039Y-15002223D01*
X18269087Y-15011747D01*
X18345277Y-15211747D02*
X18354801Y-15202223D01*
X18373849Y-15173651D01*
X18383372Y-15154604D01*
X18392896Y-15126032D01*
X18402420Y-15078413D01*
X18402420Y-15040318D01*
X18392896Y-14992699D01*
X18383372Y-14964128D01*
X18373849Y-14945080D01*
X18354801Y-14916508D01*
X18345277Y-14906985D01*
M02*
