%TF.GenerationSoftware,KiCad,Pcbnew,6.0.9-8da3e8f707~117~ubuntu20.04.1*%
%TF.CreationDate,2023-03-07T09:55:21-05:00*%
%TF.ProjectId,DCT_HV_Widget,4443545f-4856-45f5-9769-646765742e6b,rev?*%
%TF.SameCoordinates,Original*%
%TF.FileFunction,Soldermask,Top*%
%TF.FilePolarity,Negative*%
%FSLAX46Y46*%
G04 Gerber Fmt 4.6, Leading zero omitted, Abs format (unit mm)*
G04 Created by KiCad (PCBNEW 6.0.9-8da3e8f707~117~ubuntu20.04.1) date 2023-03-07 09:55:21*
%MOMM*%
%LPD*%
G01*
G04 APERTURE LIST*
G04 Aperture macros list*
%AMRoundRect*
0 Rectangle with rounded corners*
0 $1 Rounding radius*
0 $2 $3 $4 $5 $6 $7 $8 $9 X,Y pos of 4 corners*
0 Add a 4 corners polygon primitive as box body*
4,1,4,$2,$3,$4,$5,$6,$7,$8,$9,$2,$3,0*
0 Add four circle primitives for the rounded corners*
1,1,$1+$1,$2,$3*
1,1,$1+$1,$4,$5*
1,1,$1+$1,$6,$7*
1,1,$1+$1,$8,$9*
0 Add four rect primitives between the rounded corners*
20,1,$1+$1,$2,$3,$4,$5,0*
20,1,$1+$1,$4,$5,$6,$7,0*
20,1,$1+$1,$6,$7,$8,$9,0*
20,1,$1+$1,$8,$9,$2,$3,0*%
G04 Aperture macros list end*
%ADD10C,0.040000*%
%ADD11RoundRect,0.285000X0.225000X0.250000X-0.225000X0.250000X-0.225000X-0.250000X0.225000X-0.250000X0*%
%ADD12RoundRect,0.260000X-0.200000X-0.275000X0.200000X-0.275000X0.200000X0.275000X-0.200000X0.275000X0*%
%ADD13C,6.520000*%
%ADD14RoundRect,0.310000X-0.925000X0.412500X-0.925000X-0.412500X0.925000X-0.412500X0.925000X0.412500X0*%
%ADD15RoundRect,0.060000X0.266700X-0.730250X0.266700X0.730250X-0.266700X0.730250X-0.266700X-0.730250X0*%
%ADD16RoundRect,0.060000X-0.450000X-0.650000X0.450000X-0.650000X0.450000X0.650000X-0.450000X0.650000X0*%
%ADD17RoundRect,0.060000X0.866000X-1.562500X0.866000X1.562500X-0.866000X1.562500X-0.866000X-1.562500X0*%
%ADD18RoundRect,0.060000X-0.450000X-0.737500X0.450000X-0.737500X0.450000X0.737500X-0.450000X0.737500X0*%
%ADD19RoundRect,0.285000X0.250000X-0.225000X0.250000X0.225000X-0.250000X0.225000X-0.250000X-0.225000X0*%
%ADD20RoundRect,0.260000X0.200000X0.275000X-0.200000X0.275000X-0.200000X-0.275000X0.200000X-0.275000X0*%
%ADD21C,1.720000*%
%ADD22O,1.720000X1.720000*%
%ADD23C,3.120000*%
%ADD24RoundRect,0.310001X0.499999X0.759999X-0.499999X0.759999X-0.499999X-0.759999X0.499999X-0.759999X0*%
%ADD25O,1.620000X2.140000*%
%ADD26RoundRect,0.310001X0.759999X-0.499999X0.759999X0.499999X-0.759999X0.499999X-0.759999X-0.499999X0*%
%ADD27O,2.140000X1.620000*%
%ADD28RoundRect,0.310001X-0.499999X-0.759999X0.499999X-0.759999X0.499999X0.759999X-0.499999X0.759999X0*%
%ADD29RoundRect,0.060000X-0.300000X0.275000X-0.300000X-0.275000X0.300000X-0.275000X0.300000X0.275000X0*%
%ADD30RoundRect,0.260000X-0.275000X0.200000X-0.275000X-0.200000X0.275000X-0.200000X0.275000X0.200000X0*%
%ADD31RoundRect,0.260000X0.275000X-0.200000X0.275000X0.200000X-0.275000X0.200000X-0.275000X-0.200000X0*%
%ADD32C,2.152000*%
%ADD33C,2.660000*%
G04 APERTURE END LIST*
D10*
%TO.C,Q1*%
X152184000Y-89992500D02*
X153916000Y-89992500D01*
X153916000Y-89992500D02*
X153916000Y-93117500D01*
X153916000Y-93117500D02*
X152184000Y-93117500D01*
X152184000Y-93117500D02*
X152184000Y-89992500D01*
G36*
X152184000Y-89992500D02*
G01*
X153916000Y-89992500D01*
X153916000Y-93117500D01*
X152184000Y-93117500D01*
X152184000Y-89992500D01*
G37*
%TD*%
D11*
%TO.C,C4*%
X174365000Y-76800000D03*
X172815000Y-76800000D03*
%TD*%
D12*
%TO.C,R1*%
X155575000Y-87200000D03*
X157225000Y-87200000D03*
%TD*%
%TO.C,R4*%
X171322000Y-83975000D03*
X169672000Y-83975000D03*
%TD*%
D13*
%TO.C,H2*%
X182200000Y-74500000D03*
%TD*%
D14*
%TO.C,C6*%
X146950000Y-90650000D03*
X146950000Y-93725000D03*
%TD*%
D13*
%TO.C,H1*%
X138525000Y-74600000D03*
%TD*%
%TO.C,H3*%
X138525000Y-138375000D03*
%TD*%
D15*
%TO.C,U1*%
X173095000Y-84424150D03*
X174365000Y-84424150D03*
X175635000Y-84424150D03*
X176905000Y-84424150D03*
X176905000Y-78975850D03*
X175635000Y-78975850D03*
X174365000Y-78975850D03*
X173095000Y-78975850D03*
%TD*%
D16*
%TO.C,Q1*%
X154540000Y-93942500D03*
X151550000Y-93942500D03*
D17*
X153050000Y-91555000D03*
D18*
X153050000Y-93855000D03*
%TD*%
D19*
%TO.C,C1*%
X171300000Y-82475000D03*
X171300000Y-80925000D03*
%TD*%
D20*
%TO.C,R3*%
X155575000Y-84100000D03*
X153925000Y-84100000D03*
%TD*%
D13*
%TO.C,H4*%
X182300000Y-138300000D03*
%TD*%
D21*
%TO.C,R5*%
X151465000Y-101800000D03*
D22*
X141305000Y-101800000D03*
%TD*%
D23*
%TO.C,J3*%
X160325000Y-139100000D03*
D24*
X161825000Y-134780000D03*
D25*
X158825000Y-134780000D03*
%TD*%
D23*
%TO.C,J2*%
X138480000Y-87650000D03*
D26*
X142800000Y-90650000D03*
D27*
X142800000Y-87650000D03*
X142800000Y-84650000D03*
%TD*%
D23*
%TO.C,J1*%
X157050000Y-74400000D03*
D28*
X155550000Y-78720000D03*
D25*
X158550000Y-78720000D03*
%TD*%
D29*
%TO.C,D1*%
X159055000Y-85725000D03*
X160355000Y-85725000D03*
X159705000Y-83875000D03*
%TD*%
D30*
%TO.C,R6*%
X175600000Y-89875000D03*
X175600000Y-91525000D03*
%TD*%
D14*
%TO.C,C5*%
X146950000Y-81575000D03*
X146950000Y-84650000D03*
%TD*%
D31*
%TO.C,R2*%
X174365000Y-88150000D03*
X174365000Y-86500000D03*
%TD*%
D32*
%TO.C,U2*%
X141305000Y-109530000D03*
X143845000Y-112070000D03*
X176865000Y-109530000D03*
X179405000Y-112070000D03*
D33*
X160355000Y-93020000D03*
X160355000Y-128580000D03*
%TD*%
D19*
%TO.C,C2*%
X169672000Y-80925000D03*
X169672000Y-82475000D03*
%TD*%
D11*
%TO.C,C3*%
X178455000Y-86500000D03*
X176905000Y-86500000D03*
%TD*%
M02*
