%TF.GenerationSoftware,KiCad,Pcbnew,6.0.9-8da3e8f707~117~ubuntu20.04.1*%
%TF.CreationDate,2023-03-07T09:55:03-05:00*%
%TF.ProjectId,DCT_HV_Widget,4443545f-4856-45f5-9769-646765742e6b,rev?*%
%TF.SameCoordinates,Original*%
%TF.FileFunction,Copper,L2,Bot*%
%TF.FilePolarity,Positive*%
%FSLAX46Y46*%
G04 Gerber Fmt 4.6, Leading zero omitted, Abs format (unit mm)*
G04 Created by KiCad (PCBNEW 6.0.9-8da3e8f707~117~ubuntu20.04.1) date 2023-03-07 09:55:03*
%MOMM*%
%LPD*%
G01*
G04 APERTURE LIST*
G04 Aperture macros list*
%AMRoundRect*
0 Rectangle with rounded corners*
0 $1 Rounding radius*
0 $2 $3 $4 $5 $6 $7 $8 $9 X,Y pos of 4 corners*
0 Add a 4 corners polygon primitive as box body*
4,1,4,$2,$3,$4,$5,$6,$7,$8,$9,$2,$3,0*
0 Add four circle primitives for the rounded corners*
1,1,$1+$1,$2,$3*
1,1,$1+$1,$4,$5*
1,1,$1+$1,$6,$7*
1,1,$1+$1,$8,$9*
0 Add four rect primitives between the rounded corners*
20,1,$1+$1,$2,$3,$4,$5,0*
20,1,$1+$1,$4,$5,$6,$7,0*
20,1,$1+$1,$6,$7,$8,$9,0*
20,1,$1+$1,$8,$9,$2,$3,0*%
G04 Aperture macros list end*
%TA.AperFunction,ComponentPad*%
%ADD10C,6.400000*%
%TD*%
%TA.AperFunction,ComponentPad*%
%ADD11C,1.600000*%
%TD*%
%TA.AperFunction,ComponentPad*%
%ADD12O,1.600000X1.600000*%
%TD*%
%TA.AperFunction,ComponentPad*%
%ADD13RoundRect,0.250001X0.499999X0.759999X-0.499999X0.759999X-0.499999X-0.759999X0.499999X-0.759999X0*%
%TD*%
%TA.AperFunction,ComponentPad*%
%ADD14O,1.500000X2.020000*%
%TD*%
%TA.AperFunction,ComponentPad*%
%ADD15RoundRect,0.250001X0.759999X-0.499999X0.759999X0.499999X-0.759999X0.499999X-0.759999X-0.499999X0*%
%TD*%
%TA.AperFunction,ComponentPad*%
%ADD16O,2.020000X1.500000*%
%TD*%
%TA.AperFunction,ComponentPad*%
%ADD17RoundRect,0.250001X-0.499999X-0.759999X0.499999X-0.759999X0.499999X0.759999X-0.499999X0.759999X0*%
%TD*%
%TA.AperFunction,ComponentPad*%
%ADD18C,2.032000*%
%TD*%
%TA.AperFunction,ComponentPad*%
%ADD19C,2.540000*%
%TD*%
%TA.AperFunction,ViaPad*%
%ADD20C,0.800000*%
%TD*%
%TA.AperFunction,Conductor*%
%ADD21C,0.250000*%
%TD*%
G04 APERTURE END LIST*
D10*
%TO.P,H2,1,1*%
%TO.N,GND*%
X182200000Y-74500000D03*
%TD*%
%TO.P,H1,1,1*%
%TO.N,GND*%
X138525000Y-74600000D03*
%TD*%
%TO.P,H3,1,1*%
%TO.N,GND*%
X138525000Y-138375000D03*
%TD*%
%TO.P,H4,1,1*%
%TO.N,GND*%
X182300000Y-138300000D03*
%TD*%
D11*
%TO.P,R5,1*%
%TO.N,Net-(Q1-Pad1)*%
X151465000Y-101800000D03*
D12*
%TO.P,R5,2*%
%TO.N,Net-(R5-Pad2)*%
X141305000Y-101800000D03*
%TD*%
D13*
%TO.P,J3,1,Pin_1*%
%TO.N,/HV_Input*%
X161825000Y-134780000D03*
D14*
%TO.P,J3,2,Pin_2*%
X158825000Y-134780000D03*
%TD*%
D15*
%TO.P,J2,1,Pin_1*%
%TO.N,/VP6*%
X142800000Y-90650000D03*
D16*
%TO.P,J2,2,Pin_2*%
%TO.N,GND*%
X142800000Y-87650000D03*
%TO.P,J2,3,Pin_3*%
%TO.N,/VM6*%
X142800000Y-84650000D03*
%TD*%
D17*
%TO.P,J1,1,Pin_1*%
%TO.N,/V_Control*%
X155550000Y-78720000D03*
D14*
%TO.P,J1,2,Pin_2*%
%TO.N,GND*%
X158550000Y-78720000D03*
%TD*%
D18*
%TO.P,U2,1*%
%TO.N,Net-(R5-Pad2)*%
X141305000Y-109530000D03*
%TO.P,U2,2*%
%TO.N,Net-(U2-Pad2)*%
X143845000Y-112070000D03*
%TO.P,U2,3*%
%TO.N,/VM6*%
X176865000Y-109530000D03*
%TO.P,U2,4*%
%TO.N,Net-(U2-Pad2)*%
X179405000Y-112070000D03*
D19*
%TO.P,U2,5*%
%TO.N,Net-(D1-Pad1)*%
X160355000Y-93020000D03*
%TO.P,U2,6*%
%TO.N,/HV_Input*%
X160355000Y-128580000D03*
%TD*%
D20*
%TO.N,Net-(C1-Pad2)*%
X175635000Y-76835000D03*
X171300000Y-79500000D03*
X151550000Y-96187500D03*
%TO.N,GND*%
X174400000Y-89400000D03*
X146975000Y-96575000D03*
X146950000Y-78575000D03*
X152300000Y-84100000D03*
X178500000Y-87800000D03*
X171542000Y-76800000D03*
%TO.N,/VP6*%
X153050000Y-96187500D03*
X175600000Y-75600000D03*
%TD*%
D21*
%TO.N,Net-(C1-Pad2)*%
X160652835Y-94977835D02*
X171300000Y-84330671D01*
X160168170Y-95462500D02*
X160652835Y-94977835D01*
X173965000Y-76835000D02*
X175635000Y-76835000D01*
X151550000Y-96187500D02*
X152275000Y-95462500D01*
X152275000Y-95462500D02*
X160168170Y-95462500D01*
X171300000Y-79500000D02*
X173965000Y-76835000D01*
X171300000Y-84330671D02*
X171300000Y-79500000D01*
X160205671Y-95425000D02*
X160652835Y-94977835D01*
%TO.N,/VP6*%
X160887500Y-96187500D02*
X176360000Y-80715000D01*
X153050000Y-96187500D02*
X160887500Y-96187500D01*
X176360000Y-76360000D02*
X175600000Y-75600000D01*
X176360000Y-80715000D02*
X176360000Y-76360000D01*
%TO.N,Net-(U2-Pad2)*%
X143845000Y-112100000D02*
X179405000Y-112100000D01*
%TD*%
%TA.AperFunction,Conductor*%
%TO.N,GND*%
G36*
X186808621Y-69928502D02*
G01*
X186855114Y-69982158D01*
X186866500Y-70034500D01*
X186866500Y-143365500D01*
X186846498Y-143433621D01*
X186792842Y-143480114D01*
X186740500Y-143491500D01*
X177000000Y-143491500D01*
X176931879Y-143471498D01*
X176885386Y-143417842D01*
X176874000Y-143365500D01*
X176874000Y-113964000D01*
X143842000Y-113964000D01*
X143842000Y-143365500D01*
X143821998Y-143433621D01*
X143768342Y-143480114D01*
X143716000Y-143491500D01*
X134059500Y-143491500D01*
X133991379Y-143471498D01*
X133944886Y-143417842D01*
X133933500Y-143365500D01*
X133933500Y-112070000D01*
X142315786Y-112070000D01*
X142334613Y-112309222D01*
X142335767Y-112314029D01*
X142335768Y-112314035D01*
X142371043Y-112460963D01*
X142390631Y-112542553D01*
X142482460Y-112764249D01*
X142607840Y-112968849D01*
X142763682Y-113151318D01*
X142946151Y-113307160D01*
X143150751Y-113432540D01*
X143155321Y-113434433D01*
X143155323Y-113434434D01*
X143367874Y-113522475D01*
X143372447Y-113524369D01*
X143454037Y-113543957D01*
X143600965Y-113579232D01*
X143600971Y-113579233D01*
X143605778Y-113580387D01*
X143845000Y-113599214D01*
X144084222Y-113580387D01*
X144089029Y-113579233D01*
X144089035Y-113579232D01*
X144235963Y-113543957D01*
X144317553Y-113524369D01*
X144322126Y-113522475D01*
X144534677Y-113434434D01*
X144534679Y-113434433D01*
X144539249Y-113432540D01*
X144743849Y-113307160D01*
X144926318Y-113151318D01*
X145082160Y-112968849D01*
X145189514Y-112793665D01*
X145242161Y-112746033D01*
X145296946Y-112733500D01*
X177953054Y-112733500D01*
X178021175Y-112753502D01*
X178060486Y-112793665D01*
X178167840Y-112968849D01*
X178323682Y-113151318D01*
X178506151Y-113307160D01*
X178710751Y-113432540D01*
X178715321Y-113434433D01*
X178715323Y-113434434D01*
X178927874Y-113522475D01*
X178932447Y-113524369D01*
X179014037Y-113543957D01*
X179160965Y-113579232D01*
X179160971Y-113579233D01*
X179165778Y-113580387D01*
X179405000Y-113599214D01*
X179644222Y-113580387D01*
X179649029Y-113579233D01*
X179649035Y-113579232D01*
X179795963Y-113543957D01*
X179877553Y-113524369D01*
X179882126Y-113522475D01*
X180094677Y-113434434D01*
X180094679Y-113434433D01*
X180099249Y-113432540D01*
X180303849Y-113307160D01*
X180486318Y-113151318D01*
X180642160Y-112968849D01*
X180767540Y-112764249D01*
X180859369Y-112542553D01*
X180878957Y-112460963D01*
X180914232Y-112314035D01*
X180914233Y-112314029D01*
X180915387Y-112309222D01*
X180934214Y-112070000D01*
X180915387Y-111830778D01*
X180914233Y-111825971D01*
X180914232Y-111825965D01*
X180860524Y-111602259D01*
X180859369Y-111597447D01*
X180772911Y-111388717D01*
X180769434Y-111380323D01*
X180769433Y-111380321D01*
X180767540Y-111375751D01*
X180642160Y-111171151D01*
X180486318Y-110988682D01*
X180303849Y-110832840D01*
X180099249Y-110707460D01*
X180094679Y-110705567D01*
X180094677Y-110705566D01*
X179882126Y-110617525D01*
X179882124Y-110617524D01*
X179877553Y-110615631D01*
X179795963Y-110596043D01*
X179649035Y-110560768D01*
X179649029Y-110560767D01*
X179644222Y-110559613D01*
X179405000Y-110540786D01*
X179165778Y-110559613D01*
X179160971Y-110560767D01*
X179160965Y-110560768D01*
X179014037Y-110596043D01*
X178932447Y-110615631D01*
X178927876Y-110617524D01*
X178927874Y-110617525D01*
X178715323Y-110705566D01*
X178715321Y-110705567D01*
X178710751Y-110707460D01*
X178506151Y-110832840D01*
X178323682Y-110988682D01*
X178167840Y-111171151D01*
X178042460Y-111375751D01*
X178040567Y-111380321D01*
X178040564Y-111380327D01*
X178037089Y-111388717D01*
X177992541Y-111443999D01*
X177920680Y-111466500D01*
X145329320Y-111466500D01*
X145261199Y-111446498D01*
X145212911Y-111388717D01*
X145209436Y-111380327D01*
X145209433Y-111380321D01*
X145207540Y-111375751D01*
X145082160Y-111171151D01*
X144926318Y-110988682D01*
X144743849Y-110832840D01*
X144539249Y-110707460D01*
X144534679Y-110705567D01*
X144534677Y-110705566D01*
X144322126Y-110617525D01*
X144322124Y-110617524D01*
X144317553Y-110615631D01*
X144235963Y-110596043D01*
X144089035Y-110560768D01*
X144089029Y-110560767D01*
X144084222Y-110559613D01*
X143845000Y-110540786D01*
X143605778Y-110559613D01*
X143600971Y-110560767D01*
X143600965Y-110560768D01*
X143454037Y-110596043D01*
X143372447Y-110615631D01*
X143367876Y-110617524D01*
X143367874Y-110617525D01*
X143155323Y-110705566D01*
X143155321Y-110705567D01*
X143150751Y-110707460D01*
X142946151Y-110832840D01*
X142763682Y-110988682D01*
X142607840Y-111171151D01*
X142482460Y-111375751D01*
X142480567Y-111380321D01*
X142480566Y-111380323D01*
X142477089Y-111388717D01*
X142390631Y-111597447D01*
X142389476Y-111602259D01*
X142335768Y-111825965D01*
X142335767Y-111825971D01*
X142334613Y-111830778D01*
X142315786Y-112070000D01*
X133933500Y-112070000D01*
X133933500Y-109530000D01*
X139775786Y-109530000D01*
X139794613Y-109769222D01*
X139795767Y-109774029D01*
X139795768Y-109774035D01*
X139831043Y-109920963D01*
X139850631Y-110002553D01*
X139942460Y-110224249D01*
X140067840Y-110428849D01*
X140223682Y-110611318D01*
X140406151Y-110767160D01*
X140610751Y-110892540D01*
X140615321Y-110894433D01*
X140615323Y-110894434D01*
X140827874Y-110982475D01*
X140832447Y-110984369D01*
X140866082Y-110992444D01*
X141060965Y-111039232D01*
X141060971Y-111039233D01*
X141065778Y-111040387D01*
X141305000Y-111059214D01*
X141544222Y-111040387D01*
X141549029Y-111039233D01*
X141549035Y-111039232D01*
X141743918Y-110992444D01*
X141777553Y-110984369D01*
X141782126Y-110982475D01*
X141994677Y-110894434D01*
X141994679Y-110894433D01*
X141999249Y-110892540D01*
X142203849Y-110767160D01*
X142386318Y-110611318D01*
X142542160Y-110428849D01*
X142667540Y-110224249D01*
X142759369Y-110002553D01*
X142778957Y-109920963D01*
X142814232Y-109774035D01*
X142814233Y-109774029D01*
X142815387Y-109769222D01*
X142834214Y-109530000D01*
X175335786Y-109530000D01*
X175354613Y-109769222D01*
X175355767Y-109774029D01*
X175355768Y-109774035D01*
X175391043Y-109920963D01*
X175410631Y-110002553D01*
X175502460Y-110224249D01*
X175627840Y-110428849D01*
X175783682Y-110611318D01*
X175966151Y-110767160D01*
X176170751Y-110892540D01*
X176175321Y-110894433D01*
X176175323Y-110894434D01*
X176387874Y-110982475D01*
X176392447Y-110984369D01*
X176426082Y-110992444D01*
X176620965Y-111039232D01*
X176620971Y-111039233D01*
X176625778Y-111040387D01*
X176865000Y-111059214D01*
X177104222Y-111040387D01*
X177109029Y-111039233D01*
X177109035Y-111039232D01*
X177303918Y-110992444D01*
X177337553Y-110984369D01*
X177342126Y-110982475D01*
X177554677Y-110894434D01*
X177554679Y-110894433D01*
X177559249Y-110892540D01*
X177763849Y-110767160D01*
X177946318Y-110611318D01*
X178102160Y-110428849D01*
X178227540Y-110224249D01*
X178319369Y-110002553D01*
X178338957Y-109920963D01*
X178374232Y-109774035D01*
X178374233Y-109774029D01*
X178375387Y-109769222D01*
X178394214Y-109530000D01*
X178375387Y-109290778D01*
X178374233Y-109285971D01*
X178374232Y-109285965D01*
X178320524Y-109062259D01*
X178319369Y-109057447D01*
X178227540Y-108835751D01*
X178102160Y-108631151D01*
X177946318Y-108448682D01*
X177763849Y-108292840D01*
X177559249Y-108167460D01*
X177554679Y-108165567D01*
X177554677Y-108165566D01*
X177342126Y-108077525D01*
X177342124Y-108077524D01*
X177337553Y-108075631D01*
X177255963Y-108056043D01*
X177109035Y-108020768D01*
X177109029Y-108020767D01*
X177104222Y-108019613D01*
X176865000Y-108000786D01*
X176625778Y-108019613D01*
X176620971Y-108020767D01*
X176620965Y-108020768D01*
X176474037Y-108056043D01*
X176392447Y-108075631D01*
X176387876Y-108077524D01*
X176387874Y-108077525D01*
X176175323Y-108165566D01*
X176175321Y-108165567D01*
X176170751Y-108167460D01*
X175966151Y-108292840D01*
X175783682Y-108448682D01*
X175627840Y-108631151D01*
X175502460Y-108835751D01*
X175410631Y-109057447D01*
X175409476Y-109062259D01*
X175355768Y-109285965D01*
X175355767Y-109285971D01*
X175354613Y-109290778D01*
X175335786Y-109530000D01*
X142834214Y-109530000D01*
X142815387Y-109290778D01*
X142814233Y-109285971D01*
X142814232Y-109285965D01*
X142760524Y-109062259D01*
X142759369Y-109057447D01*
X142667540Y-108835751D01*
X142542160Y-108631151D01*
X142386318Y-108448682D01*
X142203849Y-108292840D01*
X141999249Y-108167460D01*
X141994679Y-108165567D01*
X141994677Y-108165566D01*
X141782126Y-108077525D01*
X141782124Y-108077524D01*
X141777553Y-108075631D01*
X141695963Y-108056043D01*
X141549035Y-108020768D01*
X141549029Y-108020767D01*
X141544222Y-108019613D01*
X141305000Y-108000786D01*
X141065778Y-108019613D01*
X141060971Y-108020767D01*
X141060965Y-108020768D01*
X140914037Y-108056043D01*
X140832447Y-108075631D01*
X140827876Y-108077524D01*
X140827874Y-108077525D01*
X140615323Y-108165566D01*
X140615321Y-108165567D01*
X140610751Y-108167460D01*
X140406151Y-108292840D01*
X140223682Y-108448682D01*
X140067840Y-108631151D01*
X139942460Y-108835751D01*
X139850631Y-109057447D01*
X139849476Y-109062259D01*
X139795768Y-109285965D01*
X139795767Y-109285971D01*
X139794613Y-109290778D01*
X139775786Y-109530000D01*
X133933500Y-109530000D01*
X133933500Y-101800000D01*
X139991502Y-101800000D01*
X140011457Y-102028087D01*
X140070716Y-102249243D01*
X140073039Y-102254224D01*
X140073039Y-102254225D01*
X140165151Y-102451762D01*
X140165154Y-102451767D01*
X140167477Y-102456749D01*
X140298802Y-102644300D01*
X140460700Y-102806198D01*
X140465208Y-102809355D01*
X140465211Y-102809357D01*
X140543389Y-102864098D01*
X140648251Y-102937523D01*
X140653233Y-102939846D01*
X140653238Y-102939849D01*
X140850775Y-103031961D01*
X140855757Y-103034284D01*
X140861065Y-103035706D01*
X140861067Y-103035707D01*
X141071598Y-103092119D01*
X141071600Y-103092119D01*
X141076913Y-103093543D01*
X141305000Y-103113498D01*
X141533087Y-103093543D01*
X141538400Y-103092119D01*
X141538402Y-103092119D01*
X141748933Y-103035707D01*
X141748935Y-103035706D01*
X141754243Y-103034284D01*
X141759225Y-103031961D01*
X141956762Y-102939849D01*
X141956767Y-102939846D01*
X141961749Y-102937523D01*
X142066611Y-102864098D01*
X142144789Y-102809357D01*
X142144792Y-102809355D01*
X142149300Y-102806198D01*
X142311198Y-102644300D01*
X142442523Y-102456749D01*
X142444846Y-102451767D01*
X142444849Y-102451762D01*
X142536961Y-102254225D01*
X142536961Y-102254224D01*
X142539284Y-102249243D01*
X142598543Y-102028087D01*
X142618498Y-101800000D01*
X150151502Y-101800000D01*
X150171457Y-102028087D01*
X150230716Y-102249243D01*
X150233039Y-102254224D01*
X150233039Y-102254225D01*
X150325151Y-102451762D01*
X150325154Y-102451767D01*
X150327477Y-102456749D01*
X150458802Y-102644300D01*
X150620700Y-102806198D01*
X150625208Y-102809355D01*
X150625211Y-102809357D01*
X150703389Y-102864098D01*
X150808251Y-102937523D01*
X150813233Y-102939846D01*
X150813238Y-102939849D01*
X151010775Y-103031961D01*
X151015757Y-103034284D01*
X151021065Y-103035706D01*
X151021067Y-103035707D01*
X151231598Y-103092119D01*
X151231600Y-103092119D01*
X151236913Y-103093543D01*
X151465000Y-103113498D01*
X151693087Y-103093543D01*
X151698400Y-103092119D01*
X151698402Y-103092119D01*
X151908933Y-103035707D01*
X151908935Y-103035706D01*
X151914243Y-103034284D01*
X151919225Y-103031961D01*
X152116762Y-102939849D01*
X152116767Y-102939846D01*
X152121749Y-102937523D01*
X152226611Y-102864098D01*
X152304789Y-102809357D01*
X152304792Y-102809355D01*
X152309300Y-102806198D01*
X152471198Y-102644300D01*
X152602523Y-102456749D01*
X152604846Y-102451767D01*
X152604849Y-102451762D01*
X152696961Y-102254225D01*
X152696961Y-102254224D01*
X152699284Y-102249243D01*
X152758543Y-102028087D01*
X152778498Y-101800000D01*
X152758543Y-101571913D01*
X152699284Y-101350757D01*
X152696961Y-101345775D01*
X152604849Y-101148238D01*
X152604846Y-101148233D01*
X152602523Y-101143251D01*
X152471198Y-100955700D01*
X152309300Y-100793802D01*
X152304792Y-100790645D01*
X152304789Y-100790643D01*
X152226611Y-100735902D01*
X152121749Y-100662477D01*
X152116767Y-100660154D01*
X152116762Y-100660151D01*
X151919225Y-100568039D01*
X151919224Y-100568039D01*
X151914243Y-100565716D01*
X151908935Y-100564294D01*
X151908933Y-100564293D01*
X151698402Y-100507881D01*
X151698400Y-100507881D01*
X151693087Y-100506457D01*
X151465000Y-100486502D01*
X151236913Y-100506457D01*
X151231600Y-100507881D01*
X151231598Y-100507881D01*
X151021067Y-100564293D01*
X151021065Y-100564294D01*
X151015757Y-100565716D01*
X151010776Y-100568039D01*
X151010775Y-100568039D01*
X150813238Y-100660151D01*
X150813233Y-100660154D01*
X150808251Y-100662477D01*
X150703389Y-100735902D01*
X150625211Y-100790643D01*
X150625208Y-100790645D01*
X150620700Y-100793802D01*
X150458802Y-100955700D01*
X150327477Y-101143251D01*
X150325154Y-101148233D01*
X150325151Y-101148238D01*
X150233039Y-101345775D01*
X150230716Y-101350757D01*
X150171457Y-101571913D01*
X150151502Y-101800000D01*
X142618498Y-101800000D01*
X142598543Y-101571913D01*
X142539284Y-101350757D01*
X142536961Y-101345775D01*
X142444849Y-101148238D01*
X142444846Y-101148233D01*
X142442523Y-101143251D01*
X142311198Y-100955700D01*
X142149300Y-100793802D01*
X142144792Y-100790645D01*
X142144789Y-100790643D01*
X142066611Y-100735902D01*
X141961749Y-100662477D01*
X141956767Y-100660154D01*
X141956762Y-100660151D01*
X141759225Y-100568039D01*
X141759224Y-100568039D01*
X141754243Y-100565716D01*
X141748935Y-100564294D01*
X141748933Y-100564293D01*
X141538402Y-100507881D01*
X141538400Y-100507881D01*
X141533087Y-100506457D01*
X141305000Y-100486502D01*
X141076913Y-100506457D01*
X141071600Y-100507881D01*
X141071598Y-100507881D01*
X140861067Y-100564293D01*
X140861065Y-100564294D01*
X140855757Y-100565716D01*
X140850776Y-100568039D01*
X140850775Y-100568039D01*
X140653238Y-100660151D01*
X140653233Y-100660154D01*
X140648251Y-100662477D01*
X140543389Y-100735902D01*
X140465211Y-100790643D01*
X140465208Y-100790645D01*
X140460700Y-100793802D01*
X140298802Y-100955700D01*
X140167477Y-101143251D01*
X140165154Y-101148233D01*
X140165151Y-101148238D01*
X140073039Y-101345775D01*
X140070716Y-101350757D01*
X140011457Y-101571913D01*
X139991502Y-101800000D01*
X133933500Y-101800000D01*
X133933500Y-96187500D01*
X150636496Y-96187500D01*
X150656458Y-96377428D01*
X150715473Y-96559056D01*
X150810960Y-96724444D01*
X150815378Y-96729351D01*
X150815379Y-96729352D01*
X150897452Y-96820503D01*
X150938747Y-96866366D01*
X151093248Y-96978618D01*
X151099276Y-96981302D01*
X151099278Y-96981303D01*
X151261681Y-97053609D01*
X151267712Y-97056294D01*
X151361112Y-97076147D01*
X151448056Y-97094628D01*
X151448061Y-97094628D01*
X151454513Y-97096000D01*
X151645487Y-97096000D01*
X151651939Y-97094628D01*
X151651944Y-97094628D01*
X151738888Y-97076147D01*
X151832288Y-97056294D01*
X151838319Y-97053609D01*
X152000722Y-96981303D01*
X152000724Y-96981302D01*
X152006752Y-96978618D01*
X152161253Y-96866366D01*
X152206364Y-96816265D01*
X152266810Y-96779025D01*
X152337793Y-96780377D01*
X152393636Y-96816265D01*
X152438747Y-96866366D01*
X152593248Y-96978618D01*
X152599276Y-96981302D01*
X152599278Y-96981303D01*
X152761681Y-97053609D01*
X152767712Y-97056294D01*
X152861112Y-97076147D01*
X152948056Y-97094628D01*
X152948061Y-97094628D01*
X152954513Y-97096000D01*
X153145487Y-97096000D01*
X153151939Y-97094628D01*
X153151944Y-97094628D01*
X153238888Y-97076147D01*
X153332288Y-97056294D01*
X153338319Y-97053609D01*
X153500722Y-96981303D01*
X153500724Y-96981302D01*
X153506752Y-96978618D01*
X153661253Y-96866366D01*
X153665668Y-96861463D01*
X153670580Y-96857040D01*
X153671705Y-96858289D01*
X153725014Y-96825449D01*
X153758200Y-96821000D01*
X160808733Y-96821000D01*
X160819916Y-96821527D01*
X160827409Y-96823202D01*
X160835335Y-96822953D01*
X160835336Y-96822953D01*
X160895486Y-96821062D01*
X160899445Y-96821000D01*
X160927356Y-96821000D01*
X160931291Y-96820503D01*
X160931356Y-96820495D01*
X160943193Y-96819562D01*
X160975451Y-96818548D01*
X160979470Y-96818422D01*
X160987389Y-96818173D01*
X161006843Y-96812521D01*
X161026200Y-96808513D01*
X161038430Y-96806968D01*
X161038431Y-96806968D01*
X161046297Y-96805974D01*
X161053668Y-96803055D01*
X161053670Y-96803055D01*
X161087412Y-96789696D01*
X161098642Y-96785851D01*
X161133483Y-96775729D01*
X161133484Y-96775729D01*
X161141093Y-96773518D01*
X161147912Y-96769485D01*
X161147917Y-96769483D01*
X161158528Y-96763207D01*
X161176276Y-96754512D01*
X161195117Y-96747052D01*
X161230887Y-96721064D01*
X161240807Y-96714548D01*
X161272035Y-96696080D01*
X161272038Y-96696078D01*
X161278862Y-96692042D01*
X161293183Y-96677721D01*
X161308217Y-96664880D01*
X161318194Y-96657631D01*
X161324607Y-96652972D01*
X161352798Y-96618895D01*
X161360788Y-96610116D01*
X176752247Y-81218657D01*
X176760537Y-81211113D01*
X176767018Y-81207000D01*
X176813659Y-81157332D01*
X176816413Y-81154491D01*
X176836134Y-81134770D01*
X176838612Y-81131575D01*
X176846318Y-81122553D01*
X176871158Y-81096101D01*
X176876586Y-81090321D01*
X176886346Y-81072568D01*
X176897199Y-81056045D01*
X176904753Y-81046306D01*
X176909613Y-81040041D01*
X176927176Y-80999457D01*
X176932383Y-80988827D01*
X176953695Y-80950060D01*
X176955666Y-80942383D01*
X176955668Y-80942378D01*
X176958732Y-80930442D01*
X176965138Y-80911730D01*
X176970034Y-80900417D01*
X176973181Y-80893145D01*
X176980097Y-80849481D01*
X176982504Y-80837860D01*
X176991528Y-80802711D01*
X176991528Y-80802710D01*
X176993500Y-80795030D01*
X176993500Y-80774769D01*
X176995051Y-80755058D01*
X176996979Y-80742885D01*
X176998219Y-80735057D01*
X176994059Y-80691046D01*
X176993500Y-80679189D01*
X176993500Y-76438767D01*
X176994027Y-76427584D01*
X176995702Y-76420091D01*
X176995328Y-76408173D01*
X176993562Y-76352014D01*
X176993500Y-76348055D01*
X176993500Y-76320144D01*
X176992995Y-76316144D01*
X176992062Y-76304301D01*
X176990922Y-76268029D01*
X176990673Y-76260110D01*
X176985022Y-76240658D01*
X176981014Y-76221306D01*
X176979467Y-76209063D01*
X176978474Y-76201203D01*
X176968260Y-76175404D01*
X176962200Y-76160097D01*
X176958355Y-76148870D01*
X176954890Y-76136944D01*
X176946018Y-76106407D01*
X176941984Y-76099585D01*
X176941981Y-76099579D01*
X176935706Y-76088968D01*
X176927010Y-76071218D01*
X176922472Y-76059756D01*
X176922469Y-76059751D01*
X176919552Y-76052383D01*
X176893573Y-76016625D01*
X176887057Y-76006707D01*
X176868575Y-75975457D01*
X176864542Y-75968637D01*
X176850218Y-75954313D01*
X176837376Y-75939278D01*
X176825472Y-75922893D01*
X176791406Y-75894711D01*
X176782627Y-75886722D01*
X176547122Y-75651217D01*
X176513096Y-75588905D01*
X176510907Y-75575292D01*
X176494232Y-75416635D01*
X176494232Y-75416633D01*
X176493542Y-75410072D01*
X176434527Y-75228444D01*
X176339040Y-75063056D01*
X176211253Y-74921134D01*
X176056752Y-74808882D01*
X176050724Y-74806198D01*
X176050722Y-74806197D01*
X175888319Y-74733891D01*
X175888318Y-74733891D01*
X175882288Y-74731206D01*
X175788887Y-74711353D01*
X175701944Y-74692872D01*
X175701939Y-74692872D01*
X175695487Y-74691500D01*
X175504513Y-74691500D01*
X175498061Y-74692872D01*
X175498056Y-74692872D01*
X175411113Y-74711353D01*
X175317712Y-74731206D01*
X175311682Y-74733891D01*
X175311681Y-74733891D01*
X175149278Y-74806197D01*
X175149276Y-74806198D01*
X175143248Y-74808882D01*
X174988747Y-74921134D01*
X174860960Y-75063056D01*
X174765473Y-75228444D01*
X174706458Y-75410072D01*
X174705768Y-75416633D01*
X174705768Y-75416635D01*
X174694286Y-75525882D01*
X174686496Y-75600000D01*
X174687186Y-75606565D01*
X174702292Y-75750287D01*
X174706458Y-75789928D01*
X174765473Y-75971556D01*
X174768776Y-75977278D01*
X174768777Y-75977279D01*
X174789112Y-76012500D01*
X174805850Y-76081495D01*
X174782630Y-76148587D01*
X174726822Y-76192474D01*
X174679993Y-76201500D01*
X174043767Y-76201500D01*
X174032584Y-76200973D01*
X174025091Y-76199298D01*
X174017165Y-76199547D01*
X174017164Y-76199547D01*
X173957014Y-76201438D01*
X173953055Y-76201500D01*
X173925144Y-76201500D01*
X173921210Y-76201997D01*
X173921209Y-76201997D01*
X173921144Y-76202005D01*
X173909307Y-76202938D01*
X173877490Y-76203938D01*
X173873029Y-76204078D01*
X173865110Y-76204327D01*
X173848808Y-76209063D01*
X173845658Y-76209978D01*
X173826306Y-76213986D01*
X173819235Y-76214880D01*
X173806203Y-76216526D01*
X173798834Y-76219443D01*
X173798832Y-76219444D01*
X173765097Y-76232800D01*
X173753869Y-76236645D01*
X173711407Y-76248982D01*
X173704584Y-76253017D01*
X173704582Y-76253018D01*
X173693972Y-76259293D01*
X173676224Y-76267988D01*
X173657383Y-76275448D01*
X173650967Y-76280110D01*
X173650966Y-76280110D01*
X173621613Y-76301436D01*
X173611693Y-76307952D01*
X173580465Y-76326420D01*
X173580462Y-76326422D01*
X173573638Y-76330458D01*
X173559317Y-76344779D01*
X173544284Y-76357619D01*
X173527893Y-76369528D01*
X173522842Y-76375634D01*
X173499702Y-76403605D01*
X173491712Y-76412384D01*
X171349500Y-78554595D01*
X171287188Y-78588621D01*
X171260405Y-78591500D01*
X171204513Y-78591500D01*
X171198061Y-78592872D01*
X171198056Y-78592872D01*
X171111113Y-78611353D01*
X171017712Y-78631206D01*
X171011682Y-78633891D01*
X171011681Y-78633891D01*
X170849278Y-78706197D01*
X170849276Y-78706198D01*
X170843248Y-78708882D01*
X170688747Y-78821134D01*
X170560960Y-78963056D01*
X170465473Y-79128444D01*
X170406458Y-79310072D01*
X170386496Y-79500000D01*
X170387186Y-79506565D01*
X170401495Y-79642703D01*
X170406458Y-79689928D01*
X170465473Y-79871556D01*
X170560960Y-80036944D01*
X170634137Y-80118215D01*
X170664853Y-80182221D01*
X170666500Y-80202524D01*
X170666500Y-84016076D01*
X170646498Y-84084197D01*
X170629595Y-84105171D01*
X162246279Y-92488486D01*
X162183967Y-92522512D01*
X162113152Y-92517447D01*
X162056316Y-92474900D01*
X162039753Y-92445062D01*
X161964749Y-92252189D01*
X161938535Y-92206323D01*
X161835897Y-92026745D01*
X161833578Y-92022687D01*
X161669925Y-91815094D01*
X161477385Y-91633970D01*
X161470972Y-91629521D01*
X161264026Y-91485958D01*
X161264021Y-91485955D01*
X161260188Y-91483296D01*
X161255997Y-91481229D01*
X161027294Y-91368445D01*
X161027291Y-91368444D01*
X161023106Y-91366380D01*
X160966150Y-91348148D01*
X160775792Y-91287214D01*
X160775794Y-91287214D01*
X160771347Y-91285791D01*
X160628825Y-91262580D01*
X160515053Y-91244051D01*
X160515052Y-91244051D01*
X160510441Y-91243300D01*
X160378281Y-91241570D01*
X160250798Y-91239901D01*
X160250795Y-91239901D01*
X160246121Y-91239840D01*
X159984192Y-91275486D01*
X159979702Y-91276795D01*
X159979696Y-91276796D01*
X159871732Y-91308265D01*
X159730410Y-91349457D01*
X159726163Y-91351415D01*
X159726160Y-91351416D01*
X159635950Y-91393004D01*
X159490348Y-91460127D01*
X159486439Y-91462690D01*
X159273195Y-91602499D01*
X159273190Y-91602503D01*
X159269282Y-91605065D01*
X159239884Y-91631304D01*
X159107675Y-91749305D01*
X159072067Y-91781086D01*
X158903036Y-91984324D01*
X158765901Y-92210314D01*
X158764095Y-92214622D01*
X158764094Y-92214623D01*
X158667465Y-92445058D01*
X158663677Y-92454091D01*
X158662526Y-92458623D01*
X158662525Y-92458626D01*
X158646300Y-92522512D01*
X158598608Y-92710301D01*
X158572124Y-92973314D01*
X158584807Y-93237352D01*
X158636378Y-93496616D01*
X158637957Y-93501014D01*
X158637959Y-93501021D01*
X158724121Y-93741001D01*
X158725704Y-93745410D01*
X158850822Y-93978267D01*
X159008985Y-94190073D01*
X159012292Y-94193351D01*
X159012297Y-94193357D01*
X159193402Y-94372887D01*
X159196718Y-94376174D01*
X159409896Y-94532483D01*
X159414031Y-94534659D01*
X159414035Y-94534661D01*
X159522053Y-94591492D01*
X159573025Y-94640911D01*
X159589188Y-94710044D01*
X159565409Y-94776940D01*
X159509238Y-94820360D01*
X159463385Y-94829000D01*
X152353767Y-94829000D01*
X152342584Y-94828473D01*
X152335091Y-94826798D01*
X152327165Y-94827047D01*
X152327164Y-94827047D01*
X152267001Y-94828938D01*
X152263043Y-94829000D01*
X152235144Y-94829000D01*
X152231154Y-94829504D01*
X152219320Y-94830436D01*
X152175111Y-94831826D01*
X152167497Y-94834038D01*
X152167492Y-94834039D01*
X152155659Y-94837477D01*
X152136296Y-94841488D01*
X152116203Y-94844026D01*
X152108836Y-94846943D01*
X152108831Y-94846944D01*
X152075092Y-94860302D01*
X152063865Y-94864146D01*
X152021407Y-94876482D01*
X152014581Y-94880519D01*
X152003972Y-94886793D01*
X151986224Y-94895488D01*
X151967383Y-94902948D01*
X151960967Y-94907610D01*
X151960966Y-94907610D01*
X151931613Y-94928936D01*
X151921693Y-94935452D01*
X151890465Y-94953920D01*
X151890462Y-94953922D01*
X151883638Y-94957958D01*
X151869317Y-94972279D01*
X151854284Y-94985119D01*
X151837893Y-94997028D01*
X151832840Y-95003136D01*
X151809708Y-95031098D01*
X151801718Y-95039878D01*
X151599501Y-95242095D01*
X151537189Y-95276121D01*
X151510406Y-95279000D01*
X151454513Y-95279000D01*
X151448061Y-95280372D01*
X151448056Y-95280372D01*
X151361113Y-95298853D01*
X151267712Y-95318706D01*
X151261682Y-95321391D01*
X151261681Y-95321391D01*
X151099278Y-95393697D01*
X151099276Y-95393698D01*
X151093248Y-95396382D01*
X150938747Y-95508634D01*
X150810960Y-95650556D01*
X150715473Y-95815944D01*
X150656458Y-95997572D01*
X150636496Y-96187500D01*
X133933500Y-96187500D01*
X133933500Y-91200400D01*
X141281500Y-91200400D01*
X141281837Y-91203646D01*
X141281837Y-91203650D01*
X141290508Y-91287214D01*
X141292474Y-91306165D01*
X141294655Y-91312701D01*
X141294655Y-91312703D01*
X141312563Y-91366380D01*
X141348450Y-91473945D01*
X141441522Y-91624348D01*
X141566697Y-91749305D01*
X141572927Y-91753145D01*
X141572928Y-91753146D01*
X141710090Y-91837694D01*
X141717262Y-91842115D01*
X141797005Y-91868564D01*
X141878611Y-91895632D01*
X141878613Y-91895632D01*
X141885139Y-91897797D01*
X141891975Y-91898497D01*
X141891978Y-91898498D01*
X141935031Y-91902909D01*
X141989600Y-91908500D01*
X143610400Y-91908500D01*
X143613646Y-91908163D01*
X143613650Y-91908163D01*
X143709307Y-91898238D01*
X143709311Y-91898237D01*
X143716165Y-91897526D01*
X143722701Y-91895345D01*
X143722703Y-91895345D01*
X143854805Y-91851272D01*
X143883945Y-91841550D01*
X144034348Y-91748478D01*
X144159305Y-91623303D01*
X144252115Y-91472738D01*
X144287864Y-91364957D01*
X144305632Y-91311389D01*
X144305632Y-91311387D01*
X144307797Y-91304861D01*
X144310872Y-91274855D01*
X144312909Y-91254969D01*
X144318500Y-91200400D01*
X144318500Y-90099600D01*
X144307526Y-89993835D01*
X144251550Y-89826055D01*
X144158478Y-89675652D01*
X144033303Y-89550695D01*
X144016269Y-89540195D01*
X143888968Y-89461725D01*
X143888966Y-89461724D01*
X143882738Y-89457885D01*
X143722254Y-89404655D01*
X143721389Y-89404368D01*
X143721387Y-89404368D01*
X143714861Y-89402203D01*
X143708025Y-89401503D01*
X143708022Y-89401502D01*
X143664969Y-89397091D01*
X143610400Y-89391500D01*
X141989600Y-89391500D01*
X141986354Y-89391837D01*
X141986350Y-89391837D01*
X141890693Y-89401762D01*
X141890689Y-89401763D01*
X141883835Y-89402474D01*
X141877299Y-89404655D01*
X141877297Y-89404655D01*
X141802780Y-89429516D01*
X141716055Y-89458450D01*
X141565652Y-89551522D01*
X141440695Y-89676697D01*
X141347885Y-89827262D01*
X141292203Y-89995139D01*
X141281500Y-90099600D01*
X141281500Y-91200400D01*
X133933500Y-91200400D01*
X133933500Y-87579733D01*
X136467822Y-87579733D01*
X136477625Y-87860458D01*
X136478387Y-87864781D01*
X136478388Y-87864788D01*
X136502164Y-87999624D01*
X136526402Y-88137087D01*
X136613203Y-88404235D01*
X136736340Y-88656702D01*
X136738795Y-88660341D01*
X136738798Y-88660347D01*
X136811890Y-88768710D01*
X136893415Y-88889576D01*
X137081371Y-89098322D01*
X137296550Y-89278879D01*
X137534764Y-89427731D01*
X137791375Y-89541982D01*
X138061390Y-89619407D01*
X138065740Y-89620018D01*
X138065743Y-89620019D01*
X138168690Y-89634487D01*
X138339552Y-89658500D01*
X138550146Y-89658500D01*
X138552332Y-89658347D01*
X138552336Y-89658347D01*
X138755827Y-89644118D01*
X138755832Y-89644117D01*
X138760212Y-89643811D01*
X139034970Y-89585409D01*
X139039099Y-89583906D01*
X139039103Y-89583905D01*
X139294781Y-89490846D01*
X139294785Y-89490844D01*
X139298926Y-89489337D01*
X139546942Y-89357464D01*
X139651896Y-89281211D01*
X139770629Y-89194947D01*
X139770632Y-89194944D01*
X139774192Y-89192358D01*
X139976252Y-88997231D01*
X140149188Y-88775882D01*
X140151384Y-88772078D01*
X140151389Y-88772071D01*
X140287435Y-88536431D01*
X140289636Y-88532619D01*
X140394862Y-88272176D01*
X140428544Y-88137087D01*
X140461753Y-88003893D01*
X140461754Y-88003888D01*
X140462817Y-87999624D01*
X140492178Y-87720267D01*
X140482375Y-87439542D01*
X140458608Y-87304749D01*
X140434360Y-87167236D01*
X140433598Y-87162913D01*
X140346797Y-86895765D01*
X140223660Y-86643298D01*
X140221205Y-86639659D01*
X140221202Y-86639653D01*
X140140935Y-86520653D01*
X140066585Y-86410424D01*
X139878629Y-86201678D01*
X139663450Y-86021121D01*
X139425236Y-85872269D01*
X139168625Y-85758018D01*
X138898610Y-85680593D01*
X138894260Y-85679982D01*
X138894257Y-85679981D01*
X138791310Y-85665513D01*
X138620448Y-85641500D01*
X138409854Y-85641500D01*
X138407668Y-85641653D01*
X138407664Y-85641653D01*
X138204173Y-85655882D01*
X138204168Y-85655883D01*
X138199788Y-85656189D01*
X137925030Y-85714591D01*
X137920901Y-85716094D01*
X137920897Y-85716095D01*
X137665219Y-85809154D01*
X137665215Y-85809156D01*
X137661074Y-85810663D01*
X137413058Y-85942536D01*
X137409499Y-85945122D01*
X137409497Y-85945123D01*
X137304895Y-86021121D01*
X137185808Y-86107642D01*
X136983748Y-86302769D01*
X136810812Y-86524118D01*
X136808616Y-86527922D01*
X136808611Y-86527929D01*
X136694794Y-86725068D01*
X136670364Y-86767381D01*
X136565138Y-87027824D01*
X136564073Y-87032097D01*
X136564072Y-87032099D01*
X136530379Y-87167236D01*
X136497183Y-87300376D01*
X136467822Y-87579733D01*
X133933500Y-87579733D01*
X133933500Y-84689690D01*
X141277037Y-84689690D01*
X141304025Y-84912715D01*
X141370082Y-85127435D01*
X141372652Y-85132415D01*
X141372654Y-85132419D01*
X141437852Y-85258738D01*
X141473118Y-85327064D01*
X141609877Y-85505292D01*
X141776036Y-85656485D01*
X141780783Y-85659463D01*
X141780786Y-85659465D01*
X141961595Y-85772885D01*
X141966344Y-85775864D01*
X142174783Y-85859656D01*
X142394767Y-85905213D01*
X142399378Y-85905479D01*
X142399379Y-85905479D01*
X142449952Y-85908395D01*
X142449956Y-85908395D01*
X142451775Y-85908500D01*
X143116999Y-85908500D01*
X143119786Y-85908251D01*
X143119792Y-85908251D01*
X143189929Y-85901991D01*
X143283762Y-85893617D01*
X143289176Y-85892136D01*
X143289181Y-85892135D01*
X143416912Y-85857191D01*
X143500451Y-85834337D01*
X143505509Y-85831925D01*
X143505513Y-85831923D01*
X143623042Y-85775864D01*
X143703218Y-85737622D01*
X143885654Y-85606529D01*
X144041992Y-85445201D01*
X144167290Y-85258738D01*
X144257588Y-85053033D01*
X144310032Y-84834589D01*
X144322963Y-84610310D01*
X144295975Y-84387285D01*
X144229918Y-84172565D01*
X144195134Y-84105171D01*
X144129454Y-83977919D01*
X144129454Y-83977918D01*
X144126882Y-83972936D01*
X143990123Y-83794708D01*
X143823964Y-83643515D01*
X143819217Y-83640537D01*
X143819214Y-83640535D01*
X143638405Y-83527115D01*
X143633656Y-83524136D01*
X143425217Y-83440344D01*
X143205233Y-83394787D01*
X143200622Y-83394521D01*
X143200621Y-83394521D01*
X143150048Y-83391605D01*
X143150044Y-83391605D01*
X143148225Y-83391500D01*
X142483001Y-83391500D01*
X142480214Y-83391749D01*
X142480208Y-83391749D01*
X142410071Y-83398009D01*
X142316238Y-83406383D01*
X142310824Y-83407864D01*
X142310819Y-83407865D01*
X142196262Y-83439205D01*
X142099549Y-83465663D01*
X142094491Y-83468075D01*
X142094487Y-83468077D01*
X141998166Y-83514020D01*
X141896782Y-83562378D01*
X141714346Y-83693471D01*
X141558008Y-83854799D01*
X141432710Y-84041262D01*
X141342412Y-84246967D01*
X141289968Y-84465411D01*
X141277037Y-84689690D01*
X133933500Y-84689690D01*
X133933500Y-79530400D01*
X154291500Y-79530400D01*
X154302474Y-79636165D01*
X154358450Y-79803945D01*
X154451522Y-79954348D01*
X154576697Y-80079305D01*
X154582927Y-80083145D01*
X154582928Y-80083146D01*
X154720090Y-80167694D01*
X154727262Y-80172115D01*
X154757731Y-80182221D01*
X154888611Y-80225632D01*
X154888613Y-80225632D01*
X154895139Y-80227797D01*
X154901975Y-80228497D01*
X154901978Y-80228498D01*
X154945031Y-80232909D01*
X154999600Y-80238500D01*
X156100400Y-80238500D01*
X156103646Y-80238163D01*
X156103650Y-80238163D01*
X156199307Y-80228238D01*
X156199311Y-80228237D01*
X156206165Y-80227526D01*
X156212701Y-80225345D01*
X156212703Y-80225345D01*
X156344805Y-80181272D01*
X156373945Y-80171550D01*
X156524348Y-80078478D01*
X156649305Y-79953303D01*
X156742115Y-79802738D01*
X156797797Y-79634861D01*
X156808500Y-79530400D01*
X156808500Y-77909600D01*
X156808163Y-77906350D01*
X156798238Y-77810693D01*
X156798237Y-77810689D01*
X156797526Y-77803835D01*
X156741550Y-77636055D01*
X156648478Y-77485652D01*
X156523303Y-77360695D01*
X156517072Y-77356854D01*
X156378968Y-77271725D01*
X156378966Y-77271724D01*
X156372738Y-77267885D01*
X156212254Y-77214655D01*
X156211389Y-77214368D01*
X156211387Y-77214368D01*
X156204861Y-77212203D01*
X156198025Y-77211503D01*
X156198022Y-77211502D01*
X156154969Y-77207091D01*
X156100400Y-77201500D01*
X154999600Y-77201500D01*
X154996354Y-77201837D01*
X154996350Y-77201837D01*
X154900693Y-77211762D01*
X154900689Y-77211763D01*
X154893835Y-77212474D01*
X154887299Y-77214655D01*
X154887297Y-77214655D01*
X154755195Y-77258728D01*
X154726055Y-77268450D01*
X154575652Y-77361522D01*
X154450695Y-77486697D01*
X154446855Y-77492927D01*
X154446854Y-77492928D01*
X154367147Y-77622237D01*
X154357885Y-77637262D01*
X154302203Y-77805139D01*
X154301503Y-77811975D01*
X154301502Y-77811978D01*
X154297091Y-77855031D01*
X154291500Y-77909600D01*
X154291500Y-79530400D01*
X133933500Y-79530400D01*
X133933500Y-74329733D01*
X155037822Y-74329733D01*
X155047625Y-74610458D01*
X155048387Y-74614781D01*
X155048388Y-74614788D01*
X155072164Y-74749624D01*
X155096402Y-74887087D01*
X155183203Y-75154235D01*
X155306340Y-75406702D01*
X155308795Y-75410341D01*
X155308798Y-75410347D01*
X155381890Y-75518710D01*
X155463415Y-75639576D01*
X155651371Y-75848322D01*
X155866550Y-76028879D01*
X156104764Y-76177731D01*
X156228451Y-76232800D01*
X156317688Y-76272531D01*
X156361375Y-76291982D01*
X156481475Y-76326420D01*
X156590284Y-76357620D01*
X156631390Y-76369407D01*
X156635740Y-76370018D01*
X156635743Y-76370019D01*
X156738690Y-76384487D01*
X156909552Y-76408500D01*
X157120146Y-76408500D01*
X157122332Y-76408347D01*
X157122336Y-76408347D01*
X157325827Y-76394118D01*
X157325832Y-76394117D01*
X157330212Y-76393811D01*
X157604970Y-76335409D01*
X157609099Y-76333906D01*
X157609103Y-76333905D01*
X157864781Y-76240846D01*
X157864785Y-76240844D01*
X157868926Y-76239337D01*
X158116942Y-76107464D01*
X158142400Y-76088968D01*
X158340629Y-75944947D01*
X158340632Y-75944944D01*
X158344192Y-75942358D01*
X158347382Y-75939278D01*
X158543087Y-75750287D01*
X158546252Y-75747231D01*
X158719188Y-75525882D01*
X158721384Y-75522078D01*
X158721389Y-75522071D01*
X158857435Y-75286431D01*
X158859636Y-75282619D01*
X158964862Y-75022176D01*
X158998544Y-74887087D01*
X159031753Y-74753893D01*
X159031754Y-74753888D01*
X159032817Y-74749624D01*
X159062178Y-74470267D01*
X159052375Y-74189542D01*
X159028608Y-74054749D01*
X159004360Y-73917236D01*
X159003598Y-73912913D01*
X158916797Y-73645765D01*
X158793660Y-73393298D01*
X158791205Y-73389659D01*
X158791202Y-73389653D01*
X158710935Y-73270653D01*
X158636585Y-73160424D01*
X158448629Y-72951678D01*
X158233450Y-72771121D01*
X157995236Y-72622269D01*
X157738625Y-72508018D01*
X157468610Y-72430593D01*
X157464260Y-72429982D01*
X157464257Y-72429981D01*
X157361310Y-72415513D01*
X157190448Y-72391500D01*
X156979854Y-72391500D01*
X156977668Y-72391653D01*
X156977664Y-72391653D01*
X156774173Y-72405882D01*
X156774168Y-72405883D01*
X156769788Y-72406189D01*
X156495030Y-72464591D01*
X156490901Y-72466094D01*
X156490897Y-72466095D01*
X156235219Y-72559154D01*
X156235215Y-72559156D01*
X156231074Y-72560663D01*
X155983058Y-72692536D01*
X155979499Y-72695122D01*
X155979497Y-72695123D01*
X155874895Y-72771121D01*
X155755808Y-72857642D01*
X155553748Y-73052769D01*
X155380812Y-73274118D01*
X155378616Y-73277922D01*
X155378611Y-73277929D01*
X155264794Y-73475067D01*
X155240364Y-73517381D01*
X155135138Y-73777824D01*
X155134073Y-73782097D01*
X155134072Y-73782099D01*
X155100379Y-73917236D01*
X155067183Y-74050376D01*
X155037822Y-74329733D01*
X133933500Y-74329733D01*
X133933500Y-70034500D01*
X133953502Y-69966379D01*
X134007158Y-69919886D01*
X134059500Y-69908500D01*
X186740500Y-69908500D01*
X186808621Y-69928502D01*
G37*
%TD.AperFunction*%
%TD*%
M02*
