%TF.GenerationSoftware,KiCad,Pcbnew,6.0.9-8da3e8f707~117~ubuntu20.04.1*%
%TF.CreationDate,2023-03-07T12:44:44-05:00*%
%TF.ProjectId,DCT_HV_Widget,4443545f-4856-45f5-9769-646765742e6b,rev?*%
%TF.SameCoordinates,Original*%
%TF.FileFunction,Copper,L2,Bot*%
%TF.FilePolarity,Positive*%
%FSLAX46Y46*%
G04 Gerber Fmt 4.6, Leading zero omitted, Abs format (unit mm)*
G04 Created by KiCad (PCBNEW 6.0.9-8da3e8f707~117~ubuntu20.04.1) date 2023-03-07 12:44:44*
%MOMM*%
%LPD*%
G01*
G04 APERTURE LIST*
G04 Aperture macros list*
%AMRoundRect*
0 Rectangle with rounded corners*
0 $1 Rounding radius*
0 $2 $3 $4 $5 $6 $7 $8 $9 X,Y pos of 4 corners*
0 Add a 4 corners polygon primitive as box body*
4,1,4,$2,$3,$4,$5,$6,$7,$8,$9,$2,$3,0*
0 Add four circle primitives for the rounded corners*
1,1,$1+$1,$2,$3*
1,1,$1+$1,$4,$5*
1,1,$1+$1,$6,$7*
1,1,$1+$1,$8,$9*
0 Add four rect primitives between the rounded corners*
20,1,$1+$1,$2,$3,$4,$5,0*
20,1,$1+$1,$4,$5,$6,$7,0*
20,1,$1+$1,$6,$7,$8,$9,0*
20,1,$1+$1,$8,$9,$2,$3,0*%
G04 Aperture macros list end*
%TA.AperFunction,ComponentPad*%
%ADD10C,6.400000*%
%TD*%
%TA.AperFunction,ComponentPad*%
%ADD11C,1.600000*%
%TD*%
%TA.AperFunction,ComponentPad*%
%ADD12O,1.600000X1.600000*%
%TD*%
%TA.AperFunction,ComponentPad*%
%ADD13RoundRect,0.250001X0.499999X0.759999X-0.499999X0.759999X-0.499999X-0.759999X0.499999X-0.759999X0*%
%TD*%
%TA.AperFunction,ComponentPad*%
%ADD14O,1.500000X2.020000*%
%TD*%
%TA.AperFunction,ComponentPad*%
%ADD15RoundRect,0.250001X0.759999X-0.499999X0.759999X0.499999X-0.759999X0.499999X-0.759999X-0.499999X0*%
%TD*%
%TA.AperFunction,ComponentPad*%
%ADD16O,2.020000X1.500000*%
%TD*%
%TA.AperFunction,ComponentPad*%
%ADD17RoundRect,0.250001X-0.499999X-0.759999X0.499999X-0.759999X0.499999X0.759999X-0.499999X0.759999X0*%
%TD*%
%TA.AperFunction,ComponentPad*%
%ADD18C,2.032000*%
%TD*%
%TA.AperFunction,ComponentPad*%
%ADD19C,2.540000*%
%TD*%
%TA.AperFunction,ViaPad*%
%ADD20C,0.800000*%
%TD*%
%TA.AperFunction,Conductor*%
%ADD21C,0.250000*%
%TD*%
G04 APERTURE END LIST*
D10*
%TO.P,H2,1,1*%
%TO.N,GND*%
X182200000Y-74500000D03*
%TD*%
%TO.P,H1,1,1*%
%TO.N,GND*%
X138525000Y-74600000D03*
%TD*%
%TO.P,H3,1,1*%
%TO.N,GND*%
X138525000Y-138375000D03*
%TD*%
%TO.P,H4,1,1*%
%TO.N,GND*%
X182300000Y-138300000D03*
%TD*%
D11*
%TO.P,R5,1*%
%TO.N,Net-(Q1-Pad1)*%
X151465000Y-101800000D03*
D12*
%TO.P,R5,2*%
%TO.N,Net-(R5-Pad2)*%
X141305000Y-101800000D03*
%TD*%
D13*
%TO.P,J3,1,Pin_1*%
%TO.N,/HV_Input*%
X161825000Y-134780000D03*
D14*
%TO.P,J3,2,Pin_2*%
X158825000Y-134780000D03*
%TD*%
D15*
%TO.P,J2,1,Pin_1*%
%TO.N,/VP6*%
X142800000Y-90650000D03*
D16*
%TO.P,J2,2,Pin_2*%
%TO.N,GND*%
X142800000Y-87650000D03*
%TO.P,J2,3,Pin_3*%
%TO.N,/VM6*%
X142800000Y-84650000D03*
%TD*%
D17*
%TO.P,J1,1,Pin_1*%
%TO.N,/V_Control*%
X155550000Y-78720000D03*
D14*
%TO.P,J1,2,Pin_2*%
%TO.N,GND*%
X158550000Y-78720000D03*
%TD*%
D18*
%TO.P,U2,1*%
%TO.N,Net-(R5-Pad2)*%
X141305000Y-109530000D03*
%TO.P,U2,2*%
%TO.N,Net-(U2-Pad2)*%
X143845000Y-112070000D03*
%TO.P,U2,3*%
%TO.N,/VM6*%
X176865000Y-109530000D03*
%TO.P,U2,4*%
%TO.N,Net-(U2-Pad2)*%
X179405000Y-112070000D03*
D19*
%TO.P,U2,5*%
%TO.N,Net-(D1-Pad1)*%
X160355000Y-93020000D03*
%TO.P,U2,6*%
%TO.N,/HV_Input*%
X160355000Y-128580000D03*
%TD*%
D20*
%TO.N,Net-(C1-Pad2)*%
X175635000Y-76835000D03*
X171250000Y-90450000D03*
X151550000Y-96187500D03*
%TO.N,GND*%
X174400000Y-89400000D03*
X146975000Y-96575000D03*
X146950000Y-78575000D03*
X152300000Y-84100000D03*
X178500000Y-87800000D03*
X171542000Y-76800000D03*
%TO.N,/VP6*%
X153050000Y-96187500D03*
X175600000Y-75600000D03*
%TD*%
D21*
%TO.N,/VP6*%
X160887500Y-96187500D02*
X174910000Y-82165000D01*
X174910000Y-82165000D02*
X174910000Y-76290000D01*
X174910000Y-76290000D02*
X175600000Y-75600000D01*
%TO.N,Net-(C1-Pad2)*%
X171250000Y-90450000D02*
X175635000Y-86065000D01*
X175635000Y-86065000D02*
X175635000Y-76835000D01*
X171250000Y-90450000D02*
X164775000Y-96925000D01*
X164775000Y-96925000D02*
X152287500Y-96925000D01*
X152287500Y-96925000D02*
X151550000Y-96187500D01*
%TO.N,/VP6*%
X153050000Y-96187500D02*
X160887500Y-96187500D01*
%TO.N,Net-(U2-Pad2)*%
X143845000Y-112100000D02*
X179405000Y-112100000D01*
%TD*%
%TA.AperFunction,Conductor*%
%TO.N,GND*%
G36*
X186808621Y-69928502D02*
G01*
X186855114Y-69982158D01*
X186866500Y-70034500D01*
X186866500Y-143365500D01*
X186846498Y-143433621D01*
X186792842Y-143480114D01*
X186740500Y-143491500D01*
X177000000Y-143491500D01*
X176931879Y-143471498D01*
X176885386Y-143417842D01*
X176874000Y-143365500D01*
X176874000Y-113964000D01*
X143842000Y-113964000D01*
X143842000Y-143365500D01*
X143821998Y-143433621D01*
X143768342Y-143480114D01*
X143716000Y-143491500D01*
X134059500Y-143491500D01*
X133991379Y-143471498D01*
X133944886Y-143417842D01*
X133933500Y-143365500D01*
X133933500Y-112070000D01*
X142315786Y-112070000D01*
X142334613Y-112309222D01*
X142335767Y-112314029D01*
X142335768Y-112314035D01*
X142371043Y-112460963D01*
X142390631Y-112542553D01*
X142482460Y-112764249D01*
X142607840Y-112968849D01*
X142763682Y-113151318D01*
X142946151Y-113307160D01*
X143150751Y-113432540D01*
X143155321Y-113434433D01*
X143155323Y-113434434D01*
X143367874Y-113522475D01*
X143372447Y-113524369D01*
X143454037Y-113543957D01*
X143600965Y-113579232D01*
X143600971Y-113579233D01*
X143605778Y-113580387D01*
X143845000Y-113599214D01*
X144084222Y-113580387D01*
X144089029Y-113579233D01*
X144089035Y-113579232D01*
X144235963Y-113543957D01*
X144317553Y-113524369D01*
X144322126Y-113522475D01*
X144534677Y-113434434D01*
X144534679Y-113434433D01*
X144539249Y-113432540D01*
X144743849Y-113307160D01*
X144926318Y-113151318D01*
X145082160Y-112968849D01*
X145189514Y-112793665D01*
X145242161Y-112746033D01*
X145296946Y-112733500D01*
X177953054Y-112733500D01*
X178021175Y-112753502D01*
X178060486Y-112793665D01*
X178167840Y-112968849D01*
X178323682Y-113151318D01*
X178506151Y-113307160D01*
X178710751Y-113432540D01*
X178715321Y-113434433D01*
X178715323Y-113434434D01*
X178927874Y-113522475D01*
X178932447Y-113524369D01*
X179014037Y-113543957D01*
X179160965Y-113579232D01*
X179160971Y-113579233D01*
X179165778Y-113580387D01*
X179405000Y-113599214D01*
X179644222Y-113580387D01*
X179649029Y-113579233D01*
X179649035Y-113579232D01*
X179795963Y-113543957D01*
X179877553Y-113524369D01*
X179882126Y-113522475D01*
X180094677Y-113434434D01*
X180094679Y-113434433D01*
X180099249Y-113432540D01*
X180303849Y-113307160D01*
X180486318Y-113151318D01*
X180642160Y-112968849D01*
X180767540Y-112764249D01*
X180859369Y-112542553D01*
X180878957Y-112460963D01*
X180914232Y-112314035D01*
X180914233Y-112314029D01*
X180915387Y-112309222D01*
X180934214Y-112070000D01*
X180915387Y-111830778D01*
X180914233Y-111825971D01*
X180914232Y-111825965D01*
X180860524Y-111602259D01*
X180859369Y-111597447D01*
X180772911Y-111388717D01*
X180769434Y-111380323D01*
X180769433Y-111380321D01*
X180767540Y-111375751D01*
X180642160Y-111171151D01*
X180486318Y-110988682D01*
X180303849Y-110832840D01*
X180099249Y-110707460D01*
X180094679Y-110705567D01*
X180094677Y-110705566D01*
X179882126Y-110617525D01*
X179882124Y-110617524D01*
X179877553Y-110615631D01*
X179795963Y-110596043D01*
X179649035Y-110560768D01*
X179649029Y-110560767D01*
X179644222Y-110559613D01*
X179405000Y-110540786D01*
X179165778Y-110559613D01*
X179160971Y-110560767D01*
X179160965Y-110560768D01*
X179014037Y-110596043D01*
X178932447Y-110615631D01*
X178927876Y-110617524D01*
X178927874Y-110617525D01*
X178715323Y-110705566D01*
X178715321Y-110705567D01*
X178710751Y-110707460D01*
X178506151Y-110832840D01*
X178323682Y-110988682D01*
X178167840Y-111171151D01*
X178042460Y-111375751D01*
X178040567Y-111380321D01*
X178040564Y-111380327D01*
X178037089Y-111388717D01*
X177992541Y-111443999D01*
X177920680Y-111466500D01*
X145329320Y-111466500D01*
X145261199Y-111446498D01*
X145212911Y-111388717D01*
X145209436Y-111380327D01*
X145209433Y-111380321D01*
X145207540Y-111375751D01*
X145082160Y-111171151D01*
X144926318Y-110988682D01*
X144743849Y-110832840D01*
X144539249Y-110707460D01*
X144534679Y-110705567D01*
X144534677Y-110705566D01*
X144322126Y-110617525D01*
X144322124Y-110617524D01*
X144317553Y-110615631D01*
X144235963Y-110596043D01*
X144089035Y-110560768D01*
X144089029Y-110560767D01*
X144084222Y-110559613D01*
X143845000Y-110540786D01*
X143605778Y-110559613D01*
X143600971Y-110560767D01*
X143600965Y-110560768D01*
X143454037Y-110596043D01*
X143372447Y-110615631D01*
X143367876Y-110617524D01*
X143367874Y-110617525D01*
X143155323Y-110705566D01*
X143155321Y-110705567D01*
X143150751Y-110707460D01*
X142946151Y-110832840D01*
X142763682Y-110988682D01*
X142607840Y-111171151D01*
X142482460Y-111375751D01*
X142480567Y-111380321D01*
X142480566Y-111380323D01*
X142477089Y-111388717D01*
X142390631Y-111597447D01*
X142389476Y-111602259D01*
X142335768Y-111825965D01*
X142335767Y-111825971D01*
X142334613Y-111830778D01*
X142315786Y-112070000D01*
X133933500Y-112070000D01*
X133933500Y-109530000D01*
X139775786Y-109530000D01*
X139794613Y-109769222D01*
X139795767Y-109774029D01*
X139795768Y-109774035D01*
X139831043Y-109920963D01*
X139850631Y-110002553D01*
X139942460Y-110224249D01*
X140067840Y-110428849D01*
X140223682Y-110611318D01*
X140406151Y-110767160D01*
X140610751Y-110892540D01*
X140615321Y-110894433D01*
X140615323Y-110894434D01*
X140827874Y-110982475D01*
X140832447Y-110984369D01*
X140866082Y-110992444D01*
X141060965Y-111039232D01*
X141060971Y-111039233D01*
X141065778Y-111040387D01*
X141305000Y-111059214D01*
X141544222Y-111040387D01*
X141549029Y-111039233D01*
X141549035Y-111039232D01*
X141743918Y-110992444D01*
X141777553Y-110984369D01*
X141782126Y-110982475D01*
X141994677Y-110894434D01*
X141994679Y-110894433D01*
X141999249Y-110892540D01*
X142203849Y-110767160D01*
X142386318Y-110611318D01*
X142542160Y-110428849D01*
X142667540Y-110224249D01*
X142759369Y-110002553D01*
X142778957Y-109920963D01*
X142814232Y-109774035D01*
X142814233Y-109774029D01*
X142815387Y-109769222D01*
X142834214Y-109530000D01*
X175335786Y-109530000D01*
X175354613Y-109769222D01*
X175355767Y-109774029D01*
X175355768Y-109774035D01*
X175391043Y-109920963D01*
X175410631Y-110002553D01*
X175502460Y-110224249D01*
X175627840Y-110428849D01*
X175783682Y-110611318D01*
X175966151Y-110767160D01*
X176170751Y-110892540D01*
X176175321Y-110894433D01*
X176175323Y-110894434D01*
X176387874Y-110982475D01*
X176392447Y-110984369D01*
X176426082Y-110992444D01*
X176620965Y-111039232D01*
X176620971Y-111039233D01*
X176625778Y-111040387D01*
X176865000Y-111059214D01*
X177104222Y-111040387D01*
X177109029Y-111039233D01*
X177109035Y-111039232D01*
X177303918Y-110992444D01*
X177337553Y-110984369D01*
X177342126Y-110982475D01*
X177554677Y-110894434D01*
X177554679Y-110894433D01*
X177559249Y-110892540D01*
X177763849Y-110767160D01*
X177946318Y-110611318D01*
X178102160Y-110428849D01*
X178227540Y-110224249D01*
X178319369Y-110002553D01*
X178338957Y-109920963D01*
X178374232Y-109774035D01*
X178374233Y-109774029D01*
X178375387Y-109769222D01*
X178394214Y-109530000D01*
X178375387Y-109290778D01*
X178374233Y-109285971D01*
X178374232Y-109285965D01*
X178320524Y-109062259D01*
X178319369Y-109057447D01*
X178227540Y-108835751D01*
X178102160Y-108631151D01*
X177946318Y-108448682D01*
X177763849Y-108292840D01*
X177559249Y-108167460D01*
X177554679Y-108165567D01*
X177554677Y-108165566D01*
X177342126Y-108077525D01*
X177342124Y-108077524D01*
X177337553Y-108075631D01*
X177255963Y-108056043D01*
X177109035Y-108020768D01*
X177109029Y-108020767D01*
X177104222Y-108019613D01*
X176865000Y-108000786D01*
X176625778Y-108019613D01*
X176620971Y-108020767D01*
X176620965Y-108020768D01*
X176474037Y-108056043D01*
X176392447Y-108075631D01*
X176387876Y-108077524D01*
X176387874Y-108077525D01*
X176175323Y-108165566D01*
X176175321Y-108165567D01*
X176170751Y-108167460D01*
X175966151Y-108292840D01*
X175783682Y-108448682D01*
X175627840Y-108631151D01*
X175502460Y-108835751D01*
X175410631Y-109057447D01*
X175409476Y-109062259D01*
X175355768Y-109285965D01*
X175355767Y-109285971D01*
X175354613Y-109290778D01*
X175335786Y-109530000D01*
X142834214Y-109530000D01*
X142815387Y-109290778D01*
X142814233Y-109285971D01*
X142814232Y-109285965D01*
X142760524Y-109062259D01*
X142759369Y-109057447D01*
X142667540Y-108835751D01*
X142542160Y-108631151D01*
X142386318Y-108448682D01*
X142203849Y-108292840D01*
X141999249Y-108167460D01*
X141994679Y-108165567D01*
X141994677Y-108165566D01*
X141782126Y-108077525D01*
X141782124Y-108077524D01*
X141777553Y-108075631D01*
X141695963Y-108056043D01*
X141549035Y-108020768D01*
X141549029Y-108020767D01*
X141544222Y-108019613D01*
X141305000Y-108000786D01*
X141065778Y-108019613D01*
X141060971Y-108020767D01*
X141060965Y-108020768D01*
X140914037Y-108056043D01*
X140832447Y-108075631D01*
X140827876Y-108077524D01*
X140827874Y-108077525D01*
X140615323Y-108165566D01*
X140615321Y-108165567D01*
X140610751Y-108167460D01*
X140406151Y-108292840D01*
X140223682Y-108448682D01*
X140067840Y-108631151D01*
X139942460Y-108835751D01*
X139850631Y-109057447D01*
X139849476Y-109062259D01*
X139795768Y-109285965D01*
X139795767Y-109285971D01*
X139794613Y-109290778D01*
X139775786Y-109530000D01*
X133933500Y-109530000D01*
X133933500Y-101800000D01*
X139991502Y-101800000D01*
X140011457Y-102028087D01*
X140070716Y-102249243D01*
X140073039Y-102254224D01*
X140073039Y-102254225D01*
X140165151Y-102451762D01*
X140165154Y-102451767D01*
X140167477Y-102456749D01*
X140298802Y-102644300D01*
X140460700Y-102806198D01*
X140465208Y-102809355D01*
X140465211Y-102809357D01*
X140543389Y-102864098D01*
X140648251Y-102937523D01*
X140653233Y-102939846D01*
X140653238Y-102939849D01*
X140850775Y-103031961D01*
X140855757Y-103034284D01*
X140861065Y-103035706D01*
X140861067Y-103035707D01*
X141071598Y-103092119D01*
X141071600Y-103092119D01*
X141076913Y-103093543D01*
X141305000Y-103113498D01*
X141533087Y-103093543D01*
X141538400Y-103092119D01*
X141538402Y-103092119D01*
X141748933Y-103035707D01*
X141748935Y-103035706D01*
X141754243Y-103034284D01*
X141759225Y-103031961D01*
X141956762Y-102939849D01*
X141956767Y-102939846D01*
X141961749Y-102937523D01*
X142066611Y-102864098D01*
X142144789Y-102809357D01*
X142144792Y-102809355D01*
X142149300Y-102806198D01*
X142311198Y-102644300D01*
X142442523Y-102456749D01*
X142444846Y-102451767D01*
X142444849Y-102451762D01*
X142536961Y-102254225D01*
X142536961Y-102254224D01*
X142539284Y-102249243D01*
X142598543Y-102028087D01*
X142618498Y-101800000D01*
X150151502Y-101800000D01*
X150171457Y-102028087D01*
X150230716Y-102249243D01*
X150233039Y-102254224D01*
X150233039Y-102254225D01*
X150325151Y-102451762D01*
X150325154Y-102451767D01*
X150327477Y-102456749D01*
X150458802Y-102644300D01*
X150620700Y-102806198D01*
X150625208Y-102809355D01*
X150625211Y-102809357D01*
X150703389Y-102864098D01*
X150808251Y-102937523D01*
X150813233Y-102939846D01*
X150813238Y-102939849D01*
X151010775Y-103031961D01*
X151015757Y-103034284D01*
X151021065Y-103035706D01*
X151021067Y-103035707D01*
X151231598Y-103092119D01*
X151231600Y-103092119D01*
X151236913Y-103093543D01*
X151465000Y-103113498D01*
X151693087Y-103093543D01*
X151698400Y-103092119D01*
X151698402Y-103092119D01*
X151908933Y-103035707D01*
X151908935Y-103035706D01*
X151914243Y-103034284D01*
X151919225Y-103031961D01*
X152116762Y-102939849D01*
X152116767Y-102939846D01*
X152121749Y-102937523D01*
X152226611Y-102864098D01*
X152304789Y-102809357D01*
X152304792Y-102809355D01*
X152309300Y-102806198D01*
X152471198Y-102644300D01*
X152602523Y-102456749D01*
X152604846Y-102451767D01*
X152604849Y-102451762D01*
X152696961Y-102254225D01*
X152696961Y-102254224D01*
X152699284Y-102249243D01*
X152758543Y-102028087D01*
X152778498Y-101800000D01*
X152758543Y-101571913D01*
X152699284Y-101350757D01*
X152696961Y-101345775D01*
X152604849Y-101148238D01*
X152604846Y-101148233D01*
X152602523Y-101143251D01*
X152471198Y-100955700D01*
X152309300Y-100793802D01*
X152304792Y-100790645D01*
X152304789Y-100790643D01*
X152226611Y-100735902D01*
X152121749Y-100662477D01*
X152116767Y-100660154D01*
X152116762Y-100660151D01*
X151919225Y-100568039D01*
X151919224Y-100568039D01*
X151914243Y-100565716D01*
X151908935Y-100564294D01*
X151908933Y-100564293D01*
X151698402Y-100507881D01*
X151698400Y-100507881D01*
X151693087Y-100506457D01*
X151465000Y-100486502D01*
X151236913Y-100506457D01*
X151231600Y-100507881D01*
X151231598Y-100507881D01*
X151021067Y-100564293D01*
X151021065Y-100564294D01*
X151015757Y-100565716D01*
X151010776Y-100568039D01*
X151010775Y-100568039D01*
X150813238Y-100660151D01*
X150813233Y-100660154D01*
X150808251Y-100662477D01*
X150703389Y-100735902D01*
X150625211Y-100790643D01*
X150625208Y-100790645D01*
X150620700Y-100793802D01*
X150458802Y-100955700D01*
X150327477Y-101143251D01*
X150325154Y-101148233D01*
X150325151Y-101148238D01*
X150233039Y-101345775D01*
X150230716Y-101350757D01*
X150171457Y-101571913D01*
X150151502Y-101800000D01*
X142618498Y-101800000D01*
X142598543Y-101571913D01*
X142539284Y-101350757D01*
X142536961Y-101345775D01*
X142444849Y-101148238D01*
X142444846Y-101148233D01*
X142442523Y-101143251D01*
X142311198Y-100955700D01*
X142149300Y-100793802D01*
X142144792Y-100790645D01*
X142144789Y-100790643D01*
X142066611Y-100735902D01*
X141961749Y-100662477D01*
X141956767Y-100660154D01*
X141956762Y-100660151D01*
X141759225Y-100568039D01*
X141759224Y-100568039D01*
X141754243Y-100565716D01*
X141748935Y-100564294D01*
X141748933Y-100564293D01*
X141538402Y-100507881D01*
X141538400Y-100507881D01*
X141533087Y-100506457D01*
X141305000Y-100486502D01*
X141076913Y-100506457D01*
X141071600Y-100507881D01*
X141071598Y-100507881D01*
X140861067Y-100564293D01*
X140861065Y-100564294D01*
X140855757Y-100565716D01*
X140850776Y-100568039D01*
X140850775Y-100568039D01*
X140653238Y-100660151D01*
X140653233Y-100660154D01*
X140648251Y-100662477D01*
X140543389Y-100735902D01*
X140465211Y-100790643D01*
X140465208Y-100790645D01*
X140460700Y-100793802D01*
X140298802Y-100955700D01*
X140167477Y-101143251D01*
X140165154Y-101148233D01*
X140165151Y-101148238D01*
X140073039Y-101345775D01*
X140070716Y-101350757D01*
X140011457Y-101571913D01*
X139991502Y-101800000D01*
X133933500Y-101800000D01*
X133933500Y-96187500D01*
X150636496Y-96187500D01*
X150656458Y-96377428D01*
X150715473Y-96559056D01*
X150810960Y-96724444D01*
X150938747Y-96866366D01*
X151093248Y-96978618D01*
X151099276Y-96981302D01*
X151099278Y-96981303D01*
X151261681Y-97053609D01*
X151267712Y-97056294D01*
X151361112Y-97076147D01*
X151448056Y-97094628D01*
X151448061Y-97094628D01*
X151454513Y-97096000D01*
X151510406Y-97096000D01*
X151578527Y-97116002D01*
X151599501Y-97132905D01*
X151783843Y-97317247D01*
X151791387Y-97325537D01*
X151795500Y-97332018D01*
X151801277Y-97337443D01*
X151845167Y-97378658D01*
X151848009Y-97381413D01*
X151867731Y-97401135D01*
X151870855Y-97403558D01*
X151870859Y-97403562D01*
X151870924Y-97403612D01*
X151879945Y-97411317D01*
X151912179Y-97441586D01*
X151919127Y-97445405D01*
X151919129Y-97445407D01*
X151929932Y-97451346D01*
X151946459Y-97462202D01*
X151956198Y-97469757D01*
X151956200Y-97469758D01*
X151962460Y-97474614D01*
X152003040Y-97492174D01*
X152013688Y-97497391D01*
X152038476Y-97511018D01*
X152052440Y-97518695D01*
X152060116Y-97520666D01*
X152060119Y-97520667D01*
X152072062Y-97523733D01*
X152090767Y-97530137D01*
X152109355Y-97538181D01*
X152117178Y-97539420D01*
X152117188Y-97539423D01*
X152153024Y-97545099D01*
X152164644Y-97547505D01*
X152196459Y-97555673D01*
X152207470Y-97558500D01*
X152227724Y-97558500D01*
X152247434Y-97560051D01*
X152267443Y-97563220D01*
X152275335Y-97562474D01*
X152294080Y-97560702D01*
X152311462Y-97559059D01*
X152323319Y-97558500D01*
X164696233Y-97558500D01*
X164707416Y-97559027D01*
X164714909Y-97560702D01*
X164722835Y-97560453D01*
X164722836Y-97560453D01*
X164782986Y-97558562D01*
X164786945Y-97558500D01*
X164814856Y-97558500D01*
X164818791Y-97558003D01*
X164818856Y-97557995D01*
X164830693Y-97557062D01*
X164862951Y-97556048D01*
X164866970Y-97555922D01*
X164874889Y-97555673D01*
X164894343Y-97550021D01*
X164913700Y-97546013D01*
X164925930Y-97544468D01*
X164925931Y-97544468D01*
X164933797Y-97543474D01*
X164941168Y-97540555D01*
X164941170Y-97540555D01*
X164974912Y-97527196D01*
X164986142Y-97523351D01*
X165020983Y-97513229D01*
X165020984Y-97513229D01*
X165028593Y-97511018D01*
X165035412Y-97506985D01*
X165035417Y-97506983D01*
X165046028Y-97500707D01*
X165063776Y-97492012D01*
X165082617Y-97484552D01*
X165118387Y-97458564D01*
X165128307Y-97452048D01*
X165159535Y-97433580D01*
X165159538Y-97433578D01*
X165166362Y-97429542D01*
X165180683Y-97415221D01*
X165195717Y-97402380D01*
X165197431Y-97401135D01*
X165212107Y-97390472D01*
X165240298Y-97356395D01*
X165248288Y-97347616D01*
X171200500Y-91395405D01*
X171262812Y-91361379D01*
X171289595Y-91358500D01*
X171345487Y-91358500D01*
X171351939Y-91357128D01*
X171351944Y-91357128D01*
X171438887Y-91338647D01*
X171532288Y-91318794D01*
X171548920Y-91311389D01*
X171700722Y-91243803D01*
X171700724Y-91243802D01*
X171706752Y-91241118D01*
X171861253Y-91128866D01*
X171989040Y-90986944D01*
X172084527Y-90821556D01*
X172143542Y-90639928D01*
X172160907Y-90474706D01*
X172187920Y-90409050D01*
X172197122Y-90398782D01*
X176027247Y-86568657D01*
X176035537Y-86561113D01*
X176042018Y-86557000D01*
X176088659Y-86507332D01*
X176091413Y-86504491D01*
X176111134Y-86484770D01*
X176113612Y-86481575D01*
X176121318Y-86472553D01*
X176146158Y-86446101D01*
X176151586Y-86440321D01*
X176161346Y-86422568D01*
X176172199Y-86406045D01*
X176179753Y-86396306D01*
X176184613Y-86390041D01*
X176202176Y-86349457D01*
X176207383Y-86338827D01*
X176228695Y-86300060D01*
X176230666Y-86292383D01*
X176230668Y-86292378D01*
X176233732Y-86280442D01*
X176240138Y-86261730D01*
X176245034Y-86250417D01*
X176248181Y-86243145D01*
X176255097Y-86199481D01*
X176257504Y-86187860D01*
X176266528Y-86152711D01*
X176266528Y-86152710D01*
X176268500Y-86145030D01*
X176268500Y-86124769D01*
X176270051Y-86105058D01*
X176271979Y-86092885D01*
X176273219Y-86085057D01*
X176269059Y-86041046D01*
X176268500Y-86029189D01*
X176268500Y-77537524D01*
X176288502Y-77469403D01*
X176300858Y-77453221D01*
X176374040Y-77371944D01*
X176469527Y-77206556D01*
X176528542Y-77024928D01*
X176548504Y-76835000D01*
X176528542Y-76645072D01*
X176469527Y-76463444D01*
X176374040Y-76298056D01*
X176357290Y-76279454D01*
X176326575Y-76215447D01*
X176335340Y-76144994D01*
X176341810Y-76132146D01*
X176354868Y-76109530D01*
X176400085Y-76031211D01*
X176431223Y-75977279D01*
X176431224Y-75977278D01*
X176434527Y-75971556D01*
X176493542Y-75789928D01*
X176497709Y-75750287D01*
X176512814Y-75606565D01*
X176513504Y-75600000D01*
X176505714Y-75525882D01*
X176494232Y-75416635D01*
X176494232Y-75416633D01*
X176493542Y-75410072D01*
X176434527Y-75228444D01*
X176339040Y-75063056D01*
X176211253Y-74921134D01*
X176056752Y-74808882D01*
X176050724Y-74806198D01*
X176050722Y-74806197D01*
X175888319Y-74733891D01*
X175888318Y-74733891D01*
X175882288Y-74731206D01*
X175788887Y-74711353D01*
X175701944Y-74692872D01*
X175701939Y-74692872D01*
X175695487Y-74691500D01*
X175504513Y-74691500D01*
X175498061Y-74692872D01*
X175498056Y-74692872D01*
X175411113Y-74711353D01*
X175317712Y-74731206D01*
X175311682Y-74733891D01*
X175311681Y-74733891D01*
X175149278Y-74806197D01*
X175149276Y-74806198D01*
X175143248Y-74808882D01*
X174988747Y-74921134D01*
X174860960Y-75063056D01*
X174765473Y-75228444D01*
X174706458Y-75410072D01*
X174705768Y-75416633D01*
X174705768Y-75416635D01*
X174689093Y-75575292D01*
X174662080Y-75640949D01*
X174652878Y-75651217D01*
X174517747Y-75786348D01*
X174509461Y-75793888D01*
X174502982Y-75798000D01*
X174497557Y-75803777D01*
X174456357Y-75847651D01*
X174453602Y-75850493D01*
X174433865Y-75870230D01*
X174431385Y-75873427D01*
X174423682Y-75882447D01*
X174393414Y-75914679D01*
X174389595Y-75921625D01*
X174389593Y-75921628D01*
X174383652Y-75932434D01*
X174372801Y-75948953D01*
X174360386Y-75964959D01*
X174357241Y-75972228D01*
X174357238Y-75972232D01*
X174342826Y-76005537D01*
X174337609Y-76016187D01*
X174316305Y-76054940D01*
X174314334Y-76062615D01*
X174314334Y-76062616D01*
X174311267Y-76074562D01*
X174304863Y-76093266D01*
X174296819Y-76111855D01*
X174295580Y-76119678D01*
X174295577Y-76119688D01*
X174289901Y-76155524D01*
X174287495Y-76167144D01*
X174284777Y-76177731D01*
X174276500Y-76209970D01*
X174276500Y-76230224D01*
X174274949Y-76249934D01*
X174271780Y-76269943D01*
X174272526Y-76277835D01*
X174275941Y-76313961D01*
X174276500Y-76325819D01*
X174276500Y-81850406D01*
X174256498Y-81918527D01*
X174239595Y-81939501D01*
X162057198Y-94121897D01*
X161994886Y-94155923D01*
X161924071Y-94150858D01*
X161867235Y-94108311D01*
X161842424Y-94041791D01*
X161857515Y-93972417D01*
X161862132Y-93964639D01*
X161919831Y-93874936D01*
X161922359Y-93871006D01*
X162030930Y-93629988D01*
X162102683Y-93375570D01*
X162136043Y-93113340D01*
X162138487Y-93020000D01*
X162118897Y-92756384D01*
X162060557Y-92498559D01*
X162045028Y-92458626D01*
X161966442Y-92256542D01*
X161966441Y-92256540D01*
X161964749Y-92252189D01*
X161938535Y-92206323D01*
X161835897Y-92026745D01*
X161833578Y-92022687D01*
X161669925Y-91815094D01*
X161477385Y-91633970D01*
X161470972Y-91629521D01*
X161264026Y-91485958D01*
X161264021Y-91485955D01*
X161260188Y-91483296D01*
X161255997Y-91481229D01*
X161027294Y-91368445D01*
X161027291Y-91368444D01*
X161023106Y-91366380D01*
X160966150Y-91348148D01*
X160775792Y-91287214D01*
X160775794Y-91287214D01*
X160771347Y-91285791D01*
X160628825Y-91262580D01*
X160515053Y-91244051D01*
X160515052Y-91244051D01*
X160510441Y-91243300D01*
X160378281Y-91241570D01*
X160250798Y-91239901D01*
X160250795Y-91239901D01*
X160246121Y-91239840D01*
X159984192Y-91275486D01*
X159979702Y-91276795D01*
X159979696Y-91276796D01*
X159871732Y-91308265D01*
X159730410Y-91349457D01*
X159726163Y-91351415D01*
X159726160Y-91351416D01*
X159635950Y-91393004D01*
X159490348Y-91460127D01*
X159486439Y-91462690D01*
X159273195Y-91602499D01*
X159273190Y-91602503D01*
X159269282Y-91605065D01*
X159239884Y-91631304D01*
X159107675Y-91749305D01*
X159072067Y-91781086D01*
X158903036Y-91984324D01*
X158765901Y-92210314D01*
X158663677Y-92454091D01*
X158662526Y-92458623D01*
X158662525Y-92458626D01*
X158651226Y-92503116D01*
X158598608Y-92710301D01*
X158572124Y-92973314D01*
X158572348Y-92977980D01*
X158572348Y-92977985D01*
X158574518Y-93023160D01*
X158584807Y-93237352D01*
X158636378Y-93496616D01*
X158637957Y-93501014D01*
X158637959Y-93501021D01*
X158724121Y-93741001D01*
X158725704Y-93745410D01*
X158727921Y-93749536D01*
X158847679Y-93972417D01*
X158850822Y-93978267D01*
X158853617Y-93982011D01*
X158853619Y-93982013D01*
X158979702Y-94150858D01*
X159008985Y-94190073D01*
X159012292Y-94193351D01*
X159012297Y-94193357D01*
X159111879Y-94292073D01*
X159196718Y-94376174D01*
X159409896Y-94532483D01*
X159414031Y-94534659D01*
X159414035Y-94534661D01*
X159504951Y-94582494D01*
X159643836Y-94655565D01*
X159893400Y-94742716D01*
X159897993Y-94743588D01*
X160148515Y-94791151D01*
X160148518Y-94791151D01*
X160153104Y-94792022D01*
X160285174Y-94797212D01*
X160412575Y-94802218D01*
X160412581Y-94802218D01*
X160417243Y-94802401D01*
X160680015Y-94773622D01*
X160684526Y-94772434D01*
X160684528Y-94772434D01*
X160931124Y-94707511D01*
X160931126Y-94707510D01*
X160935647Y-94706320D01*
X161050191Y-94657108D01*
X161174229Y-94603817D01*
X161174231Y-94603816D01*
X161178523Y-94601972D01*
X161301729Y-94525730D01*
X161370180Y-94506892D01*
X161437949Y-94528053D01*
X161483521Y-94582494D01*
X161492425Y-94652930D01*
X161457126Y-94721969D01*
X160662000Y-95517095D01*
X160599688Y-95551121D01*
X160572905Y-95554000D01*
X153758200Y-95554000D01*
X153690079Y-95533998D01*
X153670853Y-95517657D01*
X153670580Y-95517960D01*
X153665668Y-95513537D01*
X153661253Y-95508634D01*
X153506752Y-95396382D01*
X153500724Y-95393698D01*
X153500722Y-95393697D01*
X153338319Y-95321391D01*
X153338318Y-95321391D01*
X153332288Y-95318706D01*
X153238887Y-95298853D01*
X153151944Y-95280372D01*
X153151939Y-95280372D01*
X153145487Y-95279000D01*
X152954513Y-95279000D01*
X152948061Y-95280372D01*
X152948056Y-95280372D01*
X152861113Y-95298853D01*
X152767712Y-95318706D01*
X152761682Y-95321391D01*
X152761681Y-95321391D01*
X152599278Y-95393697D01*
X152599276Y-95393698D01*
X152593248Y-95396382D01*
X152438747Y-95508634D01*
X152434326Y-95513544D01*
X152434325Y-95513545D01*
X152393636Y-95558735D01*
X152333190Y-95595975D01*
X152262207Y-95594623D01*
X152206364Y-95558735D01*
X152165675Y-95513545D01*
X152165674Y-95513544D01*
X152161253Y-95508634D01*
X152006752Y-95396382D01*
X152000724Y-95393698D01*
X152000722Y-95393697D01*
X151838319Y-95321391D01*
X151838318Y-95321391D01*
X151832288Y-95318706D01*
X151738887Y-95298853D01*
X151651944Y-95280372D01*
X151651939Y-95280372D01*
X151645487Y-95279000D01*
X151454513Y-95279000D01*
X151448061Y-95280372D01*
X151448056Y-95280372D01*
X151361113Y-95298853D01*
X151267712Y-95318706D01*
X151261682Y-95321391D01*
X151261681Y-95321391D01*
X151099278Y-95393697D01*
X151099276Y-95393698D01*
X151093248Y-95396382D01*
X150938747Y-95508634D01*
X150934326Y-95513544D01*
X150934325Y-95513545D01*
X150900492Y-95551121D01*
X150810960Y-95650556D01*
X150715473Y-95815944D01*
X150656458Y-95997572D01*
X150655768Y-96004133D01*
X150655768Y-96004135D01*
X150640693Y-96147568D01*
X150636496Y-96187500D01*
X133933500Y-96187500D01*
X133933500Y-91200400D01*
X141281500Y-91200400D01*
X141281837Y-91203646D01*
X141281837Y-91203650D01*
X141290508Y-91287214D01*
X141292474Y-91306165D01*
X141294655Y-91312701D01*
X141294655Y-91312703D01*
X141312563Y-91366380D01*
X141348450Y-91473945D01*
X141441522Y-91624348D01*
X141566697Y-91749305D01*
X141572927Y-91753145D01*
X141572928Y-91753146D01*
X141710090Y-91837694D01*
X141717262Y-91842115D01*
X141797005Y-91868564D01*
X141878611Y-91895632D01*
X141878613Y-91895632D01*
X141885139Y-91897797D01*
X141891975Y-91898497D01*
X141891978Y-91898498D01*
X141935031Y-91902909D01*
X141989600Y-91908500D01*
X143610400Y-91908500D01*
X143613646Y-91908163D01*
X143613650Y-91908163D01*
X143709307Y-91898238D01*
X143709311Y-91898237D01*
X143716165Y-91897526D01*
X143722701Y-91895345D01*
X143722703Y-91895345D01*
X143854805Y-91851272D01*
X143883945Y-91841550D01*
X144034348Y-91748478D01*
X144159305Y-91623303D01*
X144252115Y-91472738D01*
X144290461Y-91357128D01*
X144305632Y-91311389D01*
X144305632Y-91311387D01*
X144307797Y-91304861D01*
X144310872Y-91274855D01*
X144312909Y-91254969D01*
X144318500Y-91200400D01*
X144318500Y-90099600D01*
X144307526Y-89993835D01*
X144278939Y-89908148D01*
X144253868Y-89833003D01*
X144251550Y-89826055D01*
X144158478Y-89675652D01*
X144033303Y-89550695D01*
X144016269Y-89540195D01*
X143888968Y-89461725D01*
X143888966Y-89461724D01*
X143882738Y-89457885D01*
X143722254Y-89404655D01*
X143721389Y-89404368D01*
X143721387Y-89404368D01*
X143714861Y-89402203D01*
X143708025Y-89401503D01*
X143708022Y-89401502D01*
X143664969Y-89397091D01*
X143610400Y-89391500D01*
X141989600Y-89391500D01*
X141986354Y-89391837D01*
X141986350Y-89391837D01*
X141890693Y-89401762D01*
X141890689Y-89401763D01*
X141883835Y-89402474D01*
X141877299Y-89404655D01*
X141877297Y-89404655D01*
X141802780Y-89429516D01*
X141716055Y-89458450D01*
X141565652Y-89551522D01*
X141440695Y-89676697D01*
X141347885Y-89827262D01*
X141292203Y-89995139D01*
X141281500Y-90099600D01*
X141281500Y-91200400D01*
X133933500Y-91200400D01*
X133933500Y-87579733D01*
X136467822Y-87579733D01*
X136477625Y-87860458D01*
X136478387Y-87864781D01*
X136478388Y-87864788D01*
X136502164Y-87999624D01*
X136526402Y-88137087D01*
X136613203Y-88404235D01*
X136736340Y-88656702D01*
X136738795Y-88660341D01*
X136738798Y-88660347D01*
X136811890Y-88768710D01*
X136893415Y-88889576D01*
X137081371Y-89098322D01*
X137296550Y-89278879D01*
X137534764Y-89427731D01*
X137791375Y-89541982D01*
X138061390Y-89619407D01*
X138065740Y-89620018D01*
X138065743Y-89620019D01*
X138168690Y-89634487D01*
X138339552Y-89658500D01*
X138550146Y-89658500D01*
X138552332Y-89658347D01*
X138552336Y-89658347D01*
X138755827Y-89644118D01*
X138755832Y-89644117D01*
X138760212Y-89643811D01*
X139034970Y-89585409D01*
X139039099Y-89583906D01*
X139039103Y-89583905D01*
X139294781Y-89490846D01*
X139294785Y-89490844D01*
X139298926Y-89489337D01*
X139546942Y-89357464D01*
X139651896Y-89281211D01*
X139770629Y-89194947D01*
X139770632Y-89194944D01*
X139774192Y-89192358D01*
X139976252Y-88997231D01*
X140149188Y-88775882D01*
X140151384Y-88772078D01*
X140151389Y-88772071D01*
X140287435Y-88536431D01*
X140289636Y-88532619D01*
X140394862Y-88272176D01*
X140428544Y-88137087D01*
X140461753Y-88003893D01*
X140461754Y-88003888D01*
X140462817Y-87999624D01*
X140492178Y-87720267D01*
X140482375Y-87439542D01*
X140458608Y-87304749D01*
X140434360Y-87167236D01*
X140433598Y-87162913D01*
X140346797Y-86895765D01*
X140223660Y-86643298D01*
X140221205Y-86639659D01*
X140221202Y-86639653D01*
X140131951Y-86507333D01*
X140066585Y-86410424D01*
X139878629Y-86201678D01*
X139663450Y-86021121D01*
X139425236Y-85872269D01*
X139168625Y-85758018D01*
X138898610Y-85680593D01*
X138894260Y-85679982D01*
X138894257Y-85679981D01*
X138791310Y-85665513D01*
X138620448Y-85641500D01*
X138409854Y-85641500D01*
X138407668Y-85641653D01*
X138407664Y-85641653D01*
X138204173Y-85655882D01*
X138204168Y-85655883D01*
X138199788Y-85656189D01*
X137925030Y-85714591D01*
X137920901Y-85716094D01*
X137920897Y-85716095D01*
X137665219Y-85809154D01*
X137665215Y-85809156D01*
X137661074Y-85810663D01*
X137413058Y-85942536D01*
X137409499Y-85945122D01*
X137409497Y-85945123D01*
X137216894Y-86085057D01*
X137185808Y-86107642D01*
X137182644Y-86110698D01*
X137182641Y-86110700D01*
X137102740Y-86187860D01*
X136983748Y-86302769D01*
X136810812Y-86524118D01*
X136808616Y-86527922D01*
X136808611Y-86527929D01*
X136694794Y-86725068D01*
X136670364Y-86767381D01*
X136565138Y-87027824D01*
X136564073Y-87032097D01*
X136564072Y-87032099D01*
X136530379Y-87167236D01*
X136497183Y-87300376D01*
X136467822Y-87579733D01*
X133933500Y-87579733D01*
X133933500Y-84689690D01*
X141277037Y-84689690D01*
X141304025Y-84912715D01*
X141370082Y-85127435D01*
X141372652Y-85132415D01*
X141372654Y-85132419D01*
X141437852Y-85258738D01*
X141473118Y-85327064D01*
X141609877Y-85505292D01*
X141776036Y-85656485D01*
X141780783Y-85659463D01*
X141780786Y-85659465D01*
X141961595Y-85772885D01*
X141966344Y-85775864D01*
X142174783Y-85859656D01*
X142394767Y-85905213D01*
X142399378Y-85905479D01*
X142399379Y-85905479D01*
X142449952Y-85908395D01*
X142449956Y-85908395D01*
X142451775Y-85908500D01*
X143116999Y-85908500D01*
X143119786Y-85908251D01*
X143119792Y-85908251D01*
X143189929Y-85901991D01*
X143283762Y-85893617D01*
X143289176Y-85892136D01*
X143289181Y-85892135D01*
X143481578Y-85839500D01*
X143500451Y-85834337D01*
X143505509Y-85831925D01*
X143505513Y-85831923D01*
X143623042Y-85775864D01*
X143703218Y-85737622D01*
X143885654Y-85606529D01*
X144041992Y-85445201D01*
X144167290Y-85258738D01*
X144257588Y-85053033D01*
X144310032Y-84834589D01*
X144322963Y-84610310D01*
X144295975Y-84387285D01*
X144229918Y-84172565D01*
X144164798Y-84046396D01*
X144129454Y-83977919D01*
X144129454Y-83977918D01*
X144126882Y-83972936D01*
X143990123Y-83794708D01*
X143823964Y-83643515D01*
X143819217Y-83640537D01*
X143819214Y-83640535D01*
X143638405Y-83527115D01*
X143633656Y-83524136D01*
X143425217Y-83440344D01*
X143205233Y-83394787D01*
X143200622Y-83394521D01*
X143200621Y-83394521D01*
X143150048Y-83391605D01*
X143150044Y-83391605D01*
X143148225Y-83391500D01*
X142483001Y-83391500D01*
X142480214Y-83391749D01*
X142480208Y-83391749D01*
X142410071Y-83398009D01*
X142316238Y-83406383D01*
X142310824Y-83407864D01*
X142310819Y-83407865D01*
X142196262Y-83439205D01*
X142099549Y-83465663D01*
X142094491Y-83468075D01*
X142094487Y-83468077D01*
X141998166Y-83514020D01*
X141896782Y-83562378D01*
X141714346Y-83693471D01*
X141558008Y-83854799D01*
X141432710Y-84041262D01*
X141342412Y-84246967D01*
X141289968Y-84465411D01*
X141277037Y-84689690D01*
X133933500Y-84689690D01*
X133933500Y-79530400D01*
X154291500Y-79530400D01*
X154302474Y-79636165D01*
X154358450Y-79803945D01*
X154451522Y-79954348D01*
X154576697Y-80079305D01*
X154582927Y-80083145D01*
X154582928Y-80083146D01*
X154720090Y-80167694D01*
X154727262Y-80172115D01*
X154807005Y-80198564D01*
X154888611Y-80225632D01*
X154888613Y-80225632D01*
X154895139Y-80227797D01*
X154901975Y-80228497D01*
X154901978Y-80228498D01*
X154945031Y-80232909D01*
X154999600Y-80238500D01*
X156100400Y-80238500D01*
X156103646Y-80238163D01*
X156103650Y-80238163D01*
X156199307Y-80228238D01*
X156199311Y-80228237D01*
X156206165Y-80227526D01*
X156212701Y-80225345D01*
X156212703Y-80225345D01*
X156344805Y-80181272D01*
X156373945Y-80171550D01*
X156524348Y-80078478D01*
X156649305Y-79953303D01*
X156742115Y-79802738D01*
X156797797Y-79634861D01*
X156808500Y-79530400D01*
X156808500Y-77909600D01*
X156797526Y-77803835D01*
X156741550Y-77636055D01*
X156648478Y-77485652D01*
X156523303Y-77360695D01*
X156517072Y-77356854D01*
X156378968Y-77271725D01*
X156378966Y-77271724D01*
X156372738Y-77267885D01*
X156212254Y-77214655D01*
X156211389Y-77214368D01*
X156211387Y-77214368D01*
X156204861Y-77212203D01*
X156198025Y-77211503D01*
X156198022Y-77211502D01*
X156149746Y-77206556D01*
X156100400Y-77201500D01*
X154999600Y-77201500D01*
X154996354Y-77201837D01*
X154996350Y-77201837D01*
X154900693Y-77211762D01*
X154900689Y-77211763D01*
X154893835Y-77212474D01*
X154887299Y-77214655D01*
X154887297Y-77214655D01*
X154755195Y-77258728D01*
X154726055Y-77268450D01*
X154575652Y-77361522D01*
X154450695Y-77486697D01*
X154446855Y-77492927D01*
X154446854Y-77492928D01*
X154419365Y-77537524D01*
X154357885Y-77637262D01*
X154302203Y-77805139D01*
X154291500Y-77909600D01*
X154291500Y-79530400D01*
X133933500Y-79530400D01*
X133933500Y-74329733D01*
X155037822Y-74329733D01*
X155047625Y-74610458D01*
X155048387Y-74614781D01*
X155048388Y-74614788D01*
X155072164Y-74749624D01*
X155096402Y-74887087D01*
X155183203Y-75154235D01*
X155306340Y-75406702D01*
X155308795Y-75410341D01*
X155308798Y-75410347D01*
X155381890Y-75518710D01*
X155463415Y-75639576D01*
X155651371Y-75848322D01*
X155866550Y-76028879D01*
X156104764Y-76177731D01*
X156361375Y-76291982D01*
X156631390Y-76369407D01*
X156635740Y-76370018D01*
X156635743Y-76370019D01*
X156738690Y-76384487D01*
X156909552Y-76408500D01*
X157120146Y-76408500D01*
X157122332Y-76408347D01*
X157122336Y-76408347D01*
X157325827Y-76394118D01*
X157325832Y-76394117D01*
X157330212Y-76393811D01*
X157604970Y-76335409D01*
X157609099Y-76333906D01*
X157609103Y-76333905D01*
X157864781Y-76240846D01*
X157864785Y-76240844D01*
X157868926Y-76239337D01*
X158116942Y-76107464D01*
X158162228Y-76074562D01*
X158340629Y-75944947D01*
X158340632Y-75944944D01*
X158344192Y-75942358D01*
X158372855Y-75914679D01*
X158543087Y-75750287D01*
X158546252Y-75747231D01*
X158719188Y-75525882D01*
X158721384Y-75522078D01*
X158721389Y-75522071D01*
X158857435Y-75286431D01*
X158859636Y-75282619D01*
X158964862Y-75022176D01*
X158998544Y-74887087D01*
X159031753Y-74753893D01*
X159031754Y-74753888D01*
X159032817Y-74749624D01*
X159062178Y-74470267D01*
X159052375Y-74189542D01*
X159028608Y-74054749D01*
X159004360Y-73917236D01*
X159003598Y-73912913D01*
X158916797Y-73645765D01*
X158793660Y-73393298D01*
X158791205Y-73389659D01*
X158791202Y-73389653D01*
X158710935Y-73270653D01*
X158636585Y-73160424D01*
X158448629Y-72951678D01*
X158233450Y-72771121D01*
X157995236Y-72622269D01*
X157738625Y-72508018D01*
X157468610Y-72430593D01*
X157464260Y-72429982D01*
X157464257Y-72429981D01*
X157361310Y-72415513D01*
X157190448Y-72391500D01*
X156979854Y-72391500D01*
X156977668Y-72391653D01*
X156977664Y-72391653D01*
X156774173Y-72405882D01*
X156774168Y-72405883D01*
X156769788Y-72406189D01*
X156495030Y-72464591D01*
X156490901Y-72466094D01*
X156490897Y-72466095D01*
X156235219Y-72559154D01*
X156235215Y-72559156D01*
X156231074Y-72560663D01*
X155983058Y-72692536D01*
X155979499Y-72695122D01*
X155979497Y-72695123D01*
X155874895Y-72771121D01*
X155755808Y-72857642D01*
X155553748Y-73052769D01*
X155380812Y-73274118D01*
X155378616Y-73277922D01*
X155378611Y-73277929D01*
X155264794Y-73475067D01*
X155240364Y-73517381D01*
X155135138Y-73777824D01*
X155134073Y-73782097D01*
X155134072Y-73782099D01*
X155100379Y-73917236D01*
X155067183Y-74050376D01*
X155037822Y-74329733D01*
X133933500Y-74329733D01*
X133933500Y-70034500D01*
X133953502Y-69966379D01*
X134007158Y-69919886D01*
X134059500Y-69908500D01*
X186740500Y-69908500D01*
X186808621Y-69928502D01*
G37*
%TD.AperFunction*%
%TD*%
M02*
