%TF.GenerationSoftware,KiCad,Pcbnew,6.0.9-8da3e8f707~117~ubuntu20.04.1*%
%TF.CreationDate,2023-03-07T12:44:43-05:00*%
%TF.ProjectId,DCT_HV_Widget,4443545f-4856-45f5-9769-646765742e6b,rev?*%
%TF.SameCoordinates,Original*%
%TF.FileFunction,Copper,L1,Top*%
%TF.FilePolarity,Positive*%
%FSLAX46Y46*%
G04 Gerber Fmt 4.6, Leading zero omitted, Abs format (unit mm)*
G04 Created by KiCad (PCBNEW 6.0.9-8da3e8f707~117~ubuntu20.04.1) date 2023-03-07 12:44:43*
%MOMM*%
%LPD*%
G01*
G04 APERTURE LIST*
G04 Aperture macros list*
%AMRoundRect*
0 Rectangle with rounded corners*
0 $1 Rounding radius*
0 $2 $3 $4 $5 $6 $7 $8 $9 X,Y pos of 4 corners*
0 Add a 4 corners polygon primitive as box body*
4,1,4,$2,$3,$4,$5,$6,$7,$8,$9,$2,$3,0*
0 Add four circle primitives for the rounded corners*
1,1,$1+$1,$2,$3*
1,1,$1+$1,$4,$5*
1,1,$1+$1,$6,$7*
1,1,$1+$1,$8,$9*
0 Add four rect primitives between the rounded corners*
20,1,$1+$1,$2,$3,$4,$5,0*
20,1,$1+$1,$4,$5,$6,$7,0*
20,1,$1+$1,$6,$7,$8,$9,0*
20,1,$1+$1,$8,$9,$2,$3,0*%
G04 Aperture macros list end*
%TA.AperFunction,SMDPad,CuDef*%
%ADD10RoundRect,0.225000X-0.250000X0.225000X-0.250000X-0.225000X0.250000X-0.225000X0.250000X0.225000X0*%
%TD*%
%TA.AperFunction,SMDPad,CuDef*%
%ADD11RoundRect,0.225000X0.225000X0.250000X-0.225000X0.250000X-0.225000X-0.250000X0.225000X-0.250000X0*%
%TD*%
%TA.AperFunction,SMDPad,CuDef*%
%ADD12RoundRect,0.200000X-0.200000X-0.275000X0.200000X-0.275000X0.200000X0.275000X-0.200000X0.275000X0*%
%TD*%
%TA.AperFunction,SMDPad,CuDef*%
%ADD13RoundRect,0.200000X0.200000X0.275000X-0.200000X0.275000X-0.200000X-0.275000X0.200000X-0.275000X0*%
%TD*%
%TA.AperFunction,ComponentPad*%
%ADD14C,6.400000*%
%TD*%
%TA.AperFunction,SMDPad,CuDef*%
%ADD15RoundRect,0.250000X-0.925000X0.412500X-0.925000X-0.412500X0.925000X-0.412500X0.925000X0.412500X0*%
%TD*%
%TA.AperFunction,SMDPad,CuDef*%
%ADD16R,0.533400X1.460500*%
%TD*%
%TA.AperFunction,SMDPad,CuDef*%
%ADD17R,0.900000X1.300000*%
%TD*%
%TA.AperFunction,SMDPad,CuDef*%
%ADD18R,1.732000X3.125000*%
%TD*%
%TA.AperFunction,SMDPad,CuDef*%
%ADD19R,0.900000X1.475000*%
%TD*%
%TA.AperFunction,ComponentPad*%
%ADD20C,1.600000*%
%TD*%
%TA.AperFunction,ComponentPad*%
%ADD21O,1.600000X1.600000*%
%TD*%
%TA.AperFunction,ComponentPad*%
%ADD22RoundRect,0.250001X0.499999X0.759999X-0.499999X0.759999X-0.499999X-0.759999X0.499999X-0.759999X0*%
%TD*%
%TA.AperFunction,ComponentPad*%
%ADD23O,1.500000X2.020000*%
%TD*%
%TA.AperFunction,ComponentPad*%
%ADD24RoundRect,0.250001X0.759999X-0.499999X0.759999X0.499999X-0.759999X0.499999X-0.759999X-0.499999X0*%
%TD*%
%TA.AperFunction,ComponentPad*%
%ADD25O,2.020000X1.500000*%
%TD*%
%TA.AperFunction,ComponentPad*%
%ADD26RoundRect,0.250001X-0.499999X-0.759999X0.499999X-0.759999X0.499999X0.759999X-0.499999X0.759999X0*%
%TD*%
%TA.AperFunction,SMDPad,CuDef*%
%ADD27R,0.600000X0.550000*%
%TD*%
%TA.AperFunction,SMDPad,CuDef*%
%ADD28RoundRect,0.200000X-0.275000X0.200000X-0.275000X-0.200000X0.275000X-0.200000X0.275000X0.200000X0*%
%TD*%
%TA.AperFunction,SMDPad,CuDef*%
%ADD29RoundRect,0.200000X0.275000X-0.200000X0.275000X0.200000X-0.275000X0.200000X-0.275000X-0.200000X0*%
%TD*%
%TA.AperFunction,ComponentPad*%
%ADD30C,2.032000*%
%TD*%
%TA.AperFunction,ComponentPad*%
%ADD31C,2.540000*%
%TD*%
%TA.AperFunction,ViaPad*%
%ADD32C,0.800000*%
%TD*%
%TA.AperFunction,Conductor*%
%ADD33C,0.250000*%
%TD*%
G04 APERTURE END LIST*
D10*
%TO.P,C2,1*%
%TO.N,Net-(C2-Pad1)*%
X172875000Y-87800000D03*
%TO.P,C2,2*%
%TO.N,Net-(C1-Pad2)*%
X172875000Y-89350000D03*
%TD*%
D11*
%TO.P,C4,1*%
%TO.N,/VP6*%
X174365000Y-76800000D03*
%TO.P,C4,2*%
%TO.N,GND*%
X172815000Y-76800000D03*
%TD*%
D12*
%TO.P,R1,1*%
%TO.N,/V_Control*%
X155575000Y-87200000D03*
%TO.P,R1,2*%
%TO.N,Net-(D1-Pad1)*%
X157225000Y-87200000D03*
%TD*%
D13*
%TO.P,R4,2*%
%TO.N,Net-(C1-Pad1)*%
X171225000Y-86275000D03*
%TO.P,R4,1*%
%TO.N,Net-(C2-Pad1)*%
X172875000Y-86275000D03*
%TD*%
D14*
%TO.P,H2,1,1*%
%TO.N,GND*%
X182200000Y-74500000D03*
%TD*%
D15*
%TO.P,C6,1*%
%TO.N,/VP6*%
X146950000Y-90650000D03*
%TO.P,C6,2*%
%TO.N,GND*%
X146950000Y-93725000D03*
%TD*%
D14*
%TO.P,H1,1,1*%
%TO.N,GND*%
X138525000Y-74600000D03*
%TD*%
%TO.P,H3,1,1*%
%TO.N,GND*%
X138525000Y-138375000D03*
%TD*%
D16*
%TO.P,U1,1,NULL*%
%TO.N,unconnected-(U1-Pad1)*%
X173095000Y-84424150D03*
%TO.P,U1,2,-IN*%
%TO.N,Net-(C2-Pad1)*%
X174365000Y-84424150D03*
%TO.P,U1,3,+IN*%
%TO.N,Net-(R6-Pad1)*%
X175635000Y-84424150D03*
%TO.P,U1,4,V-*%
%TO.N,/VM6*%
X176905000Y-84424150D03*
%TO.P,U1,5,NULL*%
%TO.N,unconnected-(U1-Pad5)*%
X176905000Y-78975850D03*
%TO.P,U1,6,OUT*%
%TO.N,Net-(C1-Pad2)*%
X175635000Y-78975850D03*
%TO.P,U1,7,V+*%
%TO.N,/VP6*%
X174365000Y-78975850D03*
%TO.P,U1,8,NC*%
%TO.N,unconnected-(U1-Pad8)*%
X173095000Y-78975850D03*
%TD*%
D17*
%TO.P,Q1,1,E*%
%TO.N,Net-(Q1-Pad1)*%
X154540000Y-93942500D03*
%TO.P,Q1,2,B*%
%TO.N,Net-(C1-Pad2)*%
X151550000Y-93942500D03*
D18*
%TO.P,Q1,3,C*%
%TO.N,/VP6*%
X153050000Y-91555000D03*
D19*
X153050000Y-93855000D03*
%TD*%
D10*
%TO.P,C1,2*%
%TO.N,Net-(C1-Pad2)*%
X171247000Y-89350000D03*
%TO.P,C1,1*%
%TO.N,Net-(C1-Pad1)*%
X171247000Y-87800000D03*
%TD*%
D13*
%TO.P,R3,1*%
%TO.N,/V_Control*%
X155575000Y-84100000D03*
%TO.P,R3,2*%
%TO.N,GND*%
X153925000Y-84100000D03*
%TD*%
D14*
%TO.P,H4,1,1*%
%TO.N,GND*%
X182300000Y-138300000D03*
%TD*%
D20*
%TO.P,R5,1*%
%TO.N,Net-(Q1-Pad1)*%
X151465000Y-101800000D03*
D21*
%TO.P,R5,2*%
%TO.N,Net-(R5-Pad2)*%
X141305000Y-101800000D03*
%TD*%
D22*
%TO.P,J3,1,Pin_1*%
%TO.N,/HV_Input*%
X161825000Y-134780000D03*
D23*
%TO.P,J3,2,Pin_2*%
X158825000Y-134780000D03*
%TD*%
D24*
%TO.P,J2,1,Pin_1*%
%TO.N,/VP6*%
X142800000Y-90650000D03*
D25*
%TO.P,J2,2,Pin_2*%
%TO.N,GND*%
X142800000Y-87650000D03*
%TO.P,J2,3,Pin_3*%
%TO.N,/VM6*%
X142800000Y-84650000D03*
%TD*%
D26*
%TO.P,J1,1,Pin_1*%
%TO.N,/V_Control*%
X155550000Y-78720000D03*
D23*
%TO.P,J1,2,Pin_2*%
%TO.N,GND*%
X158550000Y-78720000D03*
%TD*%
D27*
%TO.P,D1,1,K*%
%TO.N,Net-(D1-Pad1)*%
X159055000Y-85725000D03*
%TO.P,D1,2,K*%
X160355000Y-85725000D03*
%TO.P,D1,3,A*%
%TO.N,GND*%
X159705000Y-83875000D03*
%TD*%
D28*
%TO.P,R6,1*%
%TO.N,Net-(R6-Pad1)*%
X175600000Y-89875000D03*
%TO.P,R6,2*%
%TO.N,Net-(D1-Pad1)*%
X175600000Y-91525000D03*
%TD*%
D15*
%TO.P,C5,1*%
%TO.N,GND*%
X146950000Y-81575000D03*
%TO.P,C5,2*%
%TO.N,/VM6*%
X146950000Y-84650000D03*
%TD*%
D29*
%TO.P,R2,2*%
%TO.N,Net-(C2-Pad1)*%
X174365000Y-86200000D03*
%TO.P,R2,1*%
%TO.N,GND*%
X174365000Y-87850000D03*
%TD*%
D30*
%TO.P,U2,1*%
%TO.N,Net-(R5-Pad2)*%
X141305000Y-109530000D03*
%TO.P,U2,2*%
%TO.N,Net-(U2-Pad2)*%
X143845000Y-112070000D03*
%TO.P,U2,3*%
%TO.N,/VM6*%
X176865000Y-109530000D03*
%TO.P,U2,4*%
%TO.N,Net-(U2-Pad2)*%
X179405000Y-112070000D03*
D31*
%TO.P,U2,5*%
%TO.N,Net-(D1-Pad1)*%
X160355000Y-93020000D03*
%TO.P,U2,6*%
%TO.N,/HV_Input*%
X160355000Y-128580000D03*
%TD*%
D11*
%TO.P,C3,1*%
%TO.N,GND*%
X178450000Y-86275000D03*
%TO.P,C3,2*%
%TO.N,/VM6*%
X176900000Y-86275000D03*
%TD*%
D32*
%TO.N,Net-(C1-Pad2)*%
X175635000Y-76835000D03*
X171250000Y-90450000D03*
X151550000Y-96187500D03*
%TO.N,GND*%
X174400000Y-89400000D03*
X146975000Y-96575000D03*
X146950000Y-78575000D03*
X152300000Y-84100000D03*
X178500000Y-87800000D03*
X171542000Y-76800000D03*
%TO.N,/VP6*%
X153050000Y-96187500D03*
X175600000Y-75600000D03*
%TD*%
D33*
%TO.N,Net-(C2-Pad1)*%
X174365000Y-86200000D02*
X174365000Y-84424150D01*
%TO.N,Net-(C1-Pad2)*%
X175635000Y-78975850D02*
X175635000Y-76835000D01*
%TO.N,Net-(C2-Pad1)*%
X172875000Y-86275000D02*
X172875000Y-87800000D01*
X174365000Y-86200000D02*
X172950000Y-86200000D01*
X172950000Y-86200000D02*
X172875000Y-86275000D01*
%TO.N,Net-(C1-Pad1)*%
X171247000Y-87800000D02*
X171247000Y-86297000D01*
X171247000Y-86297000D02*
X171225000Y-86275000D01*
%TO.N,Net-(C1-Pad2)*%
X171247000Y-89350000D02*
X172875000Y-89350000D01*
X171250000Y-90450000D02*
X171250000Y-89353000D01*
X171250000Y-89353000D02*
X171247000Y-89350000D01*
X151565000Y-93927500D02*
X151565000Y-96172500D01*
%TO.N,GND*%
X174400000Y-89400000D02*
X174400000Y-88185000D01*
X178500000Y-86545000D02*
X178455000Y-86500000D01*
X159705000Y-83875000D02*
X159705000Y-80000000D01*
X174400000Y-88185000D02*
X174365000Y-88150000D01*
X172815000Y-76800000D02*
X171542000Y-76800000D01*
X153925000Y-84100000D02*
X152300000Y-84100000D01*
X146975000Y-96575000D02*
X146975000Y-93575000D01*
X146950000Y-81575000D02*
X146950000Y-78575000D01*
X159705000Y-80000000D02*
X158575000Y-78870000D01*
X178500000Y-87800000D02*
X178500000Y-86545000D01*
%TO.N,/VM6*%
X153498500Y-88925000D02*
X149223500Y-84650000D01*
X176900000Y-86505000D02*
X176905000Y-86500000D01*
X176905000Y-86500000D02*
X176905000Y-84424150D01*
X156600000Y-91675000D02*
X156600000Y-89725000D01*
X155800000Y-88925000D02*
X153498500Y-88925000D01*
X176900000Y-105730000D02*
X176900000Y-102000000D01*
X176900000Y-94900000D02*
X159825000Y-94900000D01*
X159825000Y-94900000D02*
X156600000Y-91675000D01*
X176865000Y-105765000D02*
X176865000Y-109530000D01*
X146950000Y-84650000D02*
X142800000Y-84650000D01*
X176900000Y-102000000D02*
X176900000Y-94900000D01*
X176865000Y-105765000D02*
X176900000Y-105730000D01*
X156600000Y-89725000D02*
X155800000Y-88925000D01*
X149223500Y-84650000D02*
X146950000Y-84650000D01*
X176900000Y-94900000D02*
X176900000Y-86505000D01*
%TO.N,/VP6*%
X174365000Y-76800000D02*
X174400000Y-76800000D01*
X174400000Y-76800000D02*
X175600000Y-75600000D01*
X153050000Y-91555000D02*
X153050000Y-91225000D01*
X142800000Y-90650000D02*
X146950000Y-90650000D01*
X153050000Y-91225000D02*
X152475000Y-90650000D01*
X174365000Y-78975850D02*
X174365000Y-76800000D01*
X152475000Y-90650000D02*
X146950000Y-90650000D01*
X153065000Y-93840000D02*
X153065000Y-96172500D01*
%TO.N,Net-(D1-Pad1)*%
X160355000Y-85725000D02*
X160355000Y-87145000D01*
X174105000Y-93020000D02*
X175600000Y-91525000D01*
X159055000Y-87145000D02*
X159000000Y-87200000D01*
X159055000Y-85725000D02*
X159055000Y-87145000D01*
X158800000Y-87200000D02*
X159000000Y-87200000D01*
X159000000Y-87200000D02*
X160300000Y-87200000D01*
X160355000Y-87145000D02*
X160355000Y-93020000D01*
X160300000Y-87200000D02*
X160355000Y-87145000D01*
X160355000Y-93020000D02*
X174105000Y-93020000D01*
X158800000Y-87200000D02*
X157225000Y-87200000D01*
%TO.N,/V_Control*%
X155575000Y-78870000D02*
X155575000Y-84100000D01*
X155575000Y-87200000D02*
X155575000Y-84100000D01*
%TO.N,/HV_Input*%
X158825000Y-134780000D02*
X158825000Y-130110000D01*
X158825000Y-130110000D02*
X160355000Y-128580000D01*
X161825000Y-130050000D02*
X160355000Y-128580000D01*
X161825000Y-134780000D02*
X161825000Y-130050000D01*
%TO.N,Net-(Q1-Pad1)*%
X154540000Y-98725000D02*
X151465000Y-101800000D01*
X154540000Y-93942500D02*
X154540000Y-98725000D01*
%TO.N,Net-(R5-Pad2)*%
X141305000Y-109530000D02*
X141305000Y-101800000D01*
%TO.N,Net-(R6-Pad1)*%
X175635000Y-84424150D02*
X175635000Y-89840000D01*
X175635000Y-89840000D02*
X175600000Y-89875000D01*
%TD*%
%TA.AperFunction,Conductor*%
%TO.N,/HV_Input*%
G36*
X161128254Y-129369882D02*
G01*
X161146618Y-129384039D01*
X161779920Y-129972742D01*
X161816194Y-130033771D01*
X161820132Y-130064720D01*
X161820323Y-130144229D01*
X161829696Y-134043697D01*
X161809857Y-134111866D01*
X161756314Y-134158487D01*
X161703696Y-134170000D01*
X158985077Y-134170000D01*
X158916956Y-134149998D01*
X158870463Y-134096342D01*
X158859080Y-134044926D01*
X158830399Y-130144229D01*
X158849900Y-130075963D01*
X158869112Y-130052432D01*
X159553775Y-129394796D01*
X159616760Y-129362032D01*
X159640230Y-129359670D01*
X161060003Y-129350329D01*
X161128254Y-129369882D01*
G37*
%TD.AperFunction*%
%TD*%
M02*
