%TF.GenerationSoftware,KiCad,Pcbnew,(6.0.11)*%
%TF.CreationDate,2023-02-16T11:16:17-05:00*%
%TF.ProjectId,DCT_HV_Widget,4443545f-4856-45f5-9769-646765742e6b,rev?*%
%TF.SameCoordinates,Original*%
%TF.FileFunction,Copper,L2,Bot*%
%TF.FilePolarity,Positive*%
%FSLAX46Y46*%
G04 Gerber Fmt 4.6, Leading zero omitted, Abs format (unit mm)*
G04 Created by KiCad (PCBNEW (6.0.11)) date 2023-02-16 11:16:17*
%MOMM*%
%LPD*%
G01*
G04 APERTURE LIST*
G04 Aperture macros list*
%AMRoundRect*
0 Rectangle with rounded corners*
0 $1 Rounding radius*
0 $2 $3 $4 $5 $6 $7 $8 $9 X,Y pos of 4 corners*
0 Add a 4 corners polygon primitive as box body*
4,1,4,$2,$3,$4,$5,$6,$7,$8,$9,$2,$3,0*
0 Add four circle primitives for the rounded corners*
1,1,$1+$1,$2,$3*
1,1,$1+$1,$4,$5*
1,1,$1+$1,$6,$7*
1,1,$1+$1,$8,$9*
0 Add four rect primitives between the rounded corners*
20,1,$1+$1,$2,$3,$4,$5,0*
20,1,$1+$1,$4,$5,$6,$7,0*
20,1,$1+$1,$6,$7,$8,$9,0*
20,1,$1+$1,$8,$9,$2,$3,0*%
G04 Aperture macros list end*
%TA.AperFunction,ComponentPad*%
%ADD10C,2.540000*%
%TD*%
%TA.AperFunction,ComponentPad*%
%ADD11C,2.032000*%
%TD*%
%TA.AperFunction,ComponentPad*%
%ADD12RoundRect,0.250001X0.499999X0.759999X-0.499999X0.759999X-0.499999X-0.759999X0.499999X-0.759999X0*%
%TD*%
%TA.AperFunction,ComponentPad*%
%ADD13O,1.500000X2.020000*%
%TD*%
%TA.AperFunction,ComponentPad*%
%ADD14RoundRect,0.250001X0.759999X-0.499999X0.759999X0.499999X-0.759999X0.499999X-0.759999X-0.499999X0*%
%TD*%
%TA.AperFunction,ComponentPad*%
%ADD15O,2.020000X1.500000*%
%TD*%
%TA.AperFunction,ComponentPad*%
%ADD16RoundRect,0.250001X-0.499999X-0.759999X0.499999X-0.759999X0.499999X0.759999X-0.499999X0.759999X0*%
%TD*%
%TA.AperFunction,ComponentPad*%
%ADD17C,6.400000*%
%TD*%
%TA.AperFunction,ViaPad*%
%ADD18C,0.800000*%
%TD*%
%TA.AperFunction,Conductor*%
%ADD19C,0.250000*%
%TD*%
G04 APERTURE END LIST*
D10*
%TO.P,U2,6*%
%TO.N,/HV_Input*%
X160355000Y-120935000D03*
%TO.P,U2,5*%
%TO.N,Net-(D1-Pad1)*%
X160355000Y-85375000D03*
D11*
%TO.P,U2,4*%
%TO.N,Net-(U2-Pad2)*%
X179405000Y-104425000D03*
%TO.P,U2,3*%
%TO.N,/VM6*%
X176865000Y-101885000D03*
%TO.P,U2,2*%
%TO.N,Net-(U2-Pad2)*%
X143845000Y-104425000D03*
%TO.P,U2,1*%
%TO.N,Net-(R5-Pad2)*%
X141305000Y-101885000D03*
%TD*%
D12*
%TO.P,J3,1,Pin_1*%
%TO.N,GND*%
X161825000Y-134780000D03*
D13*
%TO.P,J3,2,Pin_2*%
%TO.N,/HV_Input*%
X158825000Y-134780000D03*
%TD*%
D14*
%TO.P,J2,1,Pin_1*%
%TO.N,/VP6*%
X125300000Y-88375000D03*
D15*
%TO.P,J2,2,Pin_2*%
%TO.N,GND*%
X125300000Y-85375000D03*
%TO.P,J2,3,Pin_3*%
%TO.N,/VM6*%
X125300000Y-82375000D03*
%TD*%
D16*
%TO.P,J1,1,Pin_1*%
%TO.N,/V_Control*%
X158825000Y-64420000D03*
D13*
%TO.P,J1,2,Pin_2*%
%TO.N,GND*%
X161825000Y-64420000D03*
%TD*%
D17*
%TO.P,H2,1,1*%
%TO.N,GND*%
X198950000Y-60900000D03*
%TD*%
%TO.P,H1,1,1*%
%TO.N,GND*%
X121375000Y-60900000D03*
%TD*%
%TO.P,H3,1,1*%
%TO.N,GND*%
X121375000Y-138425000D03*
%TD*%
%TO.P,H4,1,1*%
%TO.N,GND*%
X198950000Y-138425000D03*
%TD*%
D18*
%TO.N,Net-(C1-Pad2)*%
X192600000Y-56325000D03*
%TO.N,/VP6*%
X193275000Y-64925000D03*
%TO.N,GND*%
X180650000Y-69400000D03*
X148175000Y-77425000D03*
%TO.N,Net-(C1-Pad2)*%
X139875000Y-92675000D03*
%TO.N,/VP6*%
X141400000Y-92725000D03*
%TO.N,GND*%
X129450000Y-76300000D03*
X129475000Y-94300000D03*
X191700000Y-61775000D03*
%TD*%
D19*
%TO.N,/VP6*%
X141400000Y-92725000D02*
X165475000Y-92725000D01*
X165475000Y-92725000D02*
X193275000Y-64925000D01*
%TO.N,Net-(C1-Pad2)*%
X152300000Y-56325000D02*
X192600000Y-56325000D01*
X150450000Y-58175000D02*
X152300000Y-56325000D01*
X139875000Y-92675000D02*
X139875000Y-68750000D01*
X139875000Y-68750000D02*
X150450000Y-58175000D01*
%TO.N,/VP6*%
X141400000Y-92725000D02*
X140725000Y-93400000D01*
X140725000Y-93400000D02*
X130325000Y-93400000D01*
X130325000Y-93400000D02*
X125300000Y-88375000D01*
%TO.N,Net-(U2-Pad2)*%
X143845000Y-104425000D02*
X179405000Y-104425000D01*
%TD*%
%TA.AperFunction,Conductor*%
%TO.N,GND*%
G36*
X151884527Y-55628502D02*
G01*
X151931020Y-55682158D01*
X151941124Y-55752432D01*
X151911630Y-55817012D01*
X151905501Y-55823595D01*
X151894317Y-55834779D01*
X151879284Y-55847619D01*
X151862893Y-55859528D01*
X151857842Y-55865634D01*
X151834702Y-55893605D01*
X151826712Y-55902384D01*
X150058637Y-57670458D01*
X139482747Y-68246348D01*
X139474461Y-68253888D01*
X139467982Y-68258000D01*
X139462557Y-68263777D01*
X139421357Y-68307651D01*
X139418602Y-68310493D01*
X139398865Y-68330230D01*
X139396385Y-68333427D01*
X139388682Y-68342447D01*
X139358414Y-68374679D01*
X139354595Y-68381625D01*
X139354593Y-68381628D01*
X139348652Y-68392434D01*
X139337801Y-68408953D01*
X139325386Y-68424959D01*
X139322241Y-68432228D01*
X139322238Y-68432232D01*
X139307826Y-68465537D01*
X139302609Y-68476187D01*
X139281305Y-68514940D01*
X139279334Y-68522615D01*
X139279334Y-68522616D01*
X139276267Y-68534562D01*
X139269863Y-68553266D01*
X139261819Y-68571855D01*
X139260580Y-68579678D01*
X139260577Y-68579688D01*
X139254901Y-68615524D01*
X139252495Y-68627144D01*
X139241500Y-68669970D01*
X139241500Y-68690224D01*
X139239949Y-68709934D01*
X139236780Y-68729943D01*
X139237526Y-68737835D01*
X139240941Y-68773961D01*
X139241500Y-68785819D01*
X139241500Y-91972476D01*
X139221498Y-92040597D01*
X139209142Y-92056779D01*
X139135960Y-92138056D01*
X139040473Y-92303444D01*
X138981458Y-92485072D01*
X138980768Y-92491633D01*
X138980768Y-92491635D01*
X138963738Y-92653670D01*
X138936725Y-92719327D01*
X138878503Y-92759957D01*
X138838428Y-92766500D01*
X130639594Y-92766500D01*
X130571473Y-92746498D01*
X130550499Y-92729595D01*
X126854144Y-89033240D01*
X126820118Y-88970928D01*
X126817896Y-88931296D01*
X126818172Y-88928603D01*
X126818172Y-88928599D01*
X126818500Y-88925400D01*
X126818500Y-87824600D01*
X126807526Y-87718835D01*
X126751550Y-87551055D01*
X126658478Y-87400652D01*
X126533303Y-87275695D01*
X126516269Y-87265195D01*
X126388968Y-87186725D01*
X126388966Y-87186724D01*
X126382738Y-87182885D01*
X126222254Y-87129655D01*
X126221389Y-87129368D01*
X126221387Y-87129368D01*
X126214861Y-87127203D01*
X126208025Y-87126503D01*
X126208022Y-87126502D01*
X126164969Y-87122091D01*
X126110400Y-87116500D01*
X124489600Y-87116500D01*
X124486354Y-87116837D01*
X124486350Y-87116837D01*
X124390693Y-87126762D01*
X124390689Y-87126763D01*
X124383835Y-87127474D01*
X124377299Y-87129655D01*
X124377297Y-87129655D01*
X124294133Y-87157401D01*
X124216055Y-87183450D01*
X124065652Y-87276522D01*
X123940695Y-87401697D01*
X123847885Y-87552262D01*
X123792203Y-87720139D01*
X123781500Y-87824600D01*
X123781500Y-88925400D01*
X123781837Y-88928646D01*
X123781837Y-88928650D01*
X123788295Y-88990886D01*
X123792474Y-89031165D01*
X123848450Y-89198945D01*
X123941522Y-89349348D01*
X124066697Y-89474305D01*
X124217262Y-89567115D01*
X124297005Y-89593564D01*
X124378611Y-89620632D01*
X124378613Y-89620632D01*
X124385139Y-89622797D01*
X124391975Y-89623497D01*
X124391978Y-89623498D01*
X124435031Y-89627909D01*
X124489600Y-89633500D01*
X125610406Y-89633500D01*
X125678527Y-89653502D01*
X125699501Y-89670405D01*
X129821343Y-93792247D01*
X129828887Y-93800537D01*
X129833000Y-93807018D01*
X129838777Y-93812443D01*
X129882667Y-93853658D01*
X129885509Y-93856413D01*
X129905230Y-93876134D01*
X129908425Y-93878612D01*
X129917447Y-93886318D01*
X129949679Y-93916586D01*
X129956628Y-93920406D01*
X129967432Y-93926346D01*
X129983956Y-93937199D01*
X129999959Y-93949613D01*
X130040543Y-93967176D01*
X130051173Y-93972383D01*
X130089940Y-93993695D01*
X130097617Y-93995666D01*
X130097622Y-93995668D01*
X130109558Y-93998732D01*
X130128266Y-94005137D01*
X130146855Y-94013181D01*
X130154683Y-94014421D01*
X130154690Y-94014423D01*
X130190524Y-94020099D01*
X130202144Y-94022505D01*
X130233959Y-94030673D01*
X130244970Y-94033500D01*
X130265224Y-94033500D01*
X130284934Y-94035051D01*
X130304943Y-94038220D01*
X130312835Y-94037474D01*
X130331580Y-94035702D01*
X130348962Y-94034059D01*
X130360819Y-94033500D01*
X140646233Y-94033500D01*
X140657416Y-94034027D01*
X140664909Y-94035702D01*
X140672835Y-94035453D01*
X140672836Y-94035453D01*
X140732986Y-94033562D01*
X140736945Y-94033500D01*
X140764856Y-94033500D01*
X140768791Y-94033003D01*
X140768856Y-94032995D01*
X140780693Y-94032062D01*
X140812951Y-94031048D01*
X140816970Y-94030922D01*
X140824889Y-94030673D01*
X140844343Y-94025021D01*
X140863700Y-94021013D01*
X140875930Y-94019468D01*
X140875931Y-94019468D01*
X140883797Y-94018474D01*
X140891168Y-94015555D01*
X140891170Y-94015555D01*
X140924912Y-94002196D01*
X140936142Y-93998351D01*
X140970983Y-93988229D01*
X140970984Y-93988229D01*
X140978593Y-93986018D01*
X140985412Y-93981985D01*
X140985417Y-93981983D01*
X140996028Y-93975707D01*
X141013776Y-93967012D01*
X141032617Y-93959552D01*
X141052987Y-93944753D01*
X141068387Y-93933564D01*
X141078307Y-93927048D01*
X141109535Y-93908580D01*
X141109538Y-93908578D01*
X141116362Y-93904542D01*
X141130683Y-93890221D01*
X141145717Y-93877380D01*
X141147432Y-93876134D01*
X141162107Y-93865472D01*
X141190298Y-93831395D01*
X141198288Y-93822616D01*
X141350499Y-93670405D01*
X141412811Y-93636379D01*
X141439594Y-93633500D01*
X141495487Y-93633500D01*
X141501939Y-93632128D01*
X141501944Y-93632128D01*
X141588888Y-93613647D01*
X141682288Y-93593794D01*
X141688319Y-93591109D01*
X141850722Y-93518803D01*
X141850724Y-93518802D01*
X141856752Y-93516118D01*
X142011253Y-93403866D01*
X142015668Y-93398963D01*
X142020580Y-93394540D01*
X142021705Y-93395789D01*
X142075014Y-93362949D01*
X142108200Y-93358500D01*
X165396233Y-93358500D01*
X165407416Y-93359027D01*
X165414909Y-93360702D01*
X165422835Y-93360453D01*
X165422836Y-93360453D01*
X165482986Y-93358562D01*
X165486945Y-93358500D01*
X165514856Y-93358500D01*
X165518791Y-93358003D01*
X165518856Y-93357995D01*
X165530693Y-93357062D01*
X165562951Y-93356048D01*
X165566970Y-93355922D01*
X165574889Y-93355673D01*
X165594343Y-93350021D01*
X165613700Y-93346013D01*
X165625930Y-93344468D01*
X165625931Y-93344468D01*
X165633797Y-93343474D01*
X165641168Y-93340555D01*
X165641170Y-93340555D01*
X165674912Y-93327196D01*
X165686142Y-93323351D01*
X165720983Y-93313229D01*
X165720984Y-93313229D01*
X165728593Y-93311018D01*
X165735412Y-93306985D01*
X165735417Y-93306983D01*
X165746028Y-93300707D01*
X165763776Y-93292012D01*
X165782617Y-93284552D01*
X165818387Y-93258564D01*
X165828307Y-93252048D01*
X165859535Y-93233580D01*
X165859538Y-93233578D01*
X165866362Y-93229542D01*
X165880683Y-93215221D01*
X165895717Y-93202380D01*
X165905694Y-93195131D01*
X165912107Y-93190472D01*
X165940298Y-93156395D01*
X165948288Y-93147616D01*
X193225500Y-65870405D01*
X193287812Y-65836379D01*
X193314595Y-65833500D01*
X193370487Y-65833500D01*
X193376939Y-65832128D01*
X193376944Y-65832128D01*
X193463888Y-65813647D01*
X193557288Y-65793794D01*
X193581204Y-65783146D01*
X193725722Y-65718803D01*
X193725724Y-65718802D01*
X193731752Y-65716118D01*
X193886253Y-65603866D01*
X193971461Y-65509233D01*
X194009621Y-65466852D01*
X194009622Y-65466851D01*
X194014040Y-65461944D01*
X194109527Y-65296556D01*
X194168542Y-65114928D01*
X194188504Y-64925000D01*
X194168542Y-64735072D01*
X194109527Y-64553444D01*
X194014040Y-64388056D01*
X193928686Y-64293260D01*
X193890675Y-64251045D01*
X193890674Y-64251044D01*
X193886253Y-64246134D01*
X193787157Y-64174136D01*
X193737094Y-64137763D01*
X193737093Y-64137762D01*
X193731752Y-64133882D01*
X193725724Y-64131198D01*
X193725722Y-64131197D01*
X193563319Y-64058891D01*
X193563318Y-64058891D01*
X193557288Y-64056206D01*
X193463887Y-64036353D01*
X193376944Y-64017872D01*
X193376939Y-64017872D01*
X193370487Y-64016500D01*
X193179513Y-64016500D01*
X193173061Y-64017872D01*
X193173056Y-64017872D01*
X193086113Y-64036353D01*
X192992712Y-64056206D01*
X192986682Y-64058891D01*
X192986681Y-64058891D01*
X192824278Y-64131197D01*
X192824276Y-64131198D01*
X192818248Y-64133882D01*
X192812907Y-64137762D01*
X192812906Y-64137763D01*
X192762843Y-64174136D01*
X192663747Y-64246134D01*
X192659326Y-64251044D01*
X192659325Y-64251045D01*
X192621315Y-64293260D01*
X192535960Y-64388056D01*
X192440473Y-64553444D01*
X192381458Y-64735072D01*
X192380768Y-64741633D01*
X192380768Y-64741635D01*
X192364093Y-64900293D01*
X192337080Y-64965950D01*
X192327878Y-64976218D01*
X165249500Y-92054595D01*
X165187188Y-92088621D01*
X165160405Y-92091500D01*
X142108200Y-92091500D01*
X142040079Y-92071498D01*
X142020853Y-92055157D01*
X142020580Y-92055460D01*
X142015668Y-92051037D01*
X142011253Y-92046134D01*
X141856752Y-91933882D01*
X141850724Y-91931198D01*
X141850722Y-91931197D01*
X141688319Y-91858891D01*
X141688318Y-91858891D01*
X141682288Y-91856206D01*
X141588887Y-91836353D01*
X141501944Y-91817872D01*
X141501939Y-91817872D01*
X141495487Y-91816500D01*
X141304513Y-91816500D01*
X141298061Y-91817872D01*
X141298056Y-91817872D01*
X141211113Y-91836353D01*
X141117712Y-91856206D01*
X141111682Y-91858891D01*
X141111681Y-91858891D01*
X140949278Y-91931197D01*
X140949276Y-91931198D01*
X140943248Y-91933882D01*
X140788747Y-92046134D01*
X140753644Y-92085120D01*
X140693201Y-92122358D01*
X140622217Y-92121007D01*
X140566376Y-92085120D01*
X140540862Y-92056783D01*
X140510146Y-91992778D01*
X140508500Y-91972476D01*
X140508500Y-85328314D01*
X158572124Y-85328314D01*
X158572348Y-85332980D01*
X158572348Y-85332985D01*
X158574518Y-85378160D01*
X158584807Y-85592352D01*
X158594876Y-85642973D01*
X158635437Y-85846883D01*
X158636378Y-85851616D01*
X158637957Y-85856014D01*
X158637959Y-85856021D01*
X158687104Y-85992901D01*
X158725704Y-86100410D01*
X158727921Y-86104536D01*
X158847518Y-86327117D01*
X158850822Y-86333267D01*
X158853617Y-86337011D01*
X158853619Y-86337013D01*
X158936743Y-86448329D01*
X159008985Y-86545073D01*
X159012292Y-86548351D01*
X159012297Y-86548357D01*
X159190779Y-86725287D01*
X159196718Y-86731174D01*
X159409896Y-86887483D01*
X159414031Y-86889659D01*
X159414035Y-86889661D01*
X159537293Y-86954510D01*
X159643836Y-87010565D01*
X159648255Y-87012108D01*
X159849725Y-87082464D01*
X159893400Y-87097716D01*
X159897993Y-87098588D01*
X160148515Y-87146151D01*
X160148518Y-87146151D01*
X160153104Y-87147022D01*
X160285173Y-87152211D01*
X160412575Y-87157218D01*
X160412581Y-87157218D01*
X160417243Y-87157401D01*
X160680015Y-87128622D01*
X160684526Y-87127434D01*
X160684528Y-87127434D01*
X160931124Y-87062511D01*
X160931126Y-87062510D01*
X160935647Y-87061320D01*
X161050191Y-87012108D01*
X161174229Y-86958817D01*
X161174231Y-86958816D01*
X161178523Y-86956972D01*
X161389938Y-86826144D01*
X161399332Y-86820331D01*
X161399334Y-86820330D01*
X161403307Y-86817871D01*
X161419788Y-86803919D01*
X161601496Y-86650093D01*
X161601498Y-86650091D01*
X161605063Y-86647073D01*
X161779356Y-86448329D01*
X161819868Y-86385347D01*
X161904649Y-86253539D01*
X161922359Y-86226006D01*
X162030930Y-85984988D01*
X162102683Y-85730570D01*
X162136043Y-85468340D01*
X162138487Y-85375000D01*
X162123174Y-85168939D01*
X162119243Y-85116036D01*
X162119242Y-85116032D01*
X162118897Y-85111384D01*
X162060557Y-84853559D01*
X162045028Y-84813626D01*
X161966442Y-84611542D01*
X161966441Y-84611540D01*
X161964749Y-84607189D01*
X161938535Y-84561323D01*
X161896952Y-84488569D01*
X161833578Y-84377687D01*
X161669925Y-84170094D01*
X161477385Y-83988970D01*
X161440212Y-83963182D01*
X161264026Y-83840958D01*
X161264021Y-83840955D01*
X161260188Y-83838296D01*
X161243473Y-83830053D01*
X161027294Y-83723445D01*
X161027291Y-83723444D01*
X161023106Y-83721380D01*
X160966150Y-83703148D01*
X160775792Y-83642214D01*
X160775794Y-83642214D01*
X160771347Y-83640791D01*
X160518399Y-83599596D01*
X160515053Y-83599051D01*
X160515052Y-83599051D01*
X160510441Y-83598300D01*
X160378281Y-83596570D01*
X160250798Y-83594901D01*
X160250795Y-83594901D01*
X160246121Y-83594840D01*
X159984192Y-83630486D01*
X159979702Y-83631795D01*
X159979696Y-83631796D01*
X159871732Y-83663265D01*
X159730410Y-83704457D01*
X159726163Y-83706415D01*
X159726160Y-83706416D01*
X159645092Y-83743789D01*
X159490348Y-83815127D01*
X159486439Y-83817690D01*
X159273195Y-83957499D01*
X159273190Y-83957503D01*
X159269282Y-83960065D01*
X159265790Y-83963182D01*
X159076475Y-84132152D01*
X159072067Y-84136086D01*
X158903036Y-84339324D01*
X158765901Y-84565314D01*
X158764095Y-84569622D01*
X158764094Y-84569623D01*
X158679381Y-84771642D01*
X158663677Y-84809091D01*
X158662526Y-84813623D01*
X158662525Y-84813626D01*
X158651226Y-84858116D01*
X158598608Y-85065301D01*
X158572124Y-85328314D01*
X140508500Y-85328314D01*
X140508500Y-69064594D01*
X140528502Y-68996473D01*
X140545405Y-68975499D01*
X144290504Y-65230400D01*
X157566500Y-65230400D01*
X157566837Y-65233646D01*
X157566837Y-65233650D01*
X157576577Y-65327516D01*
X157577474Y-65336165D01*
X157633450Y-65503945D01*
X157726522Y-65654348D01*
X157851697Y-65779305D01*
X157857927Y-65783145D01*
X157857928Y-65783146D01*
X157995090Y-65867694D01*
X158002262Y-65872115D01*
X158081542Y-65898411D01*
X158163611Y-65925632D01*
X158163613Y-65925632D01*
X158170139Y-65927797D01*
X158176975Y-65928497D01*
X158176978Y-65928498D01*
X158220031Y-65932909D01*
X158274600Y-65938500D01*
X159375400Y-65938500D01*
X159378646Y-65938163D01*
X159378650Y-65938163D01*
X159474307Y-65928238D01*
X159474311Y-65928237D01*
X159481165Y-65927526D01*
X159487701Y-65925345D01*
X159487703Y-65925345D01*
X159639033Y-65874857D01*
X159648945Y-65871550D01*
X159799348Y-65778478D01*
X159924305Y-65653303D01*
X159952385Y-65607749D01*
X160013275Y-65508968D01*
X160013276Y-65508966D01*
X160017115Y-65502738D01*
X160072797Y-65334861D01*
X160083500Y-65230400D01*
X160083500Y-64734175D01*
X160567000Y-64734175D01*
X160567249Y-64739770D01*
X160581378Y-64898078D01*
X160583360Y-64909092D01*
X160639651Y-65114860D01*
X160643549Y-65125341D01*
X160735397Y-65317903D01*
X160741082Y-65327516D01*
X160865575Y-65500767D01*
X160872883Y-65509233D01*
X161026082Y-65657692D01*
X161034779Y-65664735D01*
X161211844Y-65783719D01*
X161221642Y-65789105D01*
X161416990Y-65874857D01*
X161427582Y-65878422D01*
X161553384Y-65908624D01*
X161567470Y-65907919D01*
X161571000Y-65899040D01*
X161571000Y-65898411D01*
X162079000Y-65898411D01*
X162083105Y-65912393D01*
X162092728Y-65913886D01*
X162092973Y-65913834D01*
X162296883Y-65851102D01*
X162307229Y-65846881D01*
X162496814Y-65749029D01*
X162506245Y-65743043D01*
X162675501Y-65613168D01*
X162683724Y-65605607D01*
X162827312Y-65447806D01*
X162834067Y-65438906D01*
X162947434Y-65258185D01*
X162952511Y-65248219D01*
X163032080Y-65050286D01*
X163035315Y-65039571D01*
X163078777Y-64829699D01*
X163079980Y-64820562D01*
X163082895Y-64770010D01*
X163083000Y-64766363D01*
X163083000Y-64692115D01*
X163078525Y-64676876D01*
X163077135Y-64675671D01*
X163069452Y-64674000D01*
X162097115Y-64674000D01*
X162081876Y-64678475D01*
X162080671Y-64679865D01*
X162079000Y-64687548D01*
X162079000Y-65898411D01*
X161571000Y-65898411D01*
X161571000Y-64692115D01*
X161566525Y-64676876D01*
X161565135Y-64675671D01*
X161557452Y-64674000D01*
X160585115Y-64674000D01*
X160569876Y-64678475D01*
X160568671Y-64679865D01*
X160567000Y-64687548D01*
X160567000Y-64734175D01*
X160083500Y-64734175D01*
X160083500Y-64147885D01*
X160567000Y-64147885D01*
X160571475Y-64163124D01*
X160572865Y-64164329D01*
X160580548Y-64166000D01*
X161552885Y-64166000D01*
X161568124Y-64161525D01*
X161569329Y-64160135D01*
X161571000Y-64152452D01*
X161571000Y-64147885D01*
X162079000Y-64147885D01*
X162083475Y-64163124D01*
X162084865Y-64164329D01*
X162092548Y-64166000D01*
X163064885Y-64166000D01*
X163080124Y-64161525D01*
X163081329Y-64160135D01*
X163083000Y-64152452D01*
X163083000Y-64105825D01*
X163082751Y-64100230D01*
X163068622Y-63941922D01*
X163066640Y-63930908D01*
X163010349Y-63725140D01*
X163006451Y-63714659D01*
X162998212Y-63697386D01*
X196517759Y-63697386D01*
X196525216Y-63707753D01*
X196764935Y-63901874D01*
X196770272Y-63905751D01*
X197090685Y-64113830D01*
X197096394Y-64117127D01*
X197436811Y-64290578D01*
X197442836Y-64293260D01*
X197799502Y-64430171D01*
X197805784Y-64432212D01*
X198174816Y-64531094D01*
X198181266Y-64532465D01*
X198558629Y-64592234D01*
X198565167Y-64592920D01*
X198946699Y-64612916D01*
X198953301Y-64612916D01*
X199334833Y-64592920D01*
X199341371Y-64592234D01*
X199718734Y-64532465D01*
X199725184Y-64531094D01*
X200094216Y-64432212D01*
X200100498Y-64430171D01*
X200457164Y-64293260D01*
X200463189Y-64290578D01*
X200803606Y-64117127D01*
X200809315Y-64113830D01*
X201129728Y-63905751D01*
X201135065Y-63901874D01*
X201373835Y-63708522D01*
X201382300Y-63696267D01*
X201375966Y-63685176D01*
X198962812Y-61272022D01*
X198948868Y-61264408D01*
X198947035Y-61264539D01*
X198940420Y-61268790D01*
X196524900Y-63684310D01*
X196517759Y-63697386D01*
X162998212Y-63697386D01*
X162914603Y-63522097D01*
X162908918Y-63512484D01*
X162784425Y-63339233D01*
X162777117Y-63330767D01*
X162623918Y-63182308D01*
X162615221Y-63175265D01*
X162438156Y-63056281D01*
X162428358Y-63050895D01*
X162233010Y-62965143D01*
X162222418Y-62961578D01*
X162096616Y-62931376D01*
X162082530Y-62932081D01*
X162079000Y-62940960D01*
X162079000Y-64147885D01*
X161571000Y-64147885D01*
X161571000Y-62941589D01*
X161566895Y-62927607D01*
X161557272Y-62926114D01*
X161557027Y-62926166D01*
X161353117Y-62988898D01*
X161342771Y-62993119D01*
X161153186Y-63090971D01*
X161143755Y-63096957D01*
X160974499Y-63226832D01*
X160966276Y-63234393D01*
X160822688Y-63392194D01*
X160815933Y-63401094D01*
X160702566Y-63581815D01*
X160697489Y-63591781D01*
X160617920Y-63789714D01*
X160614685Y-63800429D01*
X160571223Y-64010301D01*
X160570020Y-64019438D01*
X160567105Y-64069990D01*
X160567000Y-64073637D01*
X160567000Y-64147885D01*
X160083500Y-64147885D01*
X160083500Y-63609600D01*
X160074421Y-63522097D01*
X160073238Y-63510693D01*
X160073237Y-63510689D01*
X160072526Y-63503835D01*
X160016550Y-63336055D01*
X159923478Y-63185652D01*
X159798303Y-63060695D01*
X159688675Y-62993119D01*
X159653968Y-62971725D01*
X159653966Y-62971724D01*
X159647738Y-62967885D01*
X159526303Y-62927607D01*
X159486389Y-62914368D01*
X159486387Y-62914368D01*
X159479861Y-62912203D01*
X159473025Y-62911503D01*
X159473022Y-62911502D01*
X159429969Y-62907091D01*
X159375400Y-62901500D01*
X158274600Y-62901500D01*
X158271354Y-62901837D01*
X158271350Y-62901837D01*
X158175693Y-62911762D01*
X158175689Y-62911763D01*
X158168835Y-62912474D01*
X158162299Y-62914655D01*
X158162297Y-62914655D01*
X158083452Y-62940960D01*
X158001055Y-62968450D01*
X157850652Y-63061522D01*
X157725695Y-63186697D01*
X157721855Y-63192927D01*
X157721854Y-63192928D01*
X157636889Y-63330767D01*
X157632885Y-63337262D01*
X157577203Y-63505139D01*
X157566500Y-63609600D01*
X157566500Y-65230400D01*
X144290504Y-65230400D01*
X149491171Y-60029733D01*
X158312822Y-60029733D01*
X158312975Y-60034121D01*
X158312975Y-60034127D01*
X158316368Y-60131266D01*
X158322625Y-60310458D01*
X158323387Y-60314781D01*
X158323388Y-60314788D01*
X158347164Y-60449624D01*
X158371402Y-60587087D01*
X158458203Y-60854235D01*
X158460131Y-60858188D01*
X158460133Y-60858193D01*
X158486773Y-60912812D01*
X158581340Y-61106702D01*
X158583795Y-61110341D01*
X158583798Y-61110347D01*
X158656890Y-61218710D01*
X158738415Y-61339576D01*
X158926371Y-61548322D01*
X159141550Y-61728879D01*
X159379764Y-61877731D01*
X159636375Y-61991982D01*
X159906390Y-62069407D01*
X159910740Y-62070018D01*
X159910743Y-62070019D01*
X160013690Y-62084487D01*
X160184552Y-62108500D01*
X160395146Y-62108500D01*
X160397332Y-62108347D01*
X160397336Y-62108347D01*
X160600827Y-62094118D01*
X160600832Y-62094117D01*
X160605212Y-62093811D01*
X160879970Y-62035409D01*
X160884099Y-62033906D01*
X160884103Y-62033905D01*
X161139781Y-61940846D01*
X161139785Y-61940844D01*
X161143926Y-61939337D01*
X161391942Y-61807464D01*
X161496896Y-61731211D01*
X161615629Y-61644947D01*
X161615632Y-61644944D01*
X161619192Y-61642358D01*
X161821252Y-61447231D01*
X161994188Y-61225882D01*
X161996384Y-61222078D01*
X161996389Y-61222071D01*
X162132435Y-60986431D01*
X162134636Y-60982619D01*
X162166683Y-60903301D01*
X195237084Y-60903301D01*
X195257080Y-61284833D01*
X195257766Y-61291371D01*
X195317535Y-61668734D01*
X195318906Y-61675184D01*
X195417788Y-62044216D01*
X195419829Y-62050498D01*
X195556740Y-62407164D01*
X195559422Y-62413189D01*
X195732872Y-62753603D01*
X195736169Y-62759313D01*
X195944253Y-63079735D01*
X195948123Y-63085061D01*
X196141478Y-63323835D01*
X196153733Y-63332300D01*
X196164824Y-63325966D01*
X198577978Y-60912812D01*
X198584356Y-60901132D01*
X199314408Y-60901132D01*
X199314539Y-60902965D01*
X199318790Y-60909580D01*
X201734310Y-63325100D01*
X201747386Y-63332241D01*
X201757753Y-63324784D01*
X201951877Y-63085061D01*
X201955747Y-63079735D01*
X202163831Y-62759313D01*
X202167128Y-62753603D01*
X202340578Y-62413189D01*
X202343260Y-62407164D01*
X202480171Y-62050498D01*
X202482212Y-62044216D01*
X202581094Y-61675184D01*
X202582465Y-61668734D01*
X202642234Y-61291371D01*
X202642920Y-61284833D01*
X202662916Y-60903301D01*
X202662916Y-60896699D01*
X202642920Y-60515167D01*
X202642234Y-60508629D01*
X202582465Y-60131266D01*
X202581094Y-60124816D01*
X202482212Y-59755784D01*
X202480171Y-59749502D01*
X202343260Y-59392836D01*
X202340578Y-59386811D01*
X202167128Y-59046397D01*
X202163831Y-59040687D01*
X201955747Y-58720265D01*
X201951877Y-58714939D01*
X201758522Y-58476165D01*
X201746267Y-58467700D01*
X201735176Y-58474034D01*
X199322022Y-60887188D01*
X199314408Y-60901132D01*
X198584356Y-60901132D01*
X198585592Y-60898868D01*
X198585461Y-60897035D01*
X198581210Y-60890420D01*
X196165690Y-58474900D01*
X196152614Y-58467759D01*
X196142247Y-58475216D01*
X195948123Y-58714939D01*
X195944253Y-58720265D01*
X195736169Y-59040687D01*
X195732872Y-59046397D01*
X195559422Y-59386811D01*
X195556740Y-59392836D01*
X195419829Y-59749502D01*
X195417788Y-59755784D01*
X195318906Y-60124816D01*
X195317535Y-60131266D01*
X195257766Y-60508629D01*
X195257080Y-60515167D01*
X195237084Y-60896699D01*
X195237084Y-60903301D01*
X162166683Y-60903301D01*
X162239862Y-60722176D01*
X162273544Y-60587087D01*
X162306753Y-60453893D01*
X162306754Y-60453888D01*
X162307817Y-60449624D01*
X162337178Y-60170267D01*
X162337025Y-60165873D01*
X162327529Y-59893939D01*
X162327528Y-59893933D01*
X162327375Y-59889542D01*
X162303608Y-59754749D01*
X162279360Y-59617236D01*
X162278598Y-59612913D01*
X162191797Y-59345765D01*
X162068660Y-59093298D01*
X162066205Y-59089659D01*
X162066202Y-59089653D01*
X161985935Y-58970653D01*
X161911585Y-58860424D01*
X161723629Y-58651678D01*
X161508450Y-58471121D01*
X161270236Y-58322269D01*
X161013625Y-58208018D01*
X160743610Y-58130593D01*
X160739260Y-58129982D01*
X160739257Y-58129981D01*
X160631407Y-58114824D01*
X160552490Y-58103733D01*
X196517700Y-58103733D01*
X196524034Y-58114824D01*
X198937188Y-60527978D01*
X198951132Y-60535592D01*
X198952965Y-60535461D01*
X198959580Y-60531210D01*
X201375100Y-58115690D01*
X201382241Y-58102614D01*
X201374784Y-58092247D01*
X201135065Y-57898126D01*
X201129728Y-57894249D01*
X200809315Y-57686170D01*
X200803606Y-57682873D01*
X200463189Y-57509422D01*
X200457164Y-57506740D01*
X200100498Y-57369829D01*
X200094216Y-57367788D01*
X199725184Y-57268906D01*
X199718734Y-57267535D01*
X199341371Y-57207766D01*
X199334833Y-57207080D01*
X198953301Y-57187084D01*
X198946699Y-57187084D01*
X198565167Y-57207080D01*
X198558629Y-57207766D01*
X198181266Y-57267535D01*
X198174816Y-57268906D01*
X197805784Y-57367788D01*
X197799502Y-57369829D01*
X197442836Y-57506740D01*
X197436811Y-57509422D01*
X197096397Y-57682872D01*
X197090687Y-57686169D01*
X196770265Y-57894253D01*
X196764939Y-57898123D01*
X196526165Y-58091478D01*
X196517700Y-58103733D01*
X160552490Y-58103733D01*
X160465448Y-58091500D01*
X160254854Y-58091500D01*
X160252668Y-58091653D01*
X160252664Y-58091653D01*
X160049173Y-58105882D01*
X160049168Y-58105883D01*
X160044788Y-58106189D01*
X159770030Y-58164591D01*
X159765901Y-58166094D01*
X159765897Y-58166095D01*
X159510219Y-58259154D01*
X159510215Y-58259156D01*
X159506074Y-58260663D01*
X159258058Y-58392536D01*
X159254499Y-58395122D01*
X159254497Y-58395123D01*
X159149895Y-58471121D01*
X159030808Y-58557642D01*
X158828748Y-58752769D01*
X158655812Y-58974118D01*
X158653616Y-58977922D01*
X158653611Y-58977929D01*
X158539794Y-59175067D01*
X158515364Y-59217381D01*
X158410138Y-59477824D01*
X158409073Y-59482097D01*
X158409072Y-59482099D01*
X158375379Y-59617236D01*
X158342183Y-59750376D01*
X158341724Y-59754744D01*
X158341723Y-59754749D01*
X158328011Y-59885212D01*
X158312822Y-60029733D01*
X149491171Y-60029733D01*
X150926134Y-58594770D01*
X152525500Y-56995405D01*
X152587812Y-56961379D01*
X152614595Y-56958500D01*
X191891800Y-56958500D01*
X191959921Y-56978502D01*
X191979147Y-56994843D01*
X191979420Y-56994540D01*
X191984332Y-56998963D01*
X191988747Y-57003866D01*
X192143248Y-57116118D01*
X192149276Y-57118802D01*
X192149278Y-57118803D01*
X192302641Y-57187084D01*
X192317712Y-57193794D01*
X192383445Y-57207766D01*
X192498056Y-57232128D01*
X192498061Y-57232128D01*
X192504513Y-57233500D01*
X192695487Y-57233500D01*
X192701939Y-57232128D01*
X192701944Y-57232128D01*
X192816555Y-57207766D01*
X192882288Y-57193794D01*
X192897359Y-57187084D01*
X193050722Y-57118803D01*
X193050724Y-57118802D01*
X193056752Y-57116118D01*
X193211253Y-57003866D01*
X193234091Y-56978502D01*
X193334621Y-56866852D01*
X193334622Y-56866851D01*
X193339040Y-56861944D01*
X193434527Y-56696556D01*
X193493542Y-56514928D01*
X193513504Y-56325000D01*
X193493542Y-56135072D01*
X193434527Y-55953444D01*
X193431223Y-55947721D01*
X193344493Y-55797500D01*
X193327755Y-55728504D01*
X193350976Y-55661413D01*
X193406783Y-55617526D01*
X193453612Y-55608500D01*
X204240500Y-55608500D01*
X204308621Y-55628502D01*
X204355114Y-55682158D01*
X204366500Y-55734500D01*
X204366500Y-143365500D01*
X204346498Y-143433621D01*
X204292842Y-143480114D01*
X204240500Y-143491500D01*
X116609500Y-143491500D01*
X116541379Y-143471498D01*
X116494886Y-143417842D01*
X116483500Y-143365500D01*
X116483500Y-141222386D01*
X118942759Y-141222386D01*
X118950216Y-141232753D01*
X119189935Y-141426874D01*
X119195272Y-141430751D01*
X119515685Y-141638830D01*
X119521394Y-141642127D01*
X119861811Y-141815578D01*
X119867836Y-141818260D01*
X120224502Y-141955171D01*
X120230784Y-141957212D01*
X120599816Y-142056094D01*
X120606266Y-142057465D01*
X120983629Y-142117234D01*
X120990167Y-142117920D01*
X121371699Y-142137916D01*
X121378301Y-142137916D01*
X121759833Y-142117920D01*
X121766371Y-142117234D01*
X122143734Y-142057465D01*
X122150184Y-142056094D01*
X122519216Y-141957212D01*
X122525498Y-141955171D01*
X122882164Y-141818260D01*
X122888189Y-141815578D01*
X123228606Y-141642127D01*
X123234315Y-141638830D01*
X123554728Y-141430751D01*
X123560065Y-141426874D01*
X123798835Y-141233522D01*
X123806527Y-141222386D01*
X196517759Y-141222386D01*
X196525216Y-141232753D01*
X196764935Y-141426874D01*
X196770272Y-141430751D01*
X197090685Y-141638830D01*
X197096394Y-141642127D01*
X197436811Y-141815578D01*
X197442836Y-141818260D01*
X197799502Y-141955171D01*
X197805784Y-141957212D01*
X198174816Y-142056094D01*
X198181266Y-142057465D01*
X198558629Y-142117234D01*
X198565167Y-142117920D01*
X198946699Y-142137916D01*
X198953301Y-142137916D01*
X199334833Y-142117920D01*
X199341371Y-142117234D01*
X199718734Y-142057465D01*
X199725184Y-142056094D01*
X200094216Y-141957212D01*
X200100498Y-141955171D01*
X200457164Y-141818260D01*
X200463189Y-141815578D01*
X200803606Y-141642127D01*
X200809315Y-141638830D01*
X201129728Y-141430751D01*
X201135065Y-141426874D01*
X201373835Y-141233522D01*
X201382300Y-141221267D01*
X201375966Y-141210176D01*
X198962812Y-138797022D01*
X198948868Y-138789408D01*
X198947035Y-138789539D01*
X198940420Y-138793790D01*
X196524900Y-141209310D01*
X196517759Y-141222386D01*
X123806527Y-141222386D01*
X123807300Y-141221267D01*
X123800966Y-141210176D01*
X121387812Y-138797022D01*
X121373868Y-138789408D01*
X121372035Y-138789539D01*
X121365420Y-138793790D01*
X118949900Y-141209310D01*
X118942759Y-141222386D01*
X116483500Y-141222386D01*
X116483500Y-138428301D01*
X117662084Y-138428301D01*
X117682080Y-138809833D01*
X117682766Y-138816371D01*
X117742535Y-139193734D01*
X117743906Y-139200184D01*
X117842788Y-139569216D01*
X117844829Y-139575498D01*
X117981740Y-139932164D01*
X117984422Y-139938189D01*
X118157872Y-140278603D01*
X118161169Y-140284313D01*
X118369253Y-140604735D01*
X118373123Y-140610061D01*
X118566478Y-140848835D01*
X118578733Y-140857300D01*
X118589824Y-140850966D01*
X121002978Y-138437812D01*
X121009356Y-138426132D01*
X121739408Y-138426132D01*
X121739539Y-138427965D01*
X121743790Y-138434580D01*
X124159310Y-140850100D01*
X124172386Y-140857241D01*
X124182753Y-140849784D01*
X124376877Y-140610061D01*
X124380747Y-140604735D01*
X124588831Y-140284313D01*
X124592128Y-140278603D01*
X124765578Y-139938189D01*
X124768260Y-139932164D01*
X124905171Y-139575498D01*
X124907212Y-139569216D01*
X125006094Y-139200184D01*
X125007465Y-139193734D01*
X125033440Y-139029733D01*
X158312822Y-139029733D01*
X158322625Y-139310458D01*
X158323387Y-139314781D01*
X158323388Y-139314788D01*
X158347164Y-139449624D01*
X158371402Y-139587087D01*
X158458203Y-139854235D01*
X158581340Y-140106702D01*
X158583795Y-140110341D01*
X158583798Y-140110347D01*
X158656890Y-140218710D01*
X158738415Y-140339576D01*
X158926371Y-140548322D01*
X159141550Y-140728879D01*
X159379764Y-140877731D01*
X159636375Y-140991982D01*
X159906390Y-141069407D01*
X159910740Y-141070018D01*
X159910743Y-141070019D01*
X160013690Y-141084487D01*
X160184552Y-141108500D01*
X160395146Y-141108500D01*
X160397332Y-141108347D01*
X160397336Y-141108347D01*
X160600827Y-141094118D01*
X160600832Y-141094117D01*
X160605212Y-141093811D01*
X160879970Y-141035409D01*
X160884099Y-141033906D01*
X160884103Y-141033905D01*
X161139781Y-140940846D01*
X161139785Y-140940844D01*
X161143926Y-140939337D01*
X161391942Y-140807464D01*
X161496896Y-140731211D01*
X161615629Y-140644947D01*
X161615632Y-140644944D01*
X161619192Y-140642358D01*
X161821252Y-140447231D01*
X161994188Y-140225882D01*
X161996384Y-140222078D01*
X161996389Y-140222071D01*
X162132435Y-139986431D01*
X162134636Y-139982619D01*
X162239862Y-139722176D01*
X162273544Y-139587087D01*
X162306753Y-139453893D01*
X162306754Y-139453888D01*
X162307817Y-139449624D01*
X162337178Y-139170267D01*
X162327375Y-138889542D01*
X162311062Y-138797022D01*
X162279360Y-138617236D01*
X162278598Y-138612913D01*
X162218614Y-138428301D01*
X195237084Y-138428301D01*
X195257080Y-138809833D01*
X195257766Y-138816371D01*
X195317535Y-139193734D01*
X195318906Y-139200184D01*
X195417788Y-139569216D01*
X195419829Y-139575498D01*
X195556740Y-139932164D01*
X195559422Y-139938189D01*
X195732872Y-140278603D01*
X195736169Y-140284313D01*
X195944253Y-140604735D01*
X195948123Y-140610061D01*
X196141478Y-140848835D01*
X196153733Y-140857300D01*
X196164824Y-140850966D01*
X198577978Y-138437812D01*
X198584356Y-138426132D01*
X199314408Y-138426132D01*
X199314539Y-138427965D01*
X199318790Y-138434580D01*
X201734310Y-140850100D01*
X201747386Y-140857241D01*
X201757753Y-140849784D01*
X201951877Y-140610061D01*
X201955747Y-140604735D01*
X202163831Y-140284313D01*
X202167128Y-140278603D01*
X202340578Y-139938189D01*
X202343260Y-139932164D01*
X202480171Y-139575498D01*
X202482212Y-139569216D01*
X202581094Y-139200184D01*
X202582465Y-139193734D01*
X202642234Y-138816371D01*
X202642920Y-138809833D01*
X202662916Y-138428301D01*
X202662916Y-138421699D01*
X202642920Y-138040167D01*
X202642234Y-138033629D01*
X202582465Y-137656266D01*
X202581094Y-137649816D01*
X202482212Y-137280784D01*
X202480171Y-137274502D01*
X202343260Y-136917836D01*
X202340578Y-136911811D01*
X202167128Y-136571397D01*
X202163831Y-136565687D01*
X201955747Y-136245265D01*
X201951877Y-136239939D01*
X201758522Y-136001165D01*
X201746267Y-135992700D01*
X201735176Y-135999034D01*
X199322022Y-138412188D01*
X199314408Y-138426132D01*
X198584356Y-138426132D01*
X198585592Y-138423868D01*
X198585461Y-138422035D01*
X198581210Y-138415420D01*
X196165690Y-135999900D01*
X196152614Y-135992759D01*
X196142247Y-136000216D01*
X195948123Y-136239939D01*
X195944253Y-136245265D01*
X195736169Y-136565687D01*
X195732872Y-136571397D01*
X195559422Y-136911811D01*
X195556740Y-136917836D01*
X195419829Y-137274502D01*
X195417788Y-137280784D01*
X195318906Y-137649816D01*
X195317535Y-137656266D01*
X195257766Y-138033629D01*
X195257080Y-138040167D01*
X195237084Y-138421699D01*
X195237084Y-138428301D01*
X162218614Y-138428301D01*
X162191797Y-138345765D01*
X162068660Y-138093298D01*
X162066205Y-138089659D01*
X162066202Y-138089653D01*
X161985935Y-137970653D01*
X161911585Y-137860424D01*
X161723629Y-137651678D01*
X161508450Y-137471121D01*
X161270236Y-137322269D01*
X161013625Y-137208018D01*
X160743610Y-137130593D01*
X160739260Y-137129982D01*
X160739257Y-137129981D01*
X160636310Y-137115513D01*
X160465448Y-137091500D01*
X160254854Y-137091500D01*
X160252668Y-137091653D01*
X160252664Y-137091653D01*
X160049173Y-137105882D01*
X160049168Y-137105883D01*
X160044788Y-137106189D01*
X159770030Y-137164591D01*
X159765901Y-137166094D01*
X159765897Y-137166095D01*
X159510219Y-137259154D01*
X159510215Y-137259156D01*
X159506074Y-137260663D01*
X159258058Y-137392536D01*
X159254499Y-137395122D01*
X159254497Y-137395123D01*
X159149895Y-137471121D01*
X159030808Y-137557642D01*
X158828748Y-137752769D01*
X158655812Y-137974118D01*
X158653616Y-137977922D01*
X158653611Y-137977929D01*
X158539794Y-138175067D01*
X158515364Y-138217381D01*
X158410138Y-138477824D01*
X158409073Y-138482097D01*
X158409072Y-138482099D01*
X158375379Y-138617236D01*
X158342183Y-138750376D01*
X158341724Y-138754744D01*
X158341723Y-138754749D01*
X158328011Y-138885212D01*
X158312822Y-139029733D01*
X125033440Y-139029733D01*
X125067234Y-138816371D01*
X125067920Y-138809833D01*
X125087916Y-138428301D01*
X125087916Y-138421699D01*
X125067920Y-138040167D01*
X125067234Y-138033629D01*
X125007465Y-137656266D01*
X125006094Y-137649816D01*
X124907212Y-137280784D01*
X124905171Y-137274502D01*
X124768260Y-136917836D01*
X124765578Y-136911811D01*
X124592128Y-136571397D01*
X124588831Y-136565687D01*
X124380747Y-136245265D01*
X124376877Y-136239939D01*
X124183522Y-136001165D01*
X124171267Y-135992700D01*
X124160176Y-135999034D01*
X121747022Y-138412188D01*
X121739408Y-138426132D01*
X121009356Y-138426132D01*
X121010592Y-138423868D01*
X121010461Y-138422035D01*
X121006210Y-138415420D01*
X118590690Y-135999900D01*
X118577614Y-135992759D01*
X118567247Y-136000216D01*
X118373123Y-136239939D01*
X118369253Y-136245265D01*
X118161169Y-136565687D01*
X118157872Y-136571397D01*
X117984422Y-136911811D01*
X117981740Y-136917836D01*
X117844829Y-137274502D01*
X117842788Y-137280784D01*
X117743906Y-137649816D01*
X117742535Y-137656266D01*
X117682766Y-138033629D01*
X117682080Y-138040167D01*
X117662084Y-138421699D01*
X117662084Y-138428301D01*
X116483500Y-138428301D01*
X116483500Y-135628733D01*
X118942700Y-135628733D01*
X118949034Y-135639824D01*
X121362188Y-138052978D01*
X121376132Y-138060592D01*
X121377965Y-138060461D01*
X121384580Y-138056210D01*
X123800100Y-135640690D01*
X123807241Y-135627614D01*
X123799784Y-135617247D01*
X123560065Y-135423126D01*
X123554728Y-135419249D01*
X123234315Y-135211170D01*
X123228606Y-135207873D01*
X123011003Y-135096999D01*
X157566500Y-135096999D01*
X157566749Y-135099786D01*
X157566749Y-135099792D01*
X157573009Y-135169929D01*
X157581383Y-135263762D01*
X157640663Y-135480451D01*
X157737378Y-135683218D01*
X157868471Y-135865654D01*
X157872503Y-135869561D01*
X158014080Y-136006759D01*
X158029799Y-136021992D01*
X158216262Y-136147290D01*
X158421967Y-136237588D01*
X158427418Y-136238897D01*
X158427422Y-136238898D01*
X158634954Y-136288722D01*
X158640411Y-136290032D01*
X158700995Y-136293525D01*
X158859083Y-136302640D01*
X158859086Y-136302640D01*
X158864690Y-136302963D01*
X159087715Y-136275975D01*
X159302435Y-136209918D01*
X159307415Y-136207348D01*
X159307419Y-136207346D01*
X159497081Y-136109454D01*
X159497082Y-136109454D01*
X159502064Y-136106882D01*
X159680292Y-135970123D01*
X159831485Y-135803964D01*
X159950864Y-135613656D01*
X159961541Y-135587096D01*
X160567000Y-135587096D01*
X160567337Y-135593611D01*
X160577256Y-135689203D01*
X160580150Y-135702602D01*
X160631588Y-135856783D01*
X160637762Y-135869962D01*
X160723063Y-136007807D01*
X160732099Y-136019208D01*
X160846830Y-136133739D01*
X160858241Y-136142751D01*
X160996245Y-136227818D01*
X161009423Y-136233962D01*
X161163716Y-136285139D01*
X161177081Y-136288005D01*
X161271439Y-136297672D01*
X161277855Y-136298000D01*
X161552885Y-136298000D01*
X161568124Y-136293525D01*
X161569329Y-136292135D01*
X161571000Y-136284452D01*
X161571000Y-136279885D01*
X162079000Y-136279885D01*
X162083475Y-136295124D01*
X162084865Y-136296329D01*
X162092548Y-136298000D01*
X162372096Y-136298000D01*
X162378611Y-136297663D01*
X162474203Y-136287744D01*
X162487602Y-136284850D01*
X162641783Y-136233412D01*
X162654962Y-136227238D01*
X162792807Y-136141937D01*
X162804208Y-136132901D01*
X162918739Y-136018170D01*
X162927751Y-136006759D01*
X163012818Y-135868755D01*
X163018962Y-135855577D01*
X163070139Y-135701284D01*
X163073005Y-135687919D01*
X163079069Y-135628733D01*
X196517700Y-135628733D01*
X196524034Y-135639824D01*
X198937188Y-138052978D01*
X198951132Y-138060592D01*
X198952965Y-138060461D01*
X198959580Y-138056210D01*
X201375100Y-135640690D01*
X201382241Y-135627614D01*
X201374784Y-135617247D01*
X201135065Y-135423126D01*
X201129728Y-135419249D01*
X200809315Y-135211170D01*
X200803606Y-135207873D01*
X200463189Y-135034422D01*
X200457164Y-135031740D01*
X200100498Y-134894829D01*
X200094216Y-134892788D01*
X199725184Y-134793906D01*
X199718734Y-134792535D01*
X199341371Y-134732766D01*
X199334833Y-134732080D01*
X198953301Y-134712084D01*
X198946699Y-134712084D01*
X198565167Y-134732080D01*
X198558629Y-134732766D01*
X198181266Y-134792535D01*
X198174816Y-134793906D01*
X197805784Y-134892788D01*
X197799502Y-134894829D01*
X197442836Y-135031740D01*
X197436811Y-135034422D01*
X197096397Y-135207872D01*
X197090687Y-135211169D01*
X196770265Y-135419253D01*
X196764939Y-135423123D01*
X196526165Y-135616478D01*
X196517700Y-135628733D01*
X163079069Y-135628733D01*
X163082672Y-135593561D01*
X163083000Y-135587145D01*
X163083000Y-135052115D01*
X163078525Y-135036876D01*
X163077135Y-135035671D01*
X163069452Y-135034000D01*
X162097115Y-135034000D01*
X162081876Y-135038475D01*
X162080671Y-135039865D01*
X162079000Y-135047548D01*
X162079000Y-136279885D01*
X161571000Y-136279885D01*
X161571000Y-135052115D01*
X161566525Y-135036876D01*
X161565135Y-135035671D01*
X161557452Y-135034000D01*
X160585115Y-135034000D01*
X160569876Y-135038475D01*
X160568671Y-135039865D01*
X160567000Y-135047548D01*
X160567000Y-135587096D01*
X159961541Y-135587096D01*
X160034656Y-135405217D01*
X160080213Y-135185233D01*
X160083500Y-135128225D01*
X160083500Y-134507885D01*
X160567000Y-134507885D01*
X160571475Y-134523124D01*
X160572865Y-134524329D01*
X160580548Y-134526000D01*
X161552885Y-134526000D01*
X161568124Y-134521525D01*
X161569329Y-134520135D01*
X161571000Y-134512452D01*
X161571000Y-134507885D01*
X162079000Y-134507885D01*
X162083475Y-134523124D01*
X162084865Y-134524329D01*
X162092548Y-134526000D01*
X163064885Y-134526000D01*
X163080124Y-134521525D01*
X163081329Y-134520135D01*
X163083000Y-134512452D01*
X163083000Y-133972904D01*
X163082663Y-133966389D01*
X163072744Y-133870797D01*
X163069850Y-133857398D01*
X163018412Y-133703217D01*
X163012238Y-133690038D01*
X162926937Y-133552193D01*
X162917901Y-133540792D01*
X162803170Y-133426261D01*
X162791759Y-133417249D01*
X162653755Y-133332182D01*
X162640577Y-133326038D01*
X162486284Y-133274861D01*
X162472919Y-133271995D01*
X162378561Y-133262328D01*
X162372144Y-133262000D01*
X162097115Y-133262000D01*
X162081876Y-133266475D01*
X162080671Y-133267865D01*
X162079000Y-133275548D01*
X162079000Y-134507885D01*
X161571000Y-134507885D01*
X161571000Y-133280115D01*
X161566525Y-133264876D01*
X161565135Y-133263671D01*
X161557452Y-133262000D01*
X161277904Y-133262000D01*
X161271389Y-133262337D01*
X161175797Y-133272256D01*
X161162398Y-133275150D01*
X161008217Y-133326588D01*
X160995038Y-133332762D01*
X160857193Y-133418063D01*
X160845792Y-133427099D01*
X160731261Y-133541830D01*
X160722249Y-133553241D01*
X160637182Y-133691245D01*
X160631038Y-133704423D01*
X160579861Y-133858716D01*
X160576995Y-133872081D01*
X160567328Y-133966439D01*
X160567000Y-133972856D01*
X160567000Y-134507885D01*
X160083500Y-134507885D01*
X160083500Y-134463001D01*
X160080551Y-134429952D01*
X160069116Y-134301833D01*
X160068617Y-134296238D01*
X160009337Y-134079549D01*
X159912622Y-133876782D01*
X159781529Y-133694346D01*
X159670207Y-133586467D01*
X159624229Y-133541911D01*
X159624226Y-133541909D01*
X159620201Y-133538008D01*
X159433738Y-133412710D01*
X159228033Y-133322412D01*
X159222582Y-133321103D01*
X159222578Y-133321102D01*
X159015046Y-133271278D01*
X159015045Y-133271278D01*
X159009589Y-133269968D01*
X158921272Y-133264876D01*
X158790917Y-133257360D01*
X158790914Y-133257360D01*
X158785310Y-133257037D01*
X158562285Y-133284025D01*
X158347565Y-133350082D01*
X158342585Y-133352652D01*
X158342581Y-133352654D01*
X158198347Y-133427099D01*
X158147936Y-133453118D01*
X157969708Y-133589877D01*
X157818515Y-133756036D01*
X157699136Y-133946344D01*
X157615344Y-134154783D01*
X157569787Y-134374767D01*
X157566500Y-134431775D01*
X157566500Y-135096999D01*
X123011003Y-135096999D01*
X122888189Y-135034422D01*
X122882164Y-135031740D01*
X122525498Y-134894829D01*
X122519216Y-134892788D01*
X122150184Y-134793906D01*
X122143734Y-134792535D01*
X121766371Y-134732766D01*
X121759833Y-134732080D01*
X121378301Y-134712084D01*
X121371699Y-134712084D01*
X120990167Y-134732080D01*
X120983629Y-134732766D01*
X120606266Y-134792535D01*
X120599816Y-134793906D01*
X120230784Y-134892788D01*
X120224502Y-134894829D01*
X119867836Y-135031740D01*
X119861811Y-135034422D01*
X119521397Y-135207872D01*
X119515687Y-135211169D01*
X119195265Y-135419253D01*
X119189939Y-135423123D01*
X118951165Y-135616478D01*
X118942700Y-135628733D01*
X116483500Y-135628733D01*
X116483500Y-120888314D01*
X158572124Y-120888314D01*
X158572348Y-120892980D01*
X158572348Y-120892985D01*
X158574518Y-120938160D01*
X158584807Y-121152352D01*
X158636378Y-121411616D01*
X158637957Y-121416014D01*
X158637959Y-121416021D01*
X158724121Y-121656001D01*
X158725704Y-121660410D01*
X158727921Y-121664536D01*
X158795301Y-121789936D01*
X158850822Y-121893267D01*
X158853617Y-121897011D01*
X158853619Y-121897013D01*
X158936743Y-122008329D01*
X159008985Y-122105073D01*
X159012292Y-122108351D01*
X159012297Y-122108357D01*
X159111879Y-122207073D01*
X159196718Y-122291174D01*
X159409896Y-122447483D01*
X159414031Y-122449659D01*
X159414035Y-122449661D01*
X159537293Y-122514510D01*
X159643836Y-122570565D01*
X159893400Y-122657716D01*
X159897993Y-122658588D01*
X160148515Y-122706151D01*
X160148518Y-122706151D01*
X160153104Y-122707022D01*
X160285174Y-122712212D01*
X160412575Y-122717218D01*
X160412581Y-122717218D01*
X160417243Y-122717401D01*
X160680015Y-122688622D01*
X160684526Y-122687434D01*
X160684528Y-122687434D01*
X160931124Y-122622511D01*
X160931126Y-122622510D01*
X160935647Y-122621320D01*
X161050191Y-122572108D01*
X161174229Y-122518817D01*
X161174231Y-122518816D01*
X161178523Y-122516972D01*
X161403307Y-122377871D01*
X161419788Y-122363919D01*
X161601496Y-122210093D01*
X161601498Y-122210091D01*
X161605063Y-122207073D01*
X161779356Y-122008329D01*
X161853367Y-121893267D01*
X161919831Y-121789936D01*
X161922359Y-121786006D01*
X162030930Y-121544988D01*
X162102683Y-121290570D01*
X162136043Y-121028340D01*
X162138487Y-120935000D01*
X162118897Y-120671384D01*
X162060557Y-120413559D01*
X162045028Y-120373626D01*
X161966442Y-120171542D01*
X161966441Y-120171540D01*
X161964749Y-120167189D01*
X161938535Y-120121323D01*
X161835897Y-119941745D01*
X161833578Y-119937687D01*
X161669925Y-119730094D01*
X161477385Y-119548970D01*
X161440212Y-119523182D01*
X161264026Y-119400958D01*
X161264021Y-119400955D01*
X161260188Y-119398296D01*
X161255997Y-119396229D01*
X161027294Y-119283445D01*
X161027291Y-119283444D01*
X161023106Y-119281380D01*
X160966150Y-119263148D01*
X160775792Y-119202214D01*
X160775794Y-119202214D01*
X160771347Y-119200791D01*
X160628825Y-119177580D01*
X160515053Y-119159051D01*
X160515052Y-119159051D01*
X160510441Y-119158300D01*
X160378281Y-119156570D01*
X160250798Y-119154901D01*
X160250795Y-119154901D01*
X160246121Y-119154840D01*
X159984192Y-119190486D01*
X159979702Y-119191795D01*
X159979696Y-119191796D01*
X159871732Y-119223265D01*
X159730410Y-119264457D01*
X159726163Y-119266415D01*
X159726160Y-119266416D01*
X159635950Y-119308004D01*
X159490348Y-119375127D01*
X159486439Y-119377690D01*
X159273195Y-119517499D01*
X159273190Y-119517503D01*
X159269282Y-119520065D01*
X159072067Y-119696086D01*
X158903036Y-119899324D01*
X158765901Y-120125314D01*
X158663677Y-120369091D01*
X158662526Y-120373623D01*
X158662525Y-120373626D01*
X158651226Y-120418116D01*
X158598608Y-120625301D01*
X158572124Y-120888314D01*
X116483500Y-120888314D01*
X116483500Y-104425000D01*
X142315786Y-104425000D01*
X142334613Y-104664222D01*
X142335767Y-104669029D01*
X142335768Y-104669035D01*
X142371043Y-104815963D01*
X142390631Y-104897553D01*
X142482460Y-105119249D01*
X142607840Y-105323849D01*
X142763682Y-105506318D01*
X142946151Y-105662160D01*
X143150751Y-105787540D01*
X143155321Y-105789433D01*
X143155323Y-105789434D01*
X143367874Y-105877475D01*
X143372447Y-105879369D01*
X143454037Y-105898957D01*
X143600965Y-105934232D01*
X143600971Y-105934233D01*
X143605778Y-105935387D01*
X143845000Y-105954214D01*
X144084222Y-105935387D01*
X144089029Y-105934233D01*
X144089035Y-105934232D01*
X144235963Y-105898957D01*
X144317553Y-105879369D01*
X144322126Y-105877475D01*
X144534677Y-105789434D01*
X144534679Y-105789433D01*
X144539249Y-105787540D01*
X144743849Y-105662160D01*
X144926318Y-105506318D01*
X145082160Y-105323849D01*
X145207540Y-105119249D01*
X145209468Y-105120430D01*
X145251816Y-105075644D01*
X145315270Y-105058500D01*
X177934730Y-105058500D01*
X178002851Y-105078502D01*
X178040709Y-105120322D01*
X178042460Y-105119249D01*
X178167840Y-105323849D01*
X178323682Y-105506318D01*
X178506151Y-105662160D01*
X178710751Y-105787540D01*
X178715321Y-105789433D01*
X178715323Y-105789434D01*
X178927874Y-105877475D01*
X178932447Y-105879369D01*
X179014037Y-105898957D01*
X179160965Y-105934232D01*
X179160971Y-105934233D01*
X179165778Y-105935387D01*
X179405000Y-105954214D01*
X179644222Y-105935387D01*
X179649029Y-105934233D01*
X179649035Y-105934232D01*
X179795963Y-105898957D01*
X179877553Y-105879369D01*
X179882126Y-105877475D01*
X180094677Y-105789434D01*
X180094679Y-105789433D01*
X180099249Y-105787540D01*
X180303849Y-105662160D01*
X180486318Y-105506318D01*
X180642160Y-105323849D01*
X180767540Y-105119249D01*
X180859369Y-104897553D01*
X180878957Y-104815963D01*
X180914232Y-104669035D01*
X180914233Y-104669029D01*
X180915387Y-104664222D01*
X180934214Y-104425000D01*
X180915387Y-104185778D01*
X180914233Y-104180971D01*
X180914232Y-104180965D01*
X180860524Y-103957259D01*
X180859369Y-103952447D01*
X180767540Y-103730751D01*
X180642160Y-103526151D01*
X180486318Y-103343682D01*
X180303849Y-103187840D01*
X180099249Y-103062460D01*
X180094679Y-103060567D01*
X180094677Y-103060566D01*
X179882126Y-102972525D01*
X179882124Y-102972524D01*
X179877553Y-102970631D01*
X179795963Y-102951043D01*
X179649035Y-102915768D01*
X179649029Y-102915767D01*
X179644222Y-102914613D01*
X179405000Y-102895786D01*
X179165778Y-102914613D01*
X179160971Y-102915767D01*
X179160965Y-102915768D01*
X179014037Y-102951043D01*
X178932447Y-102970631D01*
X178927876Y-102972524D01*
X178927874Y-102972525D01*
X178715323Y-103060566D01*
X178715321Y-103060567D01*
X178710751Y-103062460D01*
X178506151Y-103187840D01*
X178323682Y-103343682D01*
X178167840Y-103526151D01*
X178042460Y-103730751D01*
X178040532Y-103729570D01*
X177998184Y-103774356D01*
X177934730Y-103791500D01*
X145315270Y-103791500D01*
X145247149Y-103771498D01*
X145209291Y-103729678D01*
X145207540Y-103730751D01*
X145084749Y-103530376D01*
X145082160Y-103526151D01*
X144926318Y-103343682D01*
X144743849Y-103187840D01*
X144539249Y-103062460D01*
X144534679Y-103060567D01*
X144534677Y-103060566D01*
X144322126Y-102972525D01*
X144322124Y-102972524D01*
X144317553Y-102970631D01*
X144235963Y-102951043D01*
X144089035Y-102915768D01*
X144089029Y-102915767D01*
X144084222Y-102914613D01*
X143845000Y-102895786D01*
X143605778Y-102914613D01*
X143600971Y-102915767D01*
X143600965Y-102915768D01*
X143454037Y-102951043D01*
X143372447Y-102970631D01*
X143367876Y-102972524D01*
X143367874Y-102972525D01*
X143155323Y-103060566D01*
X143155321Y-103060567D01*
X143150751Y-103062460D01*
X142946151Y-103187840D01*
X142763682Y-103343682D01*
X142607840Y-103526151D01*
X142482460Y-103730751D01*
X142390631Y-103952447D01*
X142389476Y-103957259D01*
X142335768Y-104180965D01*
X142335767Y-104180971D01*
X142334613Y-104185778D01*
X142315786Y-104425000D01*
X116483500Y-104425000D01*
X116483500Y-101885000D01*
X139775786Y-101885000D01*
X139794613Y-102124222D01*
X139795767Y-102129029D01*
X139795768Y-102129035D01*
X139831043Y-102275963D01*
X139850631Y-102357553D01*
X139942460Y-102579249D01*
X140067840Y-102783849D01*
X140223682Y-102966318D01*
X140406151Y-103122160D01*
X140610751Y-103247540D01*
X140615321Y-103249433D01*
X140615323Y-103249434D01*
X140827874Y-103337475D01*
X140832447Y-103339369D01*
X140866082Y-103347444D01*
X141060965Y-103394232D01*
X141060971Y-103394233D01*
X141065778Y-103395387D01*
X141305000Y-103414214D01*
X141544222Y-103395387D01*
X141549029Y-103394233D01*
X141549035Y-103394232D01*
X141743918Y-103347444D01*
X141777553Y-103339369D01*
X141782126Y-103337475D01*
X141994677Y-103249434D01*
X141994679Y-103249433D01*
X141999249Y-103247540D01*
X142203849Y-103122160D01*
X142386318Y-102966318D01*
X142542160Y-102783849D01*
X142667540Y-102579249D01*
X142759369Y-102357553D01*
X142778957Y-102275963D01*
X142814232Y-102129035D01*
X142814233Y-102129029D01*
X142815387Y-102124222D01*
X142834214Y-101885000D01*
X175335786Y-101885000D01*
X175354613Y-102124222D01*
X175355767Y-102129029D01*
X175355768Y-102129035D01*
X175391043Y-102275963D01*
X175410631Y-102357553D01*
X175502460Y-102579249D01*
X175627840Y-102783849D01*
X175783682Y-102966318D01*
X175966151Y-103122160D01*
X176170751Y-103247540D01*
X176175321Y-103249433D01*
X176175323Y-103249434D01*
X176387874Y-103337475D01*
X176392447Y-103339369D01*
X176426082Y-103347444D01*
X176620965Y-103394232D01*
X176620971Y-103394233D01*
X176625778Y-103395387D01*
X176865000Y-103414214D01*
X177104222Y-103395387D01*
X177109029Y-103394233D01*
X177109035Y-103394232D01*
X177303918Y-103347444D01*
X177337553Y-103339369D01*
X177342126Y-103337475D01*
X177554677Y-103249434D01*
X177554679Y-103249433D01*
X177559249Y-103247540D01*
X177763849Y-103122160D01*
X177946318Y-102966318D01*
X178102160Y-102783849D01*
X178227540Y-102579249D01*
X178319369Y-102357553D01*
X178338957Y-102275963D01*
X178374232Y-102129035D01*
X178374233Y-102129029D01*
X178375387Y-102124222D01*
X178394214Y-101885000D01*
X178375387Y-101645778D01*
X178374233Y-101640971D01*
X178374232Y-101640965D01*
X178320524Y-101417259D01*
X178319369Y-101412447D01*
X178227540Y-101190751D01*
X178102160Y-100986151D01*
X177946318Y-100803682D01*
X177763849Y-100647840D01*
X177559249Y-100522460D01*
X177554679Y-100520567D01*
X177554677Y-100520566D01*
X177342126Y-100432525D01*
X177342124Y-100432524D01*
X177337553Y-100430631D01*
X177255963Y-100411043D01*
X177109035Y-100375768D01*
X177109029Y-100375767D01*
X177104222Y-100374613D01*
X176865000Y-100355786D01*
X176625778Y-100374613D01*
X176620971Y-100375767D01*
X176620965Y-100375768D01*
X176474037Y-100411043D01*
X176392447Y-100430631D01*
X176387876Y-100432524D01*
X176387874Y-100432525D01*
X176175323Y-100520566D01*
X176175321Y-100520567D01*
X176170751Y-100522460D01*
X175966151Y-100647840D01*
X175783682Y-100803682D01*
X175627840Y-100986151D01*
X175502460Y-101190751D01*
X175410631Y-101412447D01*
X175409476Y-101417259D01*
X175355768Y-101640965D01*
X175355767Y-101640971D01*
X175354613Y-101645778D01*
X175335786Y-101885000D01*
X142834214Y-101885000D01*
X142815387Y-101645778D01*
X142814233Y-101640971D01*
X142814232Y-101640965D01*
X142760524Y-101417259D01*
X142759369Y-101412447D01*
X142667540Y-101190751D01*
X142542160Y-100986151D01*
X142386318Y-100803682D01*
X142203849Y-100647840D01*
X141999249Y-100522460D01*
X141994679Y-100520567D01*
X141994677Y-100520566D01*
X141782126Y-100432525D01*
X141782124Y-100432524D01*
X141777553Y-100430631D01*
X141695963Y-100411043D01*
X141549035Y-100375768D01*
X141549029Y-100375767D01*
X141544222Y-100374613D01*
X141305000Y-100355786D01*
X141065778Y-100374613D01*
X141060971Y-100375767D01*
X141060965Y-100375768D01*
X140914037Y-100411043D01*
X140832447Y-100430631D01*
X140827876Y-100432524D01*
X140827874Y-100432525D01*
X140615323Y-100520566D01*
X140615321Y-100520567D01*
X140610751Y-100522460D01*
X140406151Y-100647840D01*
X140223682Y-100803682D01*
X140067840Y-100986151D01*
X139942460Y-101190751D01*
X139850631Y-101412447D01*
X139849476Y-101417259D01*
X139795768Y-101640965D01*
X139795767Y-101640971D01*
X139794613Y-101645778D01*
X139775786Y-101885000D01*
X116483500Y-101885000D01*
X116483500Y-85304733D01*
X118967822Y-85304733D01*
X118967975Y-85309121D01*
X118967975Y-85309127D01*
X118973645Y-85471471D01*
X118977625Y-85585458D01*
X118978387Y-85589781D01*
X118978388Y-85589788D01*
X119002916Y-85728893D01*
X119026402Y-85862087D01*
X119113203Y-86129235D01*
X119115131Y-86133188D01*
X119115133Y-86133193D01*
X119134996Y-86173918D01*
X119236340Y-86381702D01*
X119238795Y-86385341D01*
X119238798Y-86385347D01*
X119278631Y-86444401D01*
X119393415Y-86614576D01*
X119396360Y-86617847D01*
X119396361Y-86617848D01*
X119410004Y-86633000D01*
X119581371Y-86823322D01*
X119796550Y-87003879D01*
X120034764Y-87152731D01*
X120291375Y-87266982D01*
X120561390Y-87344407D01*
X120565740Y-87345018D01*
X120565743Y-87345019D01*
X120668690Y-87359487D01*
X120839552Y-87383500D01*
X121050146Y-87383500D01*
X121052332Y-87383347D01*
X121052336Y-87383347D01*
X121255827Y-87369118D01*
X121255832Y-87369117D01*
X121260212Y-87368811D01*
X121534970Y-87310409D01*
X121539099Y-87308906D01*
X121539103Y-87308905D01*
X121794781Y-87215846D01*
X121794785Y-87215844D01*
X121798926Y-87214337D01*
X122046942Y-87082464D01*
X122074405Y-87062511D01*
X122270629Y-86919947D01*
X122270632Y-86919944D01*
X122274192Y-86917358D01*
X122305129Y-86887483D01*
X122473087Y-86725287D01*
X122476252Y-86722231D01*
X122649188Y-86500882D01*
X122651384Y-86497078D01*
X122651389Y-86497071D01*
X122787435Y-86261431D01*
X122789636Y-86257619D01*
X122894862Y-85997176D01*
X122928544Y-85862087D01*
X122961753Y-85728893D01*
X122961754Y-85728888D01*
X122962817Y-85724624D01*
X122970964Y-85647115D01*
X122971425Y-85642728D01*
X123806114Y-85642728D01*
X123806166Y-85642973D01*
X123868898Y-85846883D01*
X123873119Y-85857229D01*
X123970971Y-86046814D01*
X123976957Y-86056245D01*
X124106832Y-86225501D01*
X124114393Y-86233724D01*
X124272194Y-86377312D01*
X124281094Y-86384067D01*
X124461815Y-86497434D01*
X124471781Y-86502511D01*
X124669714Y-86582080D01*
X124680429Y-86585315D01*
X124890301Y-86628777D01*
X124899438Y-86629980D01*
X124949990Y-86632895D01*
X124953637Y-86633000D01*
X125027885Y-86633000D01*
X125043124Y-86628525D01*
X125044329Y-86627135D01*
X125046000Y-86619452D01*
X125046000Y-86614885D01*
X125554000Y-86614885D01*
X125558475Y-86630124D01*
X125559865Y-86631329D01*
X125567548Y-86633000D01*
X125614175Y-86633000D01*
X125619770Y-86632751D01*
X125778078Y-86618622D01*
X125789092Y-86616640D01*
X125994860Y-86560349D01*
X126005341Y-86556451D01*
X126197903Y-86464603D01*
X126207516Y-86458918D01*
X126380767Y-86334425D01*
X126389233Y-86327117D01*
X126537692Y-86173918D01*
X126544735Y-86165221D01*
X126663719Y-85988156D01*
X126669105Y-85978358D01*
X126754857Y-85783010D01*
X126758422Y-85772418D01*
X126788624Y-85646616D01*
X126787919Y-85632530D01*
X126779040Y-85629000D01*
X125572115Y-85629000D01*
X125556876Y-85633475D01*
X125555671Y-85634865D01*
X125554000Y-85642548D01*
X125554000Y-86614885D01*
X125046000Y-86614885D01*
X125046000Y-85647115D01*
X125041525Y-85631876D01*
X125040135Y-85630671D01*
X125032452Y-85629000D01*
X123821589Y-85629000D01*
X123807607Y-85633105D01*
X123806114Y-85642728D01*
X122971425Y-85642728D01*
X122991719Y-85449636D01*
X122991719Y-85449633D01*
X122992178Y-85445267D01*
X122989835Y-85378160D01*
X122982529Y-85168939D01*
X122982528Y-85168933D01*
X122982375Y-85164542D01*
X122974698Y-85121000D01*
X122971592Y-85103384D01*
X123811376Y-85103384D01*
X123812081Y-85117470D01*
X123820960Y-85121000D01*
X125027885Y-85121000D01*
X125043124Y-85116525D01*
X125044329Y-85115135D01*
X125046000Y-85107452D01*
X125046000Y-85102885D01*
X125554000Y-85102885D01*
X125558475Y-85118124D01*
X125559865Y-85119329D01*
X125567548Y-85121000D01*
X126778411Y-85121000D01*
X126792393Y-85116895D01*
X126793886Y-85107272D01*
X126793834Y-85107027D01*
X126731102Y-84903117D01*
X126726881Y-84892771D01*
X126629029Y-84703186D01*
X126623043Y-84693755D01*
X126493168Y-84524499D01*
X126485607Y-84516276D01*
X126327806Y-84372688D01*
X126318906Y-84365933D01*
X126138185Y-84252566D01*
X126128219Y-84247489D01*
X125930286Y-84167920D01*
X125919571Y-84164685D01*
X125709699Y-84121223D01*
X125700562Y-84120020D01*
X125650010Y-84117105D01*
X125646363Y-84117000D01*
X125572115Y-84117000D01*
X125556876Y-84121475D01*
X125555671Y-84122865D01*
X125554000Y-84130548D01*
X125554000Y-85102885D01*
X125046000Y-85102885D01*
X125046000Y-84135115D01*
X125041525Y-84119876D01*
X125040135Y-84118671D01*
X125032452Y-84117000D01*
X124985825Y-84117000D01*
X124980230Y-84117249D01*
X124821922Y-84131378D01*
X124810908Y-84133360D01*
X124605140Y-84189651D01*
X124594659Y-84193549D01*
X124402097Y-84285397D01*
X124392484Y-84291082D01*
X124219233Y-84415575D01*
X124210767Y-84422883D01*
X124062308Y-84576082D01*
X124055265Y-84584779D01*
X123936281Y-84761844D01*
X123930895Y-84771642D01*
X123845143Y-84966990D01*
X123841578Y-84977582D01*
X123811376Y-85103384D01*
X122971592Y-85103384D01*
X122936279Y-84903117D01*
X122933598Y-84887913D01*
X122846797Y-84620765D01*
X122838198Y-84603133D01*
X122750283Y-84422883D01*
X122723660Y-84368298D01*
X122721205Y-84364659D01*
X122721202Y-84364653D01*
X122640935Y-84245653D01*
X122566585Y-84135424D01*
X122552586Y-84119876D01*
X122381566Y-83929940D01*
X122378629Y-83926678D01*
X122163450Y-83746121D01*
X121925236Y-83597269D01*
X121668625Y-83483018D01*
X121398610Y-83405593D01*
X121394260Y-83404982D01*
X121394257Y-83404981D01*
X121291310Y-83390513D01*
X121120448Y-83366500D01*
X120909854Y-83366500D01*
X120907668Y-83366653D01*
X120907664Y-83366653D01*
X120704173Y-83380882D01*
X120704168Y-83380883D01*
X120699788Y-83381189D01*
X120425030Y-83439591D01*
X120420901Y-83441094D01*
X120420897Y-83441095D01*
X120165219Y-83534154D01*
X120165215Y-83534156D01*
X120161074Y-83535663D01*
X119913058Y-83667536D01*
X119909499Y-83670122D01*
X119909497Y-83670123D01*
X119706388Y-83817690D01*
X119685808Y-83832642D01*
X119682644Y-83835698D01*
X119682641Y-83835700D01*
X119593864Y-83921431D01*
X119483748Y-84027769D01*
X119310812Y-84249118D01*
X119308616Y-84252922D01*
X119308611Y-84252929D01*
X119214708Y-84415575D01*
X119170364Y-84492381D01*
X119065138Y-84752824D01*
X119064073Y-84757097D01*
X119064072Y-84757099D01*
X119027666Y-84903117D01*
X118997183Y-85025376D01*
X118996724Y-85029744D01*
X118996723Y-85029749D01*
X118983011Y-85160212D01*
X118967822Y-85304733D01*
X116483500Y-85304733D01*
X116483500Y-82414690D01*
X123777037Y-82414690D01*
X123804025Y-82637715D01*
X123870082Y-82852435D01*
X123872652Y-82857415D01*
X123872654Y-82857419D01*
X123937852Y-82983738D01*
X123973118Y-83052064D01*
X124109877Y-83230292D01*
X124276036Y-83381485D01*
X124280783Y-83384463D01*
X124280786Y-83384465D01*
X124461595Y-83497885D01*
X124466344Y-83500864D01*
X124674783Y-83584656D01*
X124894767Y-83630213D01*
X124899378Y-83630479D01*
X124899379Y-83630479D01*
X124949952Y-83633395D01*
X124949956Y-83633395D01*
X124951775Y-83633500D01*
X125616999Y-83633500D01*
X125619786Y-83633251D01*
X125619792Y-83633251D01*
X125689929Y-83626991D01*
X125783762Y-83618617D01*
X125789176Y-83617136D01*
X125789181Y-83617135D01*
X125916912Y-83582191D01*
X126000451Y-83559337D01*
X126005509Y-83556925D01*
X126005513Y-83556923D01*
X126123042Y-83500864D01*
X126203218Y-83462622D01*
X126385654Y-83331529D01*
X126541992Y-83170201D01*
X126667290Y-82983738D01*
X126757588Y-82778033D01*
X126810032Y-82559589D01*
X126822963Y-82335310D01*
X126795975Y-82112285D01*
X126729918Y-81897565D01*
X126664798Y-81771396D01*
X126629454Y-81702919D01*
X126629454Y-81702918D01*
X126626882Y-81697936D01*
X126490123Y-81519708D01*
X126323964Y-81368515D01*
X126319217Y-81365537D01*
X126319214Y-81365535D01*
X126138405Y-81252115D01*
X126133656Y-81249136D01*
X125925217Y-81165344D01*
X125705233Y-81119787D01*
X125700622Y-81119521D01*
X125700621Y-81119521D01*
X125650048Y-81116605D01*
X125650044Y-81116605D01*
X125648225Y-81116500D01*
X124983001Y-81116500D01*
X124980214Y-81116749D01*
X124980208Y-81116749D01*
X124910071Y-81123009D01*
X124816238Y-81131383D01*
X124810824Y-81132864D01*
X124810819Y-81132865D01*
X124696262Y-81164205D01*
X124599549Y-81190663D01*
X124594491Y-81193075D01*
X124594487Y-81193077D01*
X124498166Y-81239020D01*
X124396782Y-81287378D01*
X124214346Y-81418471D01*
X124058008Y-81579799D01*
X123932710Y-81766262D01*
X123842412Y-81971967D01*
X123789968Y-82190411D01*
X123777037Y-82414690D01*
X116483500Y-82414690D01*
X116483500Y-63697386D01*
X118942759Y-63697386D01*
X118950216Y-63707753D01*
X119189935Y-63901874D01*
X119195272Y-63905751D01*
X119515685Y-64113830D01*
X119521394Y-64117127D01*
X119861811Y-64290578D01*
X119867836Y-64293260D01*
X120224502Y-64430171D01*
X120230784Y-64432212D01*
X120599816Y-64531094D01*
X120606266Y-64532465D01*
X120983629Y-64592234D01*
X120990167Y-64592920D01*
X121371699Y-64612916D01*
X121378301Y-64612916D01*
X121759833Y-64592920D01*
X121766371Y-64592234D01*
X122143734Y-64532465D01*
X122150184Y-64531094D01*
X122519216Y-64432212D01*
X122525498Y-64430171D01*
X122882164Y-64293260D01*
X122888189Y-64290578D01*
X123228606Y-64117127D01*
X123234315Y-64113830D01*
X123554728Y-63905751D01*
X123560065Y-63901874D01*
X123798835Y-63708522D01*
X123807300Y-63696267D01*
X123800966Y-63685176D01*
X121387812Y-61272022D01*
X121373868Y-61264408D01*
X121372035Y-61264539D01*
X121365420Y-61268790D01*
X118949900Y-63684310D01*
X118942759Y-63697386D01*
X116483500Y-63697386D01*
X116483500Y-60903301D01*
X117662084Y-60903301D01*
X117682080Y-61284833D01*
X117682766Y-61291371D01*
X117742535Y-61668734D01*
X117743906Y-61675184D01*
X117842788Y-62044216D01*
X117844829Y-62050498D01*
X117981740Y-62407164D01*
X117984422Y-62413189D01*
X118157872Y-62753603D01*
X118161169Y-62759313D01*
X118369253Y-63079735D01*
X118373123Y-63085061D01*
X118566478Y-63323835D01*
X118578733Y-63332300D01*
X118589824Y-63325966D01*
X121002978Y-60912812D01*
X121009356Y-60901132D01*
X121739408Y-60901132D01*
X121739539Y-60902965D01*
X121743790Y-60909580D01*
X124159310Y-63325100D01*
X124172386Y-63332241D01*
X124182753Y-63324784D01*
X124376877Y-63085061D01*
X124380747Y-63079735D01*
X124588831Y-62759313D01*
X124592128Y-62753603D01*
X124765578Y-62413189D01*
X124768260Y-62407164D01*
X124905171Y-62050498D01*
X124907212Y-62044216D01*
X125006094Y-61675184D01*
X125007465Y-61668734D01*
X125067234Y-61291371D01*
X125067920Y-61284833D01*
X125087916Y-60903301D01*
X125087916Y-60896699D01*
X125067920Y-60515167D01*
X125067234Y-60508629D01*
X125007465Y-60131266D01*
X125006094Y-60124816D01*
X124907212Y-59755784D01*
X124905171Y-59749502D01*
X124768260Y-59392836D01*
X124765578Y-59386811D01*
X124592128Y-59046397D01*
X124588831Y-59040687D01*
X124380747Y-58720265D01*
X124376877Y-58714939D01*
X124183522Y-58476165D01*
X124171267Y-58467700D01*
X124160176Y-58474034D01*
X121747022Y-60887188D01*
X121739408Y-60901132D01*
X121009356Y-60901132D01*
X121010592Y-60898868D01*
X121010461Y-60897035D01*
X121006210Y-60890420D01*
X118590690Y-58474900D01*
X118577614Y-58467759D01*
X118567247Y-58475216D01*
X118373123Y-58714939D01*
X118369253Y-58720265D01*
X118161169Y-59040687D01*
X118157872Y-59046397D01*
X117984422Y-59386811D01*
X117981740Y-59392836D01*
X117844829Y-59749502D01*
X117842788Y-59755784D01*
X117743906Y-60124816D01*
X117742535Y-60131266D01*
X117682766Y-60508629D01*
X117682080Y-60515167D01*
X117662084Y-60896699D01*
X117662084Y-60903301D01*
X116483500Y-60903301D01*
X116483500Y-58103733D01*
X118942700Y-58103733D01*
X118949034Y-58114824D01*
X121362188Y-60527978D01*
X121376132Y-60535592D01*
X121377965Y-60535461D01*
X121384580Y-60531210D01*
X123800100Y-58115690D01*
X123807241Y-58102614D01*
X123799784Y-58092247D01*
X123560065Y-57898126D01*
X123554728Y-57894249D01*
X123234315Y-57686170D01*
X123228606Y-57682873D01*
X122888189Y-57509422D01*
X122882164Y-57506740D01*
X122525498Y-57369829D01*
X122519216Y-57367788D01*
X122150184Y-57268906D01*
X122143734Y-57267535D01*
X121766371Y-57207766D01*
X121759833Y-57207080D01*
X121378301Y-57187084D01*
X121371699Y-57187084D01*
X120990167Y-57207080D01*
X120983629Y-57207766D01*
X120606266Y-57267535D01*
X120599816Y-57268906D01*
X120230784Y-57367788D01*
X120224502Y-57369829D01*
X119867836Y-57506740D01*
X119861811Y-57509422D01*
X119521397Y-57682872D01*
X119515687Y-57686169D01*
X119195265Y-57894253D01*
X119189939Y-57898123D01*
X118951165Y-58091478D01*
X118942700Y-58103733D01*
X116483500Y-58103733D01*
X116483500Y-55734500D01*
X116503502Y-55666379D01*
X116557158Y-55619886D01*
X116609500Y-55608500D01*
X151816406Y-55608500D01*
X151884527Y-55628502D01*
G37*
%TD.AperFunction*%
%TD*%
M02*
