%TF.GenerationSoftware,KiCad,Pcbnew,(6.0.11)*%
%TF.CreationDate,2023-02-16T11:16:18-05:00*%
%TF.ProjectId,DCT_HV_Widget,4443545f-4856-45f5-9769-646765742e6b,rev?*%
%TF.SameCoordinates,Original*%
%TF.FileFunction,Legend,Bot*%
%TF.FilePolarity,Positive*%
%FSLAX46Y46*%
G04 Gerber Fmt 4.6, Leading zero omitted, Abs format (unit mm)*
G04 Created by KiCad (PCBNEW (6.0.11)) date 2023-02-16 11:16:18*
%MOMM*%
%LPD*%
G01*
G04 APERTURE LIST*
%ADD10C,0.152400*%
%ADD11C,0.354000*%
%ADD12C,0.101600*%
G04 APERTURE END LIST*
D10*
%TO.C,U2*%
X162919190Y-102598619D02*
X162725666Y-102598619D01*
X162628904Y-102647000D01*
X162532142Y-102743761D01*
X162483761Y-102937285D01*
X162483761Y-103275952D01*
X162532142Y-103469476D01*
X162628904Y-103566238D01*
X162725666Y-103614619D01*
X162919190Y-103614619D01*
X163015952Y-103566238D01*
X163112714Y-103469476D01*
X163161095Y-103275952D01*
X163161095Y-102937285D01*
X163112714Y-102743761D01*
X163015952Y-102647000D01*
X162919190Y-102598619D01*
X161467761Y-103517857D02*
X161516142Y-103566238D01*
X161661285Y-103614619D01*
X161758047Y-103614619D01*
X161903190Y-103566238D01*
X161999952Y-103469476D01*
X162048333Y-103372714D01*
X162096714Y-103179190D01*
X162096714Y-103034047D01*
X162048333Y-102840523D01*
X161999952Y-102743761D01*
X161903190Y-102647000D01*
X161758047Y-102598619D01*
X161661285Y-102598619D01*
X161516142Y-102647000D01*
X161467761Y-102695380D01*
X160500142Y-103614619D02*
X161080714Y-103614619D01*
X160790428Y-103614619D02*
X160790428Y-102598619D01*
X160887190Y-102743761D01*
X160983952Y-102840523D01*
X161080714Y-102888904D01*
X159580904Y-102598619D02*
X160064714Y-102598619D01*
X160113095Y-103082428D01*
X160064714Y-103034047D01*
X159967952Y-102985666D01*
X159726047Y-102985666D01*
X159629285Y-103034047D01*
X159580904Y-103082428D01*
X159532523Y-103179190D01*
X159532523Y-103421095D01*
X159580904Y-103517857D01*
X159629285Y-103566238D01*
X159726047Y-103614619D01*
X159967952Y-103614619D01*
X160064714Y-103566238D01*
X160113095Y-103517857D01*
X158903571Y-102598619D02*
X158806809Y-102598619D01*
X158710047Y-102647000D01*
X158661666Y-102695380D01*
X158613285Y-102792142D01*
X158564904Y-102985666D01*
X158564904Y-103227571D01*
X158613285Y-103421095D01*
X158661666Y-103517857D01*
X158710047Y-103566238D01*
X158806809Y-103614619D01*
X158903571Y-103614619D01*
X159000333Y-103566238D01*
X159048714Y-103517857D01*
X159097095Y-103421095D01*
X159145476Y-103227571D01*
X159145476Y-102985666D01*
X159097095Y-102792142D01*
X159048714Y-102695380D01*
X159000333Y-102647000D01*
X158903571Y-102598619D01*
X157597285Y-102647000D02*
X157694047Y-102598619D01*
X157839190Y-102598619D01*
X157984333Y-102647000D01*
X158081095Y-102743761D01*
X158129476Y-102840523D01*
X158177857Y-103034047D01*
X158177857Y-103179190D01*
X158129476Y-103372714D01*
X158081095Y-103469476D01*
X157984333Y-103566238D01*
X157839190Y-103614619D01*
X157742428Y-103614619D01*
X157597285Y-103566238D01*
X157548904Y-103517857D01*
X157548904Y-103179190D01*
X157742428Y-103179190D01*
X178783666Y-100428619D02*
X178154714Y-100428619D01*
X178493380Y-100815666D01*
X178348238Y-100815666D01*
X178251476Y-100864047D01*
X178203095Y-100912428D01*
X178154714Y-101009190D01*
X178154714Y-101251095D01*
X178203095Y-101347857D01*
X178251476Y-101396238D01*
X178348238Y-101444619D01*
X178638523Y-101444619D01*
X178735285Y-101396238D01*
X178783666Y-101347857D01*
X142595285Y-104965380D02*
X142546904Y-104917000D01*
X142450142Y-104868619D01*
X142208238Y-104868619D01*
X142111476Y-104917000D01*
X142063095Y-104965380D01*
X142014714Y-105062142D01*
X142014714Y-105158904D01*
X142063095Y-105304047D01*
X142643666Y-105884619D01*
X142014714Y-105884619D01*
X158583095Y-86268619D02*
X159066904Y-86268619D01*
X159115285Y-86752428D01*
X159066904Y-86704047D01*
X158970142Y-86655666D01*
X158728238Y-86655666D01*
X158631476Y-86704047D01*
X158583095Y-86752428D01*
X158534714Y-86849190D01*
X158534714Y-87091095D01*
X158583095Y-87187857D01*
X158631476Y-87236238D01*
X158728238Y-87284619D01*
X158970142Y-87284619D01*
X159066904Y-87236238D01*
X159115285Y-87187857D01*
X180521476Y-105207285D02*
X180521476Y-105884619D01*
X180763380Y-104820238D02*
X181005285Y-105545952D01*
X180376333Y-105545952D01*
X161581476Y-118893619D02*
X161775000Y-118893619D01*
X161871761Y-118942000D01*
X161920142Y-118990380D01*
X162016904Y-119135523D01*
X162065285Y-119329047D01*
X162065285Y-119716095D01*
X162016904Y-119812857D01*
X161968523Y-119861238D01*
X161871761Y-119909619D01*
X161678238Y-119909619D01*
X161581476Y-119861238D01*
X161533095Y-119812857D01*
X161484714Y-119716095D01*
X161484714Y-119474190D01*
X161533095Y-119377428D01*
X161581476Y-119329047D01*
X161678238Y-119280666D01*
X161871761Y-119280666D01*
X161968523Y-119329047D01*
X162016904Y-119377428D01*
X162065285Y-119474190D01*
X139454714Y-101444619D02*
X140035285Y-101444619D01*
X139745000Y-101444619D02*
X139745000Y-100428619D01*
X139841761Y-100573761D01*
X139938523Y-100670523D01*
X140035285Y-100718904D01*
D11*
X149102000Y-101885000D02*
G75*
G03*
X149102000Y-101885000I-177000J0D01*
G01*
D12*
X174325000Y-96170000D02*
X146385000Y-96170000D01*
X146385000Y-96170000D02*
X146385000Y-110140000D01*
X146385000Y-110140000D02*
X174325000Y-110140000D01*
X174325000Y-110140000D02*
X174325000Y-96170000D01*
X181855000Y-106330000D02*
X173055000Y-106330000D01*
X173055000Y-106330000D02*
X173055000Y-99980000D01*
X173055000Y-99980000D02*
X181855000Y-99980000D01*
X181855000Y-99980000D02*
X181855000Y-106330000D01*
X163530000Y-83155000D02*
X157180000Y-83155000D01*
X157180000Y-83155000D02*
X157180000Y-97440000D01*
X157180000Y-97440000D02*
X163530000Y-97440000D01*
X163530000Y-97440000D02*
X163530000Y-83155000D01*
X147655000Y-106330000D02*
X138855000Y-106330000D01*
X138855000Y-106330000D02*
X138855000Y-99980000D01*
X138855000Y-99980000D02*
X147655000Y-99980000D01*
X147655000Y-99980000D02*
X147655000Y-106330000D01*
X163530000Y-108870000D02*
X157180000Y-108870000D01*
X157180000Y-108870000D02*
X157180000Y-123155000D01*
X157180000Y-123155000D02*
X163530000Y-123155000D01*
X163530000Y-123155000D02*
X163530000Y-108870000D01*
X173055000Y-108870000D02*
X147655000Y-108870000D01*
X173055000Y-97440000D02*
X173055000Y-108870000D01*
X173055000Y-97440000D02*
X147655000Y-97440000D01*
X147655000Y-97440000D02*
X147655000Y-108870000D01*
%TD*%
M02*
