%TF.GenerationSoftware,KiCad,Pcbnew,6.0.9-8da3e8f707~117~ubuntu20.04.1*%
%TF.CreationDate,2023-03-07T09:11:42-05:00*%
%TF.ProjectId,DCT_HV_Widget,4443545f-4856-45f5-9769-646765742e6b,rev?*%
%TF.SameCoordinates,Original*%
%TF.FileFunction,Paste,Top*%
%TF.FilePolarity,Positive*%
%FSLAX46Y46*%
G04 Gerber Fmt 4.6, Leading zero omitted, Abs format (unit mm)*
G04 Created by KiCad (PCBNEW 6.0.9-8da3e8f707~117~ubuntu20.04.1) date 2023-03-07 09:11:42*
%MOMM*%
%LPD*%
G01*
G04 APERTURE LIST*
G04 Aperture macros list*
%AMRoundRect*
0 Rectangle with rounded corners*
0 $1 Rounding radius*
0 $2 $3 $4 $5 $6 $7 $8 $9 X,Y pos of 4 corners*
0 Add a 4 corners polygon primitive as box body*
4,1,4,$2,$3,$4,$5,$6,$7,$8,$9,$2,$3,0*
0 Add four circle primitives for the rounded corners*
1,1,$1+$1,$2,$3*
1,1,$1+$1,$4,$5*
1,1,$1+$1,$6,$7*
1,1,$1+$1,$8,$9*
0 Add four rect primitives between the rounded corners*
20,1,$1+$1,$2,$3,$4,$5,0*
20,1,$1+$1,$4,$5,$6,$7,0*
20,1,$1+$1,$6,$7,$8,$9,0*
20,1,$1+$1,$8,$9,$2,$3,0*%
G04 Aperture macros list end*
%ADD10C,0.040000*%
%ADD11RoundRect,0.225000X0.225000X0.250000X-0.225000X0.250000X-0.225000X-0.250000X0.225000X-0.250000X0*%
%ADD12RoundRect,0.200000X-0.200000X-0.275000X0.200000X-0.275000X0.200000X0.275000X-0.200000X0.275000X0*%
%ADD13RoundRect,0.200000X0.275000X-0.200000X0.275000X0.200000X-0.275000X0.200000X-0.275000X-0.200000X0*%
%ADD14RoundRect,0.250000X-0.925000X0.412500X-0.925000X-0.412500X0.925000X-0.412500X0.925000X0.412500X0*%
%ADD15R,0.533400X1.460500*%
%ADD16R,0.900000X1.300000*%
%ADD17R,1.732000X3.125000*%
%ADD18R,0.900000X1.475000*%
%ADD19RoundRect,0.225000X0.250000X-0.225000X0.250000X0.225000X-0.250000X0.225000X-0.250000X-0.225000X0*%
%ADD20RoundRect,0.200000X0.200000X0.275000X-0.200000X0.275000X-0.200000X-0.275000X0.200000X-0.275000X0*%
%ADD21R,0.600000X0.550000*%
%ADD22RoundRect,0.200000X-0.275000X0.200000X-0.275000X-0.200000X0.275000X-0.200000X0.275000X0.200000X0*%
G04 APERTURE END LIST*
D10*
%TO.C,Q1*%
X152184000Y-89992500D02*
X153916000Y-89992500D01*
X153916000Y-89992500D02*
X153916000Y-93117500D01*
X153916000Y-93117500D02*
X152184000Y-93117500D01*
X152184000Y-93117500D02*
X152184000Y-89992500D01*
G36*
X152184000Y-89992500D02*
G01*
X153916000Y-89992500D01*
X153916000Y-93117500D01*
X152184000Y-93117500D01*
X152184000Y-89992500D01*
G37*
%TD*%
D11*
%TO.C,C4*%
X174365000Y-76800000D03*
X172815000Y-76800000D03*
%TD*%
D12*
%TO.C,R1*%
X155575000Y-87200000D03*
X157225000Y-87200000D03*
%TD*%
D13*
%TO.C,R4*%
X171300000Y-85661000D03*
X171300000Y-84011000D03*
%TD*%
D14*
%TO.C,C6*%
X146950000Y-90650000D03*
X146950000Y-93725000D03*
%TD*%
D15*
%TO.C,U1*%
X173095000Y-84424150D03*
X174365000Y-84424150D03*
X175635000Y-84424150D03*
X176905000Y-84424150D03*
X176905000Y-78975850D03*
X175635000Y-78975850D03*
X174365000Y-78975850D03*
X173095000Y-78975850D03*
%TD*%
D16*
%TO.C,Q1*%
X154540000Y-93942500D03*
X151550000Y-93942500D03*
D17*
X153050000Y-91555000D03*
D18*
X153050000Y-93855000D03*
%TD*%
D19*
%TO.C,C1*%
X171300000Y-82475000D03*
X171300000Y-80925000D03*
%TD*%
D20*
%TO.C,R3*%
X155575000Y-84100000D03*
X153925000Y-84100000D03*
%TD*%
D21*
%TO.C,D1*%
X159055000Y-85725000D03*
X160355000Y-85725000D03*
X159705000Y-83875000D03*
%TD*%
D22*
%TO.C,R6*%
X175600000Y-89875000D03*
X175600000Y-91525000D03*
%TD*%
D14*
%TO.C,C5*%
X146950000Y-81575000D03*
X146950000Y-84650000D03*
%TD*%
D13*
%TO.C,R2*%
X174365000Y-88150000D03*
X174365000Y-86500000D03*
%TD*%
D19*
%TO.C,C2*%
X169672000Y-82475000D03*
X169672000Y-80925000D03*
%TD*%
D11*
%TO.C,C3*%
X178455000Y-86500000D03*
X176905000Y-86500000D03*
%TD*%
M02*
