%TF.GenerationSoftware,KiCad,Pcbnew,(6.0.11)*%
%TF.CreationDate,2023-02-16T11:16:17-05:00*%
%TF.ProjectId,DCT_HV_Widget,4443545f-4856-45f5-9769-646765742e6b,rev?*%
%TF.SameCoordinates,Original*%
%TF.FileFunction,Paste,Top*%
%TF.FilePolarity,Positive*%
%FSLAX46Y46*%
G04 Gerber Fmt 4.6, Leading zero omitted, Abs format (unit mm)*
G04 Created by KiCad (PCBNEW (6.0.11)) date 2023-02-16 11:16:17*
%MOMM*%
%LPD*%
G01*
G04 APERTURE LIST*
G04 Aperture macros list*
%AMRoundRect*
0 Rectangle with rounded corners*
0 $1 Rounding radius*
0 $2 $3 $4 $5 $6 $7 $8 $9 X,Y pos of 4 corners*
0 Add a 4 corners polygon primitive as box body*
4,1,4,$2,$3,$4,$5,$6,$7,$8,$9,$2,$3,0*
0 Add four circle primitives for the rounded corners*
1,1,$1+$1,$2,$3*
1,1,$1+$1,$4,$5*
1,1,$1+$1,$6,$7*
1,1,$1+$1,$8,$9*
0 Add four rect primitives between the rounded corners*
20,1,$1+$1,$2,$3,$4,$5,0*
20,1,$1+$1,$4,$5,$6,$7,0*
20,1,$1+$1,$6,$7,$8,$9,0*
20,1,$1+$1,$8,$9,$2,$3,0*%
G04 Aperture macros list end*
%ADD10C,0.040000*%
%ADD11R,0.550000X0.600000*%
%ADD12R,1.732000X3.125000*%
%ADD13R,0.900000X1.475000*%
%ADD14R,0.900000X1.300000*%
%ADD15RoundRect,0.225000X0.250000X-0.225000X0.250000X0.225000X-0.250000X0.225000X-0.250000X-0.225000X0*%
%ADD16RoundRect,0.200000X-0.275000X0.200000X-0.275000X-0.200000X0.275000X-0.200000X0.275000X0.200000X0*%
%ADD17RoundRect,0.200000X-0.200000X-0.275000X0.200000X-0.275000X0.200000X0.275000X-0.200000X0.275000X0*%
%ADD18RoundRect,0.250000X-0.925000X0.412500X-0.925000X-0.412500X0.925000X-0.412500X0.925000X0.412500X0*%
%ADD19R,1.460500X0.533400*%
%ADD20RoundRect,0.225000X-0.225000X-0.250000X0.225000X-0.250000X0.225000X0.250000X-0.225000X0.250000X0*%
%ADD21RoundRect,0.200000X0.200000X0.275000X-0.200000X0.275000X-0.200000X-0.275000X0.200000X-0.275000X0*%
G04 APERTURE END LIST*
D10*
%TO.C,Q1*%
X140509000Y-86812500D02*
X142241000Y-86812500D01*
X142241000Y-86812500D02*
X142241000Y-89937500D01*
X142241000Y-89937500D02*
X140509000Y-89937500D01*
X140509000Y-89937500D02*
X140509000Y-86812500D01*
G36*
X140509000Y-86812500D02*
G01*
X142241000Y-86812500D01*
X142241000Y-89937500D01*
X140509000Y-89937500D01*
X140509000Y-86812500D01*
G37*
%TD*%
D11*
%TO.C,D1*%
X151850000Y-78075000D03*
X151850000Y-76775000D03*
X150000000Y-77425000D03*
%TD*%
D12*
%TO.C,Q1*%
X141375000Y-88375000D03*
D13*
X141375000Y-90675000D03*
D14*
X139875000Y-90762500D03*
X142865000Y-90762500D03*
%TD*%
D15*
%TO.C,C4*%
X191700000Y-64925000D03*
X191700000Y-63375000D03*
%TD*%
D16*
%TO.C,R1*%
X158825000Y-73700000D03*
X158825000Y-72050000D03*
%TD*%
D17*
%TO.C,R4*%
X183300000Y-60600000D03*
X184950000Y-60600000D03*
%TD*%
D18*
%TO.C,C6*%
X129450000Y-88375000D03*
X129450000Y-91450000D03*
%TD*%
D19*
%TO.C,U1*%
X184125850Y-63660000D03*
X184125850Y-64930000D03*
X184125850Y-66200000D03*
X184125850Y-67470000D03*
X189574150Y-67470000D03*
X189574150Y-66200000D03*
X189574150Y-64930000D03*
X189574150Y-63660000D03*
%TD*%
D20*
%TO.C,C1*%
X188798300Y-60600000D03*
X190348300Y-60600000D03*
%TD*%
D21*
%TO.C,R3*%
X157175000Y-69200000D03*
X158825000Y-69200000D03*
%TD*%
D16*
%TO.C,R5*%
X141350000Y-95175000D03*
X141350000Y-96825000D03*
%TD*%
D21*
%TO.C,R6*%
X175050000Y-66200000D03*
X173400000Y-66200000D03*
%TD*%
D18*
%TO.C,C5*%
X129450000Y-79300000D03*
X129450000Y-82375000D03*
%TD*%
D17*
%TO.C,R2*%
X179875000Y-60600000D03*
X181525000Y-60600000D03*
%TD*%
D20*
%TO.C,C2*%
X188775000Y-57725000D03*
X190325000Y-57725000D03*
%TD*%
%TO.C,C3*%
X180625000Y-67450000D03*
X182175000Y-67450000D03*
%TD*%
M02*
