%TF.GenerationSoftware,KiCad,Pcbnew,(6.0.11)*%
%TF.CreationDate,2023-02-16T11:16:17-05:00*%
%TF.ProjectId,DCT_HV_Widget,4443545f-4856-45f5-9769-646765742e6b,rev?*%
%TF.SameCoordinates,Original*%
%TF.FileFunction,Copper,L1,Top*%
%TF.FilePolarity,Positive*%
%FSLAX46Y46*%
G04 Gerber Fmt 4.6, Leading zero omitted, Abs format (unit mm)*
G04 Created by KiCad (PCBNEW (6.0.11)) date 2023-02-16 11:16:17*
%MOMM*%
%LPD*%
G01*
G04 APERTURE LIST*
G04 Aperture macros list*
%AMRoundRect*
0 Rectangle with rounded corners*
0 $1 Rounding radius*
0 $2 $3 $4 $5 $6 $7 $8 $9 X,Y pos of 4 corners*
0 Add a 4 corners polygon primitive as box body*
4,1,4,$2,$3,$4,$5,$6,$7,$8,$9,$2,$3,0*
0 Add four circle primitives for the rounded corners*
1,1,$1+$1,$2,$3*
1,1,$1+$1,$4,$5*
1,1,$1+$1,$6,$7*
1,1,$1+$1,$8,$9*
0 Add four rect primitives between the rounded corners*
20,1,$1+$1,$2,$3,$4,$5,0*
20,1,$1+$1,$4,$5,$6,$7,0*
20,1,$1+$1,$6,$7,$8,$9,0*
20,1,$1+$1,$8,$9,$2,$3,0*%
G04 Aperture macros list end*
%TA.AperFunction,SMDPad,CuDef*%
%ADD10R,0.550000X0.600000*%
%TD*%
%TA.AperFunction,ComponentPad*%
%ADD11C,2.540000*%
%TD*%
%TA.AperFunction,ComponentPad*%
%ADD12C,2.032000*%
%TD*%
%TA.AperFunction,SMDPad,CuDef*%
%ADD13R,1.732000X3.125000*%
%TD*%
%TA.AperFunction,SMDPad,CuDef*%
%ADD14R,0.900000X1.475000*%
%TD*%
%TA.AperFunction,SMDPad,CuDef*%
%ADD15R,0.900000X1.300000*%
%TD*%
%TA.AperFunction,ComponentPad*%
%ADD16RoundRect,0.250001X0.499999X0.759999X-0.499999X0.759999X-0.499999X-0.759999X0.499999X-0.759999X0*%
%TD*%
%TA.AperFunction,ComponentPad*%
%ADD17O,1.500000X2.020000*%
%TD*%
%TA.AperFunction,ComponentPad*%
%ADD18RoundRect,0.250001X0.759999X-0.499999X0.759999X0.499999X-0.759999X0.499999X-0.759999X-0.499999X0*%
%TD*%
%TA.AperFunction,ComponentPad*%
%ADD19O,2.020000X1.500000*%
%TD*%
%TA.AperFunction,ComponentPad*%
%ADD20RoundRect,0.250001X-0.499999X-0.759999X0.499999X-0.759999X0.499999X0.759999X-0.499999X0.759999X0*%
%TD*%
%TA.AperFunction,SMDPad,CuDef*%
%ADD21RoundRect,0.225000X0.250000X-0.225000X0.250000X0.225000X-0.250000X0.225000X-0.250000X-0.225000X0*%
%TD*%
%TA.AperFunction,SMDPad,CuDef*%
%ADD22RoundRect,0.200000X-0.275000X0.200000X-0.275000X-0.200000X0.275000X-0.200000X0.275000X0.200000X0*%
%TD*%
%TA.AperFunction,SMDPad,CuDef*%
%ADD23RoundRect,0.200000X-0.200000X-0.275000X0.200000X-0.275000X0.200000X0.275000X-0.200000X0.275000X0*%
%TD*%
%TA.AperFunction,ComponentPad*%
%ADD24C,6.400000*%
%TD*%
%TA.AperFunction,SMDPad,CuDef*%
%ADD25RoundRect,0.250000X-0.925000X0.412500X-0.925000X-0.412500X0.925000X-0.412500X0.925000X0.412500X0*%
%TD*%
%TA.AperFunction,SMDPad,CuDef*%
%ADD26R,1.460500X0.533400*%
%TD*%
%TA.AperFunction,SMDPad,CuDef*%
%ADD27RoundRect,0.225000X-0.225000X-0.250000X0.225000X-0.250000X0.225000X0.250000X-0.225000X0.250000X0*%
%TD*%
%TA.AperFunction,SMDPad,CuDef*%
%ADD28RoundRect,0.200000X0.200000X0.275000X-0.200000X0.275000X-0.200000X-0.275000X0.200000X-0.275000X0*%
%TD*%
%TA.AperFunction,ViaPad*%
%ADD29C,0.800000*%
%TD*%
%TA.AperFunction,Conductor*%
%ADD30C,0.250000*%
%TD*%
G04 APERTURE END LIST*
D10*
%TO.P,D1,1,K*%
%TO.N,Net-(D1-Pad1)*%
X151850000Y-78075000D03*
%TO.P,D1,2,K*%
X151850000Y-76775000D03*
%TO.P,D1,3,A*%
%TO.N,GND*%
X150000000Y-77425000D03*
%TD*%
D11*
%TO.P,U2,6*%
%TO.N,/HV_Input*%
X160355000Y-120935000D03*
%TO.P,U2,5*%
%TO.N,Net-(D1-Pad1)*%
X160355000Y-85375000D03*
D12*
%TO.P,U2,4*%
%TO.N,Net-(U2-Pad2)*%
X179405000Y-104425000D03*
%TO.P,U2,3*%
%TO.N,/VM6*%
X176865000Y-101885000D03*
%TO.P,U2,2*%
%TO.N,Net-(U2-Pad2)*%
X143845000Y-104425000D03*
%TO.P,U2,1*%
%TO.N,Net-(R5-Pad2)*%
X141305000Y-101885000D03*
%TD*%
D13*
%TO.P,Q1,3,C*%
%TO.N,/VP6*%
X141375000Y-88375000D03*
D14*
X141375000Y-90675000D03*
D15*
%TO.P,Q1,2,B*%
%TO.N,Net-(C1-Pad2)*%
X139875000Y-90762500D03*
%TO.P,Q1,1,E*%
%TO.N,Net-(Q1-Pad1)*%
X142865000Y-90762500D03*
%TD*%
D16*
%TO.P,J3,1,Pin_1*%
%TO.N,GND*%
X161825000Y-134780000D03*
D17*
%TO.P,J3,2,Pin_2*%
%TO.N,/HV_Input*%
X158825000Y-134780000D03*
%TD*%
D18*
%TO.P,J2,1,Pin_1*%
%TO.N,/VP6*%
X125300000Y-88375000D03*
D19*
%TO.P,J2,2,Pin_2*%
%TO.N,GND*%
X125300000Y-85375000D03*
%TO.P,J2,3,Pin_3*%
%TO.N,/VM6*%
X125300000Y-82375000D03*
%TD*%
D20*
%TO.P,J1,1,Pin_1*%
%TO.N,/V_Control*%
X158825000Y-64420000D03*
D17*
%TO.P,J1,2,Pin_2*%
%TO.N,GND*%
X161825000Y-64420000D03*
%TD*%
D21*
%TO.P,C4,1*%
%TO.N,/VP6*%
X191700000Y-64925000D03*
%TO.P,C4,2*%
%TO.N,GND*%
X191700000Y-63375000D03*
%TD*%
D22*
%TO.P,R1,2*%
%TO.N,Net-(D1-Pad1)*%
X158825000Y-73700000D03*
%TO.P,R1,1*%
%TO.N,/V_Control*%
X158825000Y-72050000D03*
%TD*%
D23*
%TO.P,R4,1*%
%TO.N,Net-(C2-Pad1)*%
X183300000Y-60600000D03*
%TO.P,R4,2*%
%TO.N,Net-(C1-Pad1)*%
X184950000Y-60600000D03*
%TD*%
D24*
%TO.P,H2,1,1*%
%TO.N,GND*%
X198950000Y-60900000D03*
%TD*%
D25*
%TO.P,C6,1*%
%TO.N,/VP6*%
X129450000Y-88375000D03*
%TO.P,C6,2*%
%TO.N,GND*%
X129450000Y-91450000D03*
%TD*%
D24*
%TO.P,H1,1,1*%
%TO.N,GND*%
X121375000Y-60900000D03*
%TD*%
%TO.P,H3,1,1*%
%TO.N,GND*%
X121375000Y-138425000D03*
%TD*%
D26*
%TO.P,U1,1,NULL*%
%TO.N,unconnected-(U1-Pad1)*%
X184125850Y-63660000D03*
%TO.P,U1,2,-IN*%
%TO.N,Net-(C2-Pad1)*%
X184125850Y-64930000D03*
%TO.P,U1,3,+IN*%
%TO.N,Net-(R6-Pad1)*%
X184125850Y-66200000D03*
%TO.P,U1,4,V-*%
%TO.N,/VM6*%
X184125850Y-67470000D03*
%TO.P,U1,5,NULL*%
%TO.N,unconnected-(U1-Pad5)*%
X189574150Y-67470000D03*
%TO.P,U1,6,OUT*%
%TO.N,Net-(C1-Pad2)*%
X189574150Y-66200000D03*
%TO.P,U1,7,V+*%
%TO.N,/VP6*%
X189574150Y-64930000D03*
%TO.P,U1,8,NC*%
%TO.N,unconnected-(U1-Pad8)*%
X189574150Y-63660000D03*
%TD*%
D27*
%TO.P,C1,1*%
%TO.N,Net-(C1-Pad1)*%
X188798300Y-60600000D03*
%TO.P,C1,2*%
%TO.N,Net-(C1-Pad2)*%
X190348300Y-60600000D03*
%TD*%
D28*
%TO.P,R3,2*%
%TO.N,GND*%
X157175000Y-69200000D03*
%TO.P,R3,1*%
%TO.N,/V_Control*%
X158825000Y-69200000D03*
%TD*%
D24*
%TO.P,H4,1,1*%
%TO.N,GND*%
X198950000Y-138425000D03*
%TD*%
D22*
%TO.P,R5,1*%
%TO.N,Net-(Q1-Pad1)*%
X141350000Y-95175000D03*
%TO.P,R5,2*%
%TO.N,Net-(R5-Pad2)*%
X141350000Y-96825000D03*
%TD*%
D28*
%TO.P,R6,1*%
%TO.N,Net-(R6-Pad1)*%
X175050000Y-66200000D03*
%TO.P,R6,2*%
%TO.N,Net-(D1-Pad1)*%
X173400000Y-66200000D03*
%TD*%
D25*
%TO.P,C5,1*%
%TO.N,GND*%
X129450000Y-79300000D03*
%TO.P,C5,2*%
%TO.N,/VM6*%
X129450000Y-82375000D03*
%TD*%
D23*
%TO.P,R2,1*%
%TO.N,GND*%
X179875000Y-60600000D03*
%TO.P,R2,2*%
%TO.N,Net-(C2-Pad1)*%
X181525000Y-60600000D03*
%TD*%
D27*
%TO.P,C2,1*%
%TO.N,Net-(C2-Pad1)*%
X188775000Y-57725000D03*
%TO.P,C2,2*%
%TO.N,Net-(C1-Pad2)*%
X190325000Y-57725000D03*
%TD*%
%TO.P,C3,1*%
%TO.N,GND*%
X180625000Y-67450000D03*
%TO.P,C3,2*%
%TO.N,/VM6*%
X182175000Y-67450000D03*
%TD*%
D29*
%TO.N,Net-(C1-Pad2)*%
X192600000Y-56325000D03*
%TO.N,/VP6*%
X193275000Y-64925000D03*
%TO.N,GND*%
X180650000Y-69400000D03*
X148175000Y-77425000D03*
%TO.N,Net-(C1-Pad2)*%
X139875000Y-92675000D03*
%TO.N,/VP6*%
X141400000Y-92725000D03*
%TO.N,GND*%
X129450000Y-76300000D03*
X129475000Y-94300000D03*
X191700000Y-61775000D03*
%TD*%
D30*
%TO.N,GND*%
X157175000Y-69200000D02*
X153325000Y-69200000D01*
X153325000Y-69200000D02*
X148175000Y-74350000D01*
X148175000Y-74350000D02*
X148175000Y-77425000D01*
%TO.N,/HV_Input*%
X158825000Y-134780000D02*
X158825000Y-122465000D01*
X158825000Y-122465000D02*
X160355000Y-120935000D01*
%TO.N,GND*%
X179875000Y-60600000D02*
X176055000Y-64420000D01*
X176055000Y-64420000D02*
X161825000Y-64420000D01*
%TO.N,Net-(C1-Pad2)*%
X190325000Y-57725000D02*
X191200000Y-57725000D01*
X191200000Y-57725000D02*
X192600000Y-56325000D01*
%TO.N,/VM6*%
X146125000Y-82375000D02*
X152675000Y-88925000D01*
X152675000Y-88925000D02*
X169600000Y-88925000D01*
X169600000Y-88925000D02*
X176865000Y-96190000D01*
X176865000Y-96190000D02*
X176865000Y-101885000D01*
X129450000Y-82375000D02*
X146125000Y-82375000D01*
X182175000Y-67450000D02*
X182175000Y-96575000D01*
X182175000Y-96575000D02*
X176865000Y-101885000D01*
%TO.N,Net-(C1-Pad2)*%
X189574150Y-66200000D02*
X193050000Y-66200000D01*
X193050000Y-66200000D02*
X194125000Y-65125000D01*
X194125000Y-65125000D02*
X194125000Y-62950000D01*
X194125000Y-62950000D02*
X191775000Y-60600000D01*
X191775000Y-60600000D02*
X190348300Y-60600000D01*
%TO.N,/VP6*%
X193275000Y-64925000D02*
X191700000Y-64925000D01*
%TO.N,GND*%
X180625000Y-69375000D02*
X180650000Y-69400000D01*
X180625000Y-67450000D02*
X180625000Y-69375000D01*
X148175000Y-77425000D02*
X150000000Y-77425000D01*
%TO.N,Net-(C1-Pad2)*%
X139875000Y-90762500D02*
X139875000Y-92675000D01*
%TO.N,/VP6*%
X141375000Y-92700000D02*
X141400000Y-92725000D01*
X141375000Y-90675000D02*
X141375000Y-92700000D01*
%TO.N,Net-(Q1-Pad1)*%
X142865000Y-90762500D02*
X142865000Y-93660000D01*
X142865000Y-93660000D02*
X141350000Y-95175000D01*
%TO.N,GND*%
X129475000Y-94300000D02*
X129475000Y-91300000D01*
X129450000Y-79300000D02*
X129450000Y-76300000D01*
%TO.N,Net-(R5-Pad2)*%
X141305000Y-101885000D02*
X141305000Y-96870000D01*
X141305000Y-96870000D02*
X141350000Y-96825000D01*
%TO.N,Net-(D1-Pad1)*%
X173400000Y-66200000D02*
X165900000Y-73700000D01*
X165900000Y-73700000D02*
X158825000Y-73700000D01*
X151850000Y-78075000D02*
X153055000Y-78075000D01*
X153055000Y-78075000D02*
X160355000Y-85375000D01*
X151850000Y-78075000D02*
X151850000Y-76775000D01*
X151850000Y-76775000D02*
X155750000Y-76775000D01*
X155750000Y-76775000D02*
X158825000Y-73700000D01*
%TO.N,/V_Control*%
X158825000Y-69200000D02*
X158825000Y-72050000D01*
X158825000Y-69200000D02*
X158825000Y-64420000D01*
%TO.N,/VP6*%
X129450000Y-88375000D02*
X140637500Y-88375000D01*
X125300000Y-88375000D02*
X129450000Y-88375000D01*
%TO.N,/VM6*%
X129450000Y-82375000D02*
X125300000Y-82375000D01*
%TO.N,Net-(C1-Pad1)*%
X184950000Y-60600000D02*
X188798300Y-60600000D01*
%TO.N,Net-(C1-Pad2)*%
X190348300Y-60600000D02*
X190348300Y-57748300D01*
X190348300Y-57748300D02*
X190325000Y-57725000D01*
%TO.N,Net-(C2-Pad1)*%
X186175000Y-57725000D02*
X183300000Y-60600000D01*
X182955000Y-64930000D02*
X181525000Y-63500000D01*
X183300000Y-60600000D02*
X181525000Y-60600000D01*
X184125850Y-64930000D02*
X182955000Y-64930000D01*
X188775000Y-57725000D02*
X186175000Y-57725000D01*
X181525000Y-63500000D02*
X181525000Y-60600000D01*
%TO.N,GND*%
X191700000Y-63375000D02*
X191700000Y-61775000D01*
%TO.N,/VM6*%
X184125850Y-67470000D02*
X182195000Y-67470000D01*
X182195000Y-67470000D02*
X182175000Y-67450000D01*
%TO.N,/VP6*%
X191700000Y-64925000D02*
X189579150Y-64925000D01*
X189579150Y-64925000D02*
X189574150Y-64930000D01*
%TO.N,Net-(R6-Pad1)*%
X184125850Y-66200000D02*
X175050000Y-66200000D01*
%TD*%
M02*
