M48
; DRILL file {KiCad 6.0.9-8da3e8f707~117~ubuntu20.04.1} date Tue 07 Mar 2023 09:14:25 AM EST
; FORMAT={-:-/ absolute / inch / decimal}
; #@! TF.CreationDate,2023-03-07T09:14:25-05:00
; #@! TF.GenerationSoftware,Kicad,Pcbnew,6.0.9-8da3e8f707~117~ubuntu20.04.1
; #@! TF.FileFunction,Plated,1,2,PTH
FMAT,2
INCH
; #@! TA.AperFunction,Plated,PTH,ViaDrill
T1C0.0157
; #@! TA.AperFunction,Plated,PTH,ComponentDrill
T2C0.0315
; #@! TA.AperFunction,Plated,PTH,ComponentDrill
T3C0.0394
; #@! TA.AperFunction,Plated,PTH,ComponentDrill
T4C0.0400
; #@! TA.AperFunction,Plated,PTH,ComponentDrill
T5C0.0402
; #@! TA.AperFunction,Plated,PTH,ComponentDrill
T6C0.0512
; #@! TA.AperFunction,Plated,PTH,ComponentDrill
T7C0.1260
%
G90
G05
T1
X5.7854Y-3.0935
X5.7864Y-3.8022
X5.9665Y-3.7869
X5.9961Y-3.311
X6.0256Y-3.7869
X6.7441Y-3.1299
X6.7536Y-3.0236
X6.8661Y-3.5197
X6.9134Y-2.9764
X6.9148Y-3.025
X7.0276Y-3.4567
T2
X5.5632Y-4.0079
X5.9632Y-4.0079
T3
X5.5632Y-4.3122
X6.9632Y-4.3122
T4
X5.6632Y-4.4122
X7.0632Y-4.4122
T5
X5.622Y-3.3327
X5.622Y-3.4508
X5.622Y-3.5689
X6.124Y-3.0992
X6.2421Y-3.0992
X6.253Y-5.3063
X6.3711Y-5.3063
T6
X6.3132Y-3.6622
X6.3132Y-5.0622
T7
X5.4537Y-2.937
X5.4537Y-5.4478
X7.1732Y-2.9331
X7.1772Y-5.4449
T0
M30
